<svg xmlns="http://www.w3.org/2000/svg" xmlns:xlink="http://www.w3.org/1999/xlink" viewBox="10206 1002 24 24" >
  <defs>
    <style>
      .cls-1 {
        fill: none;
      }

      .cls-2 {
        clip-path: url(#clip-path);
      }

      .cls-3 {
        fill: gray;
        fill-rule: evenodd;
      }
    </style>
    <clipPath id="clip-path">
      <path id="Path_152" data-name="Path 152" class="cls-1" d="M0-64H24v24H0Z" transform="translate(0 64)"/>
    </clipPath>
  </defs>
  <g id="Group_324" data-name="Group 324" transform="translate(10206 1002)">
    <g id="Group_323" data-name="Group 323" class="cls-2">
      <path id="Path_151" data-name="Path 151" class="cls-3" d="M20.438-45H16.813v-3.438h3.625Zm-4.312,0H12.5v-3.438h3.625Zm-4.312,0H8.188v-3.438h3.625ZM7.5-45H3.875v-3.438H7.5Zm12.938-4.938H16.813v-3.438h3.625Zm-4.312,0H12.5v-3.438h3.625Zm-4.312,0H8.188v-3.438h3.625Zm-4.312,0H3.875v-3.438H7.5ZM6-58.75a1.125,1.125,0,0,1-1.125-1.125v-3A1.125,1.125,0,0,1,6-64a1.125,1.125,0,0,1,1.125,1.125v3A1.125,1.125,0,0,1,6-58.75m12,0a1.125,1.125,0,0,1-1.125-1.125v-3A1.125,1.125,0,0,1,18-64a1.125,1.125,0,0,1,1.125,1.125v3A1.125,1.125,0,0,1,18-58.75M9.422-52.375h0M21.75-55H2.25v12.75h19.5Zm1.125,15H1.125A1.125,1.125,0,0,1,0-41.125v-18.75A1.125,1.125,0,0,1,1.125-61h2.25v1.125A2.625,2.625,0,0,0,6-57.25a2.625,2.625,0,0,0,2.625-2.625V-61h6.75v1.125A2.625,2.625,0,0,0,18-57.25a2.625,2.625,0,0,0,2.625-2.625V-61h2.25A1.125,1.125,0,0,1,24-59.875v18.75A1.125,1.125,0,0,1,22.875-40" transform="translate(0 64)"/>
    </g>
  </g>
</svg>
