<?xml version="1.0" encoding="UTF-8" standalone="no"?>
<svg
   xmlns:dc="http://purl.org/dc/elements/1.1/"
   xmlns:cc="http://creativecommons.org/ns#"
   xmlns:rdf="http://www.w3.org/1999/02/22-rdf-syntax-ns#"
   xmlns:svg="http://www.w3.org/2000/svg"
   xmlns="http://www.w3.org/2000/svg"
   xmlns:sodipodi="http://sodipodi.sourceforge.net/DTD/sodipodi-0.dtd"
   xmlns:inkscape="http://www.inkscape.org/namespaces/inkscape"
   viewBox="8723 188 230.303 75.528"
   version="1.1"
   id="svg128"
   sodipodi:docname="eeC_logo.svg"
   inkscape:version="1.0.1 (3bc2e813f5, 2020-09-07)">
  <metadata
     id="metadata132">
    <rdf:RDF>
      <cc:Work
         rdf:about="">
        <dc:format>image/svg+xml</dc:format>
        <dc:type
           rdf:resource="http://purl.org/dc/dcmitype/StillImage" />
      </cc:Work>
    </rdf:RDF>
  </metadata>
  <sodipodi:namedview
     pagecolor="#ffffff"
     bordercolor="#666666"
     borderopacity="1"
     objecttolerance="10"
     gridtolerance="10"
     guidetolerance="10"
     inkscape:pageopacity="0"
     inkscape:pageshadow="2"
     inkscape:window-width="1920"
     inkscape:window-height="1001"
     id="namedview130"
     showgrid="false"
     inkscape:zoom="7.4727641"
     inkscape:cx="89.391286"
     inkscape:cy="37.764"
     inkscape:window-x="-9"
     inkscape:window-y="-9"
     inkscape:window-maximized="1"
     inkscape:current-layer="svg128" />
  <defs
     id="defs76">
    <style
       id="style72">
      .cls-1 {
        fill: none;
      }

      .cls-2 {
        clip-path: url(#clip-path);
      }

      .cls-3 {
        fill: #9a9b9f;
      }

      .cls-4 {
        fill: #fff;
      }

      .cls-5 {
        fill: #fa2b2e;
      }
    </style>
    <clipPath
       id="clip-path">
      <path
         id="Path_258"
         data-name="Path 258"
         class="cls-1"
         d="M0-75.528H230.3V0H0Z"
         transform="translate(0 75.528)" />
    </clipPath>
  </defs>
  <g
     id="Group_474"
     data-name="Group 474"
     class="cls-2"
     clip-path="url(#clip-path)"
     transform="translate(8723,188)">
    <g
       id="Group_450"
       data-name="Group 450">
      <path
         id="Path_234"
         data-name="Path 234"
         class="cls-3"
         d="M 0,0 C -1.092,0 -1.6,1.092 -1.806,2.016 H 1.029 A 5.117,5.117 0 0 0 1.05,1.449 C 1.05,0.735 0.861,0 0,0 M 4.052,3.947 H -2.016 A 2.814,2.814 0 0 0 -2.037,4.367 2.355,2.355 0 0 0 0.63,6.824 5.454,5.454 0 0 0 3.191,6.173 V 8.734 A 13.112,13.112 0 0 1 -0.189,9.2 c -3.338,0 -5.564,-1.532 -5.564,-5.081 0,-3.569 2.268,-6.236 5.942,-6.236 C 2.876,-2.121 4.3,-0.693 4.3,2 A 8.724,8.724 0 0 1 4.048,3.952"
         transform="translate(5.753,61.796)" />
    </g>
    <g
       id="Group_451"
       data-name="Group 451">
      <path
         id="Path_235"
         data-name="Path 235"
         class="cls-3"
         d="m 0,0 -1.155,6.572 h -4.136 l 1.155,-6.53 a 4.931,4.931 0 0 0 0.105,-0.777 0.739,0.739 0 0 0 -0.819,-0.84 1.936,1.936 0 0 0 -1.45,0.84 l -1.3,7.307 h -4.136 l 1.847,-10.435 4.2,-0.672 -0.252,1.47 A 5.388,5.388 0 0 1 -2.478,-4.43 2.407,2.407 0 0 1 0.189,-1.785 10.092,10.092 0 0 1 0,0"
         transform="translate(22.615,64.127)" />
    </g>
    <g
       id="Group_452"
       data-name="Group 452">
      <path
         id="Path_236"
         data-name="Path 236"
         class="cls-3"
         d="M 0,0 C -1.092,0 -1.6,1.092 -1.806,2.016 H 1.029 A 5.117,5.117 0 0 0 1.05,1.449 C 1.05,0.735 0.861,0 0,0 M 4.052,3.947 H -2.016 A 2.814,2.814 0 0 0 -2.037,4.367 2.355,2.355 0 0 0 0.63,6.824 5.454,5.454 0 0 0 3.191,6.173 V 8.734 A 13.112,13.112 0 0 1 -0.189,9.2 c -3.338,0 -5.564,-1.532 -5.564,-5.081 0,-3.569 2.268,-6.236 5.942,-6.236 C 2.876,-2.121 4.3,-0.693 4.3,2 A 8.724,8.724 0 0 1 4.048,3.952"
         transform="translate(29.924,61.796)" />
    </g>
    <g
       id="Group_453"
       data-name="Group 453">
      <path
         id="Path_237"
         data-name="Path 237"
         class="cls-3"
         d="m 0,0 2.52,5.249 h -3.8 l -1.218,-3 -2.036,3 h -3.654 l 4.367,-5.627 -2.457,-5.144 h 3.926 l 1.05,2.73 1.89,-2.73 h 3.506 z"
         transform="translate(42.166,65.45)" />
    </g>
    <g
       id="Group_454"
       data-name="Group 454">
      <path
         id="Path_238"
         data-name="Path 238"
         class="cls-3"
         d="m 0,0 -4.01,0.609 0.546,-3.15 4.01,-0.482 z M -2.079,12.472 H -6.215 L -4.346,2.037 -0.1,1.365 Z"
         transform="translate(52.183,58.227)" />
    </g>
    <g
       id="Group_455"
       data-name="Group 455">
      <path
         id="Path_239"
         data-name="Path 239"
         class="cls-3"
         d="m 0,0 c -1.638,0 -2.058,3.38 -2.058,4.514 0,0.756 0.084,2.163 1.134,2.163 1.659,0 2.037,-3.528 2.037,-4.64 C 1.113,1.3 1.008,0 0,0 m -1.113,9.049 c -3.275,0 -5.039,-1.553 -5.039,-4.913 0,-3.884 2.331,-6.446 6.278,-6.446 3.254,0 4.955,1.7 4.955,4.956 0,3.947 -2.2,6.4 -6.194,6.4"
         transform="translate(59.008,61.943)" />
    </g>
    <g
       id="Group_456"
       data-name="Group 456">
      <path
         id="Path_240"
         data-name="Path 240"
         class="cls-3"
         d="m 0,0 -1.155,6.572 h -4.136 l 1.155,-6.53 a 4.931,4.931 0 0 0 0.105,-0.777 0.739,0.739 0 0 0 -0.819,-0.84 1.936,1.936 0 0 0 -1.45,0.84 l -1.3,7.307 h -4.136 l 1.847,-10.435 4.2,-0.672 -0.252,1.47 A 5.388,5.388 0 0 1 -2.478,-4.43 2.407,2.407 0 0 1 0.189,-1.785 10.092,10.092 0 0 1 0,0"
         transform="translate(76.773,64.127)" />
    </g>
    <g
       id="Group_457"
       data-name="Group 457">
      <path
         id="Path_241"
         data-name="Path 241"
         class="cls-3"
         d="M 0,0 C -1.092,0 -1.6,1.092 -1.806,2.016 H 1.029 A 5.117,5.117 0 0 0 1.05,1.449 C 1.05,0.735 0.861,0 0,0 M 4.052,3.947 H -2.016 A 2.814,2.814 0 0 0 -2.037,4.367 2.355,2.355 0 0 0 0.63,6.824 5.454,5.454 0 0 0 3.191,6.173 V 8.734 A 13.112,13.112 0 0 1 -0.189,9.2 c -3.338,0 -5.564,-1.532 -5.564,-5.081 0,-3.569 2.268,-6.236 5.942,-6.236 C 2.876,-2.121 4.3,-0.693 4.3,2 A 8.724,8.724 0 0 1 4.048,3.952"
         transform="translate(88.24,61.796)" />
    </g>
    <g
       id="Group_458"
       data-name="Group 458">
      <path
         id="Path_242"
         data-name="Path 242"
         class="cls-3"
         d="m 0,0 -1.155,6.572 h -4.136 l 1.155,-6.53 a 4.931,4.931 0 0 0 0.105,-0.777 0.739,0.739 0 0 0 -0.819,-0.84 1.936,1.936 0 0 0 -1.45,0.84 l -1.3,7.307 h -4.136 l 1.847,-10.435 4.2,-0.672 -0.252,1.47 A 5.388,5.388 0 0 1 -2.478,-4.43 2.407,2.407 0 0 1 0.189,-1.785 10.092,10.092 0 0 1 0,0"
         transform="translate(105.102,64.127)" />
    </g>
    <g
       id="Group_459"
       data-name="Group 459">
      <path
         id="Path_243"
         data-name="Path 243"
         class="cls-3"
         d="M 0,0 C -1.092,0 -1.6,1.092 -1.806,2.016 H 1.029 A 5.117,5.117 0 0 0 1.05,1.449 C 1.05,0.735 0.861,0 0,0 M 4.052,3.947 H -2.016 A 2.814,2.814 0 0 0 -2.037,4.367 2.355,2.355 0 0 0 0.63,6.824 5.454,5.454 0 0 0 3.191,6.173 V 8.734 A 13.112,13.112 0 0 1 -0.189,9.2 c -3.338,0 -5.564,-1.532 -5.564,-5.081 0,-3.569 2.268,-6.236 5.942,-6.236 C 2.876,-2.121 4.3,-0.693 4.3,2 A 8.724,8.724 0 0 1 4.048,3.952"
         transform="translate(112.411,61.796)" />
    </g>
    <g
       id="Group_460"
       data-name="Group 460">
      <path
         id="Path_244"
         data-name="Path 244"
         class="cls-3"
         d="M 0,0 A 2.34,2.34 0 0 0 -1.281,-0.378 2.344,2.344 0 0 0 -2.876,0.252 4.5,4.5 0 0 0 -3.947,2.9 l -0.861,4.851 h -4.136 l 1.844,-10.439 4.158,-0.671 -0.252,1.406 a 3.2,3.2 0 0 1 2.694,-1.364 3.452,3.452 0 0 1 1.512,0.336 z"
         transform="translate(126.48,62.951)" />
    </g>
    <g
       id="Group_461"
       data-name="Group 461">
      <path
         id="Path_245"
         data-name="Path 245"
         class="cls-3"
         d="m 0,0 c -2,0 -2.771,2.373 -2.771,4.01 0,0.756 0.146,1.785 1.112,1.785 A 1.73,1.73 0 0 0 -0.42,5.144 l 0.9,-5.1 A 1.88,1.88 0 0 0 0,0 M 3.422,6.509 C 3,8.86 2.625,10.6 1.47,11.737 c -1.029,0.987 -2.5,1.554 -4.976,1.554 a 7.116,7.116 0 0 1 -3.885,-0.882 l 0.924,-2.457 a 4.478,4.478 0 0 0 2.562,0.819 c 2.414,0 2.75,-1.638 3.128,-3.527 A 3.833,3.833 0 0 1 -3.695,8.5 c -2.352,0 -3.381,-1.784 -3.381,-3.947 a 7.287,7.287 0 0 1 1.932,-4.931 c 1.617,-1.7 3.863,-2.058 6.11,-2.058 a 20.64,20.64 0 0 1 3.947,0.42 z"
         transform="translate(134.124,62.237)" />
    </g>
    <g
       id="Group_462"
       data-name="Group 462">
      <path
         id="Path_246"
         data-name="Path 246"
         class="cls-3"
         d="M 0,0 H -3.926 L -1.575,-4.661 -3.653,-15.1 h 3.884 l 0.9,6.887 2.963,-6.887 h 3.549 z"
         transform="translate(143.448,75.024)" />
    </g>
    <g
       id="Group_463"
       data-name="Group 463">
      <path
         id="Path_247"
         data-name="Path 247"
         class="cls-3"
         d="m 0,0 a 4.286,4.286 0 0 0 -2.5,-0.819 c -3.086,0 -4.766,2.541 -4.766,5.417 0,2.415 1.176,4.325 3.78,4.325 a 5.855,5.855 0 0 0 2.772,-0.714 v 3.045 a 12.74,12.74 0 0 1 -4.052,0.525 c -4.388,0 -6.929,-2.793 -6.929,-6.992 a 8.005,8.005 0 0 1 8.252,-8.419 9.43,9.43 0 0 1 4.325,0.84 z"
         transform="translate(167.302,59.214)" />
    </g>
    <g
       id="Group_464"
       data-name="Group 464">
      <path
         id="Path_248"
         data-name="Path 248"
         class="cls-3"
         d="m 0,0 c -1.638,0 -2.058,3.38 -2.058,4.514 0,0.756 0.084,2.163 1.134,2.163 1.659,0 2.037,-3.528 2.037,-4.64 C 1.113,1.3 1.008,0 0,0 m -1.113,9.049 c -3.275,0 -5.039,-1.553 -5.039,-4.913 0,-3.884 2.331,-6.446 6.278,-6.446 3.254,0 4.955,1.7 4.955,4.956 0,3.947 -2.2,6.4 -6.194,6.4"
         transform="translate(174.485,61.943)" />
    </g>
    <g
       id="Group_465"
       data-name="Group 465">
      <path
         id="Path_249"
         data-name="Path 249"
         class="cls-3"
         d="m 0,0 a 2.366,2.366 0 0 0 -1.449,-0.441 c -2.036,0 -3.151,1.741 -3.151,3.632 0,1.533 0.777,2.6 2.372,2.6 A 3.847,3.847 0 0 0 -0.42,5.333 v 2.562 a 10.046,10.046 0 0 1 -3.023,0.419 c -3.213,0 -5.039,-1.826 -5.039,-4.913 0,-3.884 2.6,-6.361 6.445,-6.361 a 7.583,7.583 0 0 1 2.814,0.482 z"
         transform="translate(189.437,62.636)" />
    </g>
    <g
       id="Group_466"
       data-name="Group 466">
      <path
         id="Path_250"
         data-name="Path 250"
         class="cls-3"
         d="M 0,0 2.058,6.257 H -2.247 L -3.821,0.42 -4.85,6.257 h -4.094 l 2.771,-15.557 4.22,-0.735 -1.721,9.678 3.274,-4.157 h 4.179 z"
         transform="translate(199.391,64.442)" />
    </g>
    <g
       id="Group_467"
       data-name="Group 467">
      <path
         id="Path_251"
         data-name="Path 251"
         class="cls-3"
         d="m 0,0 a 1.865,1.865 0 0 0 -1.281,0.567 l -1.008,5.48 a 3.534,3.534 0 0 0 0.42,0.042 2.309,2.309 0 0 0 1.848,-0.882 6.327,6.327 0 0 0 1.092,-3.59 C 1.071,0.546 0.714,0 0,0 m 2.6,7.307 a 7.46,7.46 0 0 1 -4.2,1.07 c -0.357,0 -0.609,-0.021 -1.112,-0.063 l -0.777,4.347 h -4.07 l 2.646,-14.761 4.2,-0.671 -0.148,1.028 A 4.828,4.828 0 0 1 1.89,-2.562 c 2.267,0 3.4,1.386 3.4,4.179 A 6.763,6.763 0 0 1 2.6,7.307"
         transform="translate(209.576,62.363)" />
    </g>
    <g
       id="Group_468"
       data-name="Group 468">
      <path
         id="Path_252"
         data-name="Path 252"
         class="cls-3"
         d="m 0,0 -4.01,0.609 0.546,-3.15 4.01,-0.482 z M -2.079,12.472 H -6.215 L -4.346,2.037 -0.1,1.365 Z"
         transform="translate(221.987,58.227)" />
    </g>
    <g
       id="Group_469"
       data-name="Group 469">
      <path
         id="Path_253"
         data-name="Path 253"
         class="cls-3"
         d="m 0,0 h -1.848 l -0.693,3.863 a 7.35,7.35 0 0 0 -0.167,1.344 c 0,0.651 0.251,1.071 0.944,1.071 a 1.808,1.808 0 0 0 0.8,-0.21 l -0.21,2.288 a 8.408,8.408 0 0 1 -2.288,0.252 c -2.079,0 -3.171,-0.881 -3.171,-3.023 A 8.672,8.672 0 0 1 -6.465,3.947 L -5.774,0 h -1.512 l 0.4,-2.31 h 1.575 l 0.5,-2.876 4.034,-0.924 -0.672,3.8 H 0.4 Z"
         transform="translate(229.904,62.237)" />
    </g>
    <g
       id="Group_470"
       data-name="Group 470">
      <path
         id="Path_254"
         data-name="Path 254"
         class="cls-4"
         d="M 0,0 C 0.167,-0.043 0.336,-0.089 0.5,-0.134 H 0.012 C 0,-0.087 0,-0.045 0,0"
         transform="translate(112.335,32.422)" />
    </g>
    <g
       id="Group_471"
       data-name="Group 471">
      <path
         id="Path_255"
         data-name="Path 255"
         class="cls-5"
         d="m 0,0 a 13.608,13.608 0 0 1 7.938,2.6 l 2.8,-8.873 A 24.546,24.546 0 0 0 2.53,-8.629 C 2.08,-8.685 1.621,-8.729 1.16,-8.767 -0.183,-8.882 -1.567,-8.939 -3,-8.939 c -13.015,0 -23.323,8.117 -25.7,20.959 -0.074,0.4 -0.138,0.815 -0.2,1.229 a 32.282,32.282 0 0 0 -0.321,4.563 c 0,13.342 8.073,22.215 22.015,22.215 A 40.481,40.481 0 0 0 5.67,38.359 v -9.673 a 18.609,18.609 0 0 1 -8.806,2.268 c -8.272,0 -12.008,-6.071 -12.008,-13.743 C -15.144,8.072 -9.807,0 0,0"
         transform="translate(167.446,8.939)"
         style="fill:#e31837;fill-opacity:1" />
    </g>
    <g
       id="Group_472"
       data-name="Group 472">
      <path
         id="Path_256"
         data-name="Path 256"
         class="cls-3"
         d="m 0,0 h -9.006 c 0.667,-2.935 2.268,-6.4 5.737,-6.4 2.735,0 3.336,2.331 3.336,4.6 A 16.192,16.192 0 0 1 0,0 m -2.668,-13.142 c -11.271,0 -18.355,7.905 -18.833,18.655 -0.016,0.342 -0.04,0.681 -0.041,1.029 0,0.043 -0.006,0.085 -0.006,0.129 0,11.274 7.071,16.144 17.679,16.144 a 41.693,41.693 0 0 0 10.74,-1.467 v -8.139 a 17.351,17.351 0 0 1 -8.139,2.068 c -4.512,0 -7.766,-2.123 -8.364,-6.355 A 9.894,9.894 0 0 1 -9.721,7.906 C -9.727,7.761 -9.74,7.621 -9.74,7.472 A 8.913,8.913 0 0 1 -9.673,6.137 H 9.606 a 27.739,27.739 0 0 0 0.8,-6.2 c 0,-8.539 -4.536,-13.075 -13.075,-13.075"
         transform="translate(86.068,26.151)" />
    </g>
    <g
       id="Group_473"
       data-name="Group 473">
      <path
         id="Path_257"
         data-name="Path 257"
         class="cls-3"
         d="M 0,0 C 2.735,0 3.336,2.335 3.336,4.6 A 16.174,16.174 0 0 1 3.269,6.4 H -5.737 C -5.07,3.469 -3.469,0 0,0 M 13.581,4.394 C 12.922,-2.882 8.463,-6.738 0.6,-6.738 c -11.675,0 -18.88,8.472 -18.88,19.814 0,0.328 0.027,0.632 0.038,0.949 0.013,0.336 0.015,0.681 0.041,1.005 0.784,9.883 7.628,14.19 17.6,14.19 a 41.694,41.694 0 0 0 10.74,-1.468 V 19.613 A 17.351,17.351 0 0 1 2,21.681 c -5,0 -8.472,-2.6 -8.472,-7.8 a 9.962,9.962 0 0 1 0.055,-1.2 c 0.005,-0.045 0.005,-0.087 0.012,-0.133 h 19.28 a 27.748,27.748 0 0 0 0.8,-6.2 c 0,-0.3 -0.019,-0.582 -0.03,-0.872 C 13.631,5.112 13.611,4.753 13.58,4.405"
         transform="translate(118.752,19.747)" />
    </g>
  </g>
</svg>
