<?xml version="1.0" encoding="UTF-8"?>
<svg version="1.1" xmlns="http://www.w3.org/2000/svg" width="500" height="500">
<path d="M0 0 C0.7286174 -0.0066568 1.4572348 -0.0133136 2.20793152 -0.02017212 C3.74512217 -0.03026432 5.28235633 -0.0349902 6.81958008 -0.03466797 C9.15065187 -0.03903009 11.47981092 -0.07535107 13.81054688 -0.11328125 C22.69109321 -0.18153903 29.25666171 0.11318032 36.37890625 6.01171875 C36.82492188 6.55183594 37.2709375 7.09195313 37.73046875 7.6484375 C38.42269531 8.44701172 38.42269531 8.44701172 39.12890625 9.26171875 C43.20205347 16.14974796 42.59507699 23.51974913 42.48046875 31.2734375 C42.47144531 32.43423828 42.46242187 33.59503906 42.453125 34.79101562 C42.42968037 37.63953858 42.39686397 40.48762828 42.35546875 43.3359375 C42.97510498 43.50174316 43.59474121 43.66754883 44.2331543 43.83837891 C51.09757515 45.77133934 57.11139383 48.50745513 63.36132812 51.90234375 C67.4971072 54.11337022 67.4971072 54.11337022 71.9453125 53.49609375 C75.79814576 50.04290608 79.33464938 46.32750883 82.83203125 42.51757812 C88.14235422 36.97714116 94.08955043 33.2444421 101.91796875 32.8359375 C110.92841963 33.32466622 116.63549425 39.09493094 122.54296875 45.3359375 C123.90915894 46.75482176 125.27759114 48.17155126 126.6484375 49.5859375 C127.60387451 50.57364136 127.60387451 50.57364136 128.57861328 51.58129883 C130.70340665 53.67952498 133.01431288 55.48629501 135.35546875 57.3359375 C139.52093805 64.03044173 139.63597035 70.06768538 138.4140625 77.61328125 C135.50102601 85.1054821 129.32428196 90.55838526 123.48046875 95.8359375 C122.44792969 96.78339844 122.44792969 96.78339844 121.39453125 97.75 C119.72024971 99.28475808 118.04065258 100.8131733 116.35546875 102.3359375 C116.7565686 103.23517944 116.7565686 103.23517944 117.16577148 104.15258789 C118.38390066 106.89728364 119.58850195 109.64772046 120.79296875 112.3984375 C121.21384766 113.34138672 121.63472656 114.28433594 122.06835938 115.25585938 C124.28267499 120.33992804 125.93260209 124.79253997 126.35546875 130.3359375 C127.56493164 130.31237183 127.56493164 130.31237183 128.79882812 130.28833008 C132.48430245 130.22561774 136.1696641 130.1868313 139.85546875 130.1484375 C141.12390625 130.12330078 142.39234375 130.09816406 143.69921875 130.07226562 C152.17277943 130.00606593 159.46347963 130.27864279 166.16796875 136.0859375 C166.71066406 136.53453125 167.25335938 136.983125 167.8125 137.4453125 C171.87854147 142.42750003 172.73701963 147.48839721 172.75390625 153.7734375 C172.75677643 154.45720459 172.75964661 155.14097168 172.76260376 155.84545898 C172.76463115 157.28077022 172.7591947 158.71610993 172.74658203 160.15136719 C172.73050727 162.33071501 172.74647395 164.50820888 172.765625 166.6875 C172.76364233 168.09114987 172.75979816 169.4947986 172.75390625 170.8984375 C172.75052246 172.15785156 172.74713867 173.41726563 172.74365234 174.71484375 C172.01080184 181.55109447 169.03808533 186.43033918 164.35546875 191.3359375 C159.24805104 194.94850125 155.01140058 195.45597603 148.83984375 195.65234375 C146.96425781 195.71518555 146.96425781 195.71518555 145.05078125 195.77929688 C143.74882812 195.81861328 142.446875 195.85792969 141.10546875 195.8984375 C139.12933594 195.96321289 139.12933594 195.96321289 137.11328125 196.02929688 C133.86078087 196.13535667 130.60820483 196.23741774 127.35546875 196.3359375 C126.96875 197.48191406 126.58203125 198.62789062 126.18359375 199.80859375 C125.6579236 201.33866936 125.13186096 202.86861015 124.60546875 204.3984375 C124.3528125 205.15060547 124.10015625 205.90277344 123.83984375 206.67773438 C122.54408986 210.41922374 121.18162605 213.77373748 119.08984375 217.14453125 C117.14425333 220.02282292 117.14425333 220.02282292 117.53100586 222.30761719 C118.55219483 224.81991744 119.84386375 226.11895567 121.8125 227.98046875 C122.51310547 228.65787109 123.21371094 229.33527344 123.93554688 230.03320312 C125.41180228 231.43196481 126.88835981 232.8304077 128.36523438 234.22851562 C134.70569884 240.36014503 138.96038992 245.70608678 139.42578125 254.80859375 C139.12336908 265.67863134 131.68488788 272.14960435 124.35546875 279.3359375 C123.81019531 279.8717041 123.26492188 280.4074707 122.703125 280.95947266 C110.74419495 292.58501527 110.74419495 292.58501527 102.04296875 292.7109375 C101.15996094 292.73929687 100.27695313 292.76765625 99.3671875 292.796875 C90.62148274 291.45836247 85.25859958 285.75506729 79.35546875 279.5859375 C78.58074219 278.79316406 77.80601562 278.00039063 77.0078125 277.18359375 C75.11419778 275.24322311 73.23062588 273.2941227 71.35546875 271.3359375 C70.31648437 271.86703125 69.2775 272.398125 68.20703125 272.9453125 C47.74741922 283.3359375 47.74741922 283.3359375 42.35546875 283.3359375 C42.3711792 284.056604 42.38688965 284.77727051 42.40307617 285.51977539 C42.46577362 288.81258165 42.5045697 292.10526188 42.54296875 295.3984375 C42.56810547 296.53216797 42.59324219 297.66589844 42.61914062 298.83398438 C42.69002617 306.93856526 42.01058791 312.75976657 36.54296875 319.0859375 C36.08277344 319.63765625 35.62257812 320.189375 35.1484375 320.7578125 C30.30851387 325.01778885 25.42196359 325.79460199 19.17578125 325.76953125 C18.40418671 325.7747731 17.63259216 325.78001495 16.83761597 325.78541565 C15.21223142 325.79181173 13.58680044 325.79053023 11.96142578 325.78198242 C9.49426469 325.77348502 7.02943213 325.80224348 4.5625 325.83398438 C2.9752611 325.83559716 1.38801816 325.83501738 -0.19921875 325.83203125 C-0.92656219 325.84326523 -1.65390564 325.85449921 -2.40328979 325.86607361 C-7.87177337 325.79286972 -12.05399318 324.32667909 -16.64453125 321.3359375 C-18.703125 319.08203125 -18.703125 319.08203125 -20.08203125 316.7734375 C-20.79166016 315.62681641 -20.79166016 315.62681641 -21.515625 314.45703125 C-23.40522215 310.9066809 -23.80778038 307.97192425 -23.9609375 304.01171875 C-24.0237793 302.46967773 -24.0237793 302.46967773 -24.08789062 300.89648438 C-24.12720703 299.82462891 -24.16652344 298.75277344 -24.20703125 297.6484375 C-24.27180664 296.02325195 -24.27180664 296.02325195 -24.33789062 294.36523438 C-24.44399963 291.68892959 -24.54605486 289.01253224 -24.64453125 286.3359375 C-25.81628906 285.96082031 -26.98804687 285.58570313 -28.1953125 285.19921875 C-36.20755125 282.59929421 -43.9788721 280.01477963 -51.48046875 276.12109375 C-54.10630555 275.16839845 -55.04421583 275.40341905 -57.64453125 276.3359375 C-59.36318518 277.69196663 -59.36318518 277.69196663 -60.921875 279.42578125 C-61.51806641 280.04517578 -62.11425781 280.66457031 -62.72851562 281.30273438 C-63.96040972 282.61251429 -65.19218132 283.92240942 -66.42382812 285.23242188 C-70.53523638 289.50349647 -73.42364664 291.95387395 -79.4765625 292.671875 C-80.46011719 292.68476563 -81.44367188 292.69765625 -82.45703125 292.7109375 C-83.43285156 292.73929687 -84.40867187 292.76765625 -85.4140625 292.796875 C-92.91227753 291.72699668 -98.05356102 287.5561021 -103.14453125 282.2109375 C-103.69987549 281.64052734 -104.25521973 281.07011719 -104.82739258 280.48242188 C-119.87766398 264.82646616 -119.87766398 264.82646616 -120.01953125 255.0234375 C-119.67197917 243.15927322 -111.46428178 236.40159213 -103.64453125 228.3359375 C-104.42376953 226.75619141 -104.42376953 226.75619141 -105.21875 225.14453125 C-109.80169119 215.71365636 -113.60439781 206.37714747 -116.64453125 196.3359375 C-117.52806274 196.32191895 -117.52806274 196.32191895 -118.42944336 196.30761719 C-121.14776141 196.25329875 -123.86446973 196.1697791 -126.58203125 196.0859375 C-127.50822266 196.07175781 -128.43441406 196.05757812 -129.38867188 196.04296875 C-136.95185013 195.77759407 -143.65145314 194.4057612 -149.08203125 188.8359375 C-149.59765625 188.0109375 -150.11328125 187.1859375 -150.64453125 186.3359375 C-150.9998291 185.80403809 -151.35512695 185.27213867 -151.72119141 184.72412109 C-153.12227795 181.10026372 -152.96998255 177.45834799 -152.98046875 173.625 C-152.98712555 172.77924408 -152.99378235 171.93348816 -153.00064087 171.06210327 C-153.01075248 169.27514822 -153.01545835 167.48815551 -153.01513672 165.70117188 C-153.01950513 162.97722647 -153.05582564 160.25490837 -153.09375 157.53125 C-153.09961958 155.79167218 -153.10358803 154.0520867 -153.10546875 152.3125 C-153.1270253 151.09815781 -153.1270253 151.09815781 -153.14901733 149.85928345 C-153.10634916 144.53763286 -152.13644657 141.57459158 -148.64453125 137.3359375 C-141.47202498 130.47527933 -135.24964017 130.04394371 -125.76953125 130.2109375 C-124.795 130.21996094 -123.82046875 130.22898438 -122.81640625 130.23828125 C-120.42552397 130.26172127 -118.03515864 130.29453308 -115.64453125 130.3359375 C-115.53351074 129.7805127 -115.42249023 129.22508789 -115.30810547 128.65283203 C-114.18980012 123.31633761 -112.71874252 118.29887872 -110.76953125 113.2109375 C-110.52589844 112.54707031 -110.28226563 111.88320312 -110.03125 111.19921875 C-108.72950119 107.75261957 -107.3004144 104.70820779 -105.32421875 101.59375 C-103.36389001 98.61779645 -103.36389001 98.61779645 -104.0546875 96.23046875 C-106.65980791 93.12608694 -109.58173606 90.3936151 -112.56835938 87.66601562 C-116.86720279 83.56442008 -119.16932349 79.41408508 -120.078125 73.52734375 C-120.07941406 72.65980469 -120.08070312 71.79226562 -120.08203125 70.8984375 C-120.10136719 70.03347656 -120.12070313 69.16851562 -120.140625 68.27734375 C-118.79722655 60.31215454 -113.84655159 54.85883881 -108.39453125 49.2109375 C-107.76417969 48.53417969 -107.13382813 47.85742188 -106.484375 47.16015625 C-98.72976344 38.99491352 -91.92520415 33.28728302 -80.4375 32.875 C-71.5814908 34.33655117 -66.40075578 40.24784434 -60.66992188 46.64257812 C-59.05972438 48.35665933 -57.53104155 49.9312758 -55.64453125 51.3359375 C-52.98879413 51.58187799 -52.98879413 51.58187799 -50.64453125 50.3359375 C-49.86335938 50.00078125 -49.0821875 49.665625 -48.27734375 49.3203125 C-47.44976562 48.91296875 -46.6221875 48.505625 -45.76953125 48.0859375 C-38.92923357 44.87633134 -31.8339579 42.61598509 -24.64453125 40.3359375 C-24.6305127 39.30823242 -24.6305127 39.30823242 -24.61621094 38.25976562 C-24.56211215 35.11779315 -24.47854301 31.97724683 -24.39453125 28.8359375 C-24.38035156 27.75828125 -24.36617187 26.680625 -24.3515625 25.5703125 C-24.11697853 17.87595813 -22.99506234 12.21865586 -17.8984375 6.3125 C-17.34027344 5.86648437 -16.78210938 5.42046875 -16.20703125 4.9609375 C-15.65144531 4.49945313 -15.09585938 4.03796875 -14.5234375 3.5625 C-9.84402565 0.50774881 -5.48353974 0.01761594 0 0 Z M-36.26953125 124.6484375 C-46.69978691 137.80578887 -51.60891729 152.54177283 -50.42578125 169.46484375 C-48.09958173 186.62056522 -38.15746168 202.12263518 -24.58203125 212.7109375 C-23.28408253 213.60738068 -21.9721284 214.48401787 -20.64453125 215.3359375 C-20.09023437 215.71363281 -19.5359375 216.09132813 -18.96484375 216.48046875 C-5.36795483 224.54795618 13.71229611 223.43240296 28.421875 219.875 C43.35259117 215.71249731 54.3158913 204.05971398 61.93359375 191.0625 C69.12873679 177.26522022 70.73788071 161.10840381 66.85546875 146.0234375 C61.38557793 129.63289054 51.45770056 117.00436942 35.98046875 109.03125 C10.66278193 96.81871196 -18.26126159 103.4570367 -36.26953125 124.6484375 Z " fill="#EB1C25" transform="translate(152.64453125,113.6640625)"/>
<path d="M0 0 C5.77815367 4.11230714 5.77815367 4.11230714 7 8 C7.36825993 14.01491216 6.6058318 20.01741093 6 26 C7.9057993 27.36941868 9.82506573 28.72011163 11.75 30.0625 C12.81734375 30.81660156 13.8846875 31.57070312 14.984375 32.34765625 C17.73963172 34.18900902 17.73963172 34.18900902 20.13671875 33.93359375 C22.33732949 32.83098166 24.1414755 31.53978072 26.0625 30 C30.6544428 26.33349673 34.07293411 25.49770628 40 26 C45.05684232 28.78739691 48.05354543 32.13273307 51.3125 36.75 C51.75400391 37.33265625 52.19550781 37.9153125 52.65039062 38.515625 C55.87380128 43.01754003 56.76476428 46.46335433 57 52 C56.04292826 56.54609078 55.13855217 58.12513092 51.453125 60.95703125 C47.72678096 63.37718326 44.22623007 65.59125664 40 67 C40.2165625 67.80824219 40.433125 68.61648437 40.65625 69.44921875 C41.07390625 71.05216797 41.07390625 71.05216797 41.5 72.6875 C41.91765625 74.27111328 41.91765625 74.27111328 42.34375 75.88671875 C42.9391715 78.71142672 43.12786492 81.12836708 43 84 C44.16917969 84.17015625 45.33835937 84.3403125 46.54296875 84.515625 C48.09127467 84.75960048 49.63944496 85.00443771 51.1875 85.25 C51.95642578 85.35957031 52.72535156 85.46914062 53.51757812 85.58203125 C58.37034829 86.37347016 61.41093619 87.40396713 65 91 C68.14705302 97.29410604 66.51118539 109.59818651 64.6875 116.234375 C63.1092352 120.28764597 61.15044843 122.41139848 57.3125 124.375 C52.98154157 125.19216197 49.32215146 124.64973519 45 124 C43.31326143 123.8057695 41.62576244 123.61800605 39.9375 123.4375 C38.638125 123.293125 37.33875 123.14875 36 123 C35.03980636 124.58220587 34.08192202 126.16581331 33.125 127.75 C32.59132813 128.63171875 32.05765625 129.5134375 31.5078125 130.421875 C30.24403334 132.58274093 29.08501165 134.74570395 28 137 C28.56589844 137.68964844 29.13179687 138.37929687 29.71484375 139.08984375 C37.19201866 148.66956345 37.19201866 148.66956345 37.28125 154.94921875 C36.55475712 160.24656269 34.37596683 162.87290012 30.38671875 166.140625 C27.6338784 168.16788226 24.84763006 170.10882583 22 172 C21.01 172.66 20.02 173.32 19 174 C16.6953125 174.30078125 16.6953125 174.30078125 14.125 174.3125 C13.28195312 174.32925781 12.43890625 174.34601563 11.5703125 174.36328125 C7.22859755 173.74963461 4.76672646 171.91502945 1.98046875 168.58984375 C1.38878906 167.71457031 0.79710937 166.83929688 0.1875 165.9375 C-0.41707031 165.05964844 -1.02164063 164.18179688 -1.64453125 163.27734375 C-3 161 -3 161 -3 159 C-4.13179688 159.28875 -5.26359375 159.5775 -6.4296875 159.875 C-7.91142697 160.25012392 -9.39319953 160.62511714 -10.875 161 C-11.62136719 161.19078125 -12.36773437 161.3815625 -13.13671875 161.578125 C-18.7734375 163 -18.7734375 163 -21 163 C-21.03738281 163.6290625 -21.07476562 164.258125 -21.11328125 164.90625 C-22.15904798 178.5217227 -22.15904798 178.5217227 -27.9375 183.5625 C-33.13044232 186.02805665 -38.52061449 184.9210173 -44 184 C-45.08925781 183.82210937 -46.17851562 183.64421875 -47.30078125 183.4609375 C-52.15902238 182.47623905 -55.17008476 181.8492156 -58.6875 178.25 C-61.59352068 171.05413927 -60.88582528 164.53632891 -60 157 C-61.91575126 155.87344187 -63.83263719 154.74881313 -65.75 153.625 C-66.81734375 152.99851563 -67.8846875 152.37203125 -68.984375 151.7265625 C-71.29738678 150.40227337 -73.59951417 149.15363154 -76 148 C-76.556875 148.42152344 -77.11375 148.84304687 -77.6875 149.27734375 C-82.89744505 153.01759146 -86.5175932 155.10626896 -93 155 C-98.61145722 152.9233791 -101.46126977 149.63210551 -104.875 144.9375 C-105.36242676 144.2686377 -105.84985352 143.59977539 -106.35205078 142.91064453 C-109.50783172 138.32412533 -111.32749571 134.71905369 -110.5546875 129.0078125 C-108.75725114 122.50159921 -104.34826858 119.69678422 -99 116 C-99.47535969 113.20763552 -99.9551067 110.41615009 -100.4375 107.625 C-100.57220703 106.8309375 -100.70691406 106.036875 -100.84570312 105.21875 C-101.51417589 100.98605017 -101.51417589 100.98605017 -103 97 C-104.88278506 96.54614046 -106.78251287 96.16163048 -108.6875 95.8125 C-113.82083213 94.58270291 -116.99616908 93.36347395 -120.07421875 88.99609375 C-123.44172782 81.73534634 -120.52662535 71.14008801 -118 64 C-115.39031287 60.91151077 -112.89279001 58.27767196 -109 57 C-106.30859375 56.98828125 -106.30859375 56.98828125 -103.4375 57.3125 C-102.48746094 57.41175781 -101.53742188 57.51101562 -100.55859375 57.61328125 C-98 58 -98 58 -95 59 C-94.74476563 58.29101562 -94.48953125 57.58203125 -94.2265625 56.8515625 C-92.45989904 52.74435127 -89.94633649 49.22617478 -87.4609375 45.5234375 C-85.74948186 43.05325883 -85.74948186 43.05325883 -86 40 C-87.05831828 38.10913021 -87.05831828 38.10913021 -88.4375 36.1875 C-90.6450134 32.74101184 -92 30.19789294 -92 26 C-90.03714522 19.85354233 -87.43749441 17.1941881 -82.125 13.6875 C-81.51269531 13.25888672 -80.90039062 12.83027344 -80.26953125 12.38867188 C-74.8797641 8.68969891 -70.55510918 6.31898312 -63.91796875 7.40234375 C-58.37737715 9.12884174 -55.12778978 15.44236347 -52 20 C-51.04738281 19.855625 -50.09476562 19.71125 -49.11328125 19.5625 C-47.85902344 19.376875 -46.60476563 19.19125 -45.3125 19 C-44.07113281 18.814375 -42.82976562 18.62875 -41.55078125 18.4375 C-38.64113629 18.07899589 -35.92299978 17.91057744 -33 18 C-32.90203125 17.13117188 -32.8040625 16.26234375 -32.703125 15.3671875 C-31.16794361 3.53570334 -31.16794361 3.53570334 -27 -1 C-19.23805777 -5.70618813 -8.02588051 -2.81905108 0 0 Z M-55 70 C-58.36633381 75.04950071 -59.81693189 79.18020845 -60.4375 85.1875 C-60.51677734 85.9292749 -60.59605469 86.6710498 -60.67773438 87.43530273 C-61.39904842 95.866116 -60.18073932 103.33676726 -55.25 110.375 C-54.2014946 111.6136755 -53.118161 112.82382121 -52 114 C-51.21109375 114.83144531 -51.21109375 114.83144531 -50.40625 115.6796875 C-43.84072815 121.90454548 -35.02605405 125.12364458 -26 125 C-16.6008377 124.16716283 -9.04054311 120.17161532 -2 114 C4.58194578 105.50546477 8.3490871 96.86100501 7 86 C4.81972725 76.23446696 0.63340645 67.9143606 -7.75 62.125 C-23.91182927 53.09063122 -42.90960674 55.68301498 -55 70 Z " fill="#EB1C24" transform="translate(434,64)"/>
<path d="M0 0 C6.62357414 1.78326996 6.62357414 1.78326996 9.0625 3.1875 C11.89399525 4.37490123 14.07426302 3.66494022 17 3 C17.33 3.66 17.66 4.32 18 5 C18.99 5.33 19.98 5.66 21 6 C21.02505615 6.6391333 21.0501123 7.2782666 21.07592773 7.93676758 C21.19357147 10.89546745 21.31551778 13.85397594 21.4375 16.8125 C21.47681641 17.81732422 21.51613281 18.82214844 21.55664062 19.85742188 C21.83831457 26.59592939 22.32489406 33.28952975 23 40 C19.52552075 36.99931337 18.22035234 33.85139838 17.68115234 29.32104492 C17.634021 27.91495972 17.634021 27.91495972 17.5859375 26.48046875 C17.54726562 25.45888672 17.50859375 24.43730469 17.46875 23.38476562 C17.4378125 22.32966797 17.406875 21.27457031 17.375 20.1875 C17.33632812 19.11306641 17.29765625 18.03863281 17.2578125 16.93164062 C17.16381762 14.28803461 17.08083151 11.64404124 17 9 C11.06 7.02 5.12 5.04 -1 3 C-0.67 2.01 -0.34 1.02 0 0 Z " fill="#C55558" transform="translate(111,391)"/>
<path d="M0 0 C3.52689353 5.29034029 3.27457383 11.7971275 3 18 C1.81001456 21.71162126 0.10463407 24.74061096 -2 28 C-2.27199219 28.67160156 -2.54398437 29.34320313 -2.82421875 30.03515625 C-4.51117113 32.8542162 -6.72246256 34.03962168 -9.5 35.75 C-10.4796875 36.36359375 -11.459375 36.9771875 -12.46875 37.609375 C-15 39 -15 39 -17 39 C-17 39.99 -17 40.98 -17 42 C-35.28419234 46.42614454 -35.28419234 46.42614454 -41 45 C-42.76953125 42.97265625 -42.76953125 42.97265625 -44 41 C-43.24976563 41.09539062 -42.49953125 41.19078125 -41.7265625 41.2890625 C-30.76406373 42.47643642 -22.21533034 41.35085138 -13 35 C-12.46246094 34.45214844 -11.92492187 33.90429688 -11.37109375 33.33984375 C-10 32 -10 32 -8 32 C-7.72285156 31.44183594 -7.44570313 30.88367188 -7.16015625 30.30859375 C-6.36785548 28.73199525 -5.56254477 27.16188483 -4.74609375 25.59765625 C-4.31425781 24.76105469 -3.88242187 23.92445313 -3.4375 23.0625 C-3.00308594 22.22847656 -2.56867188 21.39445312 -2.12109375 20.53515625 C-0.00323767 15.74599738 0.11499169 11.38417774 0.0625 6.1875 C0.05347656 5.02605469 0.04445313 3.86460937 0.03515625 2.66796875 C0.02355469 1.78753906 0.01195312 0.90710938 0 0 Z " fill="#C44C4F" transform="translate(440,146)"/>
<path d="M0 0 C0 3.70112466 -0.75187764 4.10015899 -3.25 6.6875 C-6.27991156 10.00510013 -8.34311555 13.15002701 -10.17578125 17.23828125 C-11 19 -11 19 -13 22 C-12.34 22 -11.68 22 -11 22 C-10.67 22.99 -10.34 23.98 -10 25 C-11.32 25.33 -12.64 25.66 -14 26 C-14.020625 27.258125 -14.04125 28.51625 -14.0625 29.8125 C-14.07410156 30.52019531 -14.08570313 31.22789062 -14.09765625 31.95703125 C-13.91789741 35.71758616 -12.68433048 37.54908957 -10 40 C-10.66 40.66 -11.32 41.32 -12 42 C-15.36874338 37.10988865 -17.15311934 33.75991513 -17.3125 27.8125 C-17.34988281 26.91144531 -17.38726562 26.01039063 -17.42578125 25.08203125 C-16.3493246 17.2900652 -11.57750998 11.95630692 -6.25 6.5 C-5.64800781 5.86835938 -5.04601562 5.23671875 -4.42578125 4.5859375 C-2.95892222 3.04922804 -1.48064136 1.52343446 0 0 Z " fill="#DD1C26" transform="translate(50,341)"/>
<path d="M0 0 C0.33 0 0.66 0 1 0 C1.06767578 1.34771484 1.06767578 1.34771484 1.13671875 2.72265625 C2.28686617 7.08905303 4.05887828 8.03645297 7.8125 10.4375 C8.87082031 11.13746094 9.92914063 11.83742188 11.01953125 12.55859375 C13.78251278 14.19797306 13.78251278 14.19797306 16.21484375 13.8515625 C18.80465669 12.61615939 20.83544632 10.86392123 23 9 C23.66 9.33 24.32 9.66 25 10 C25 11.32 25 12.64 25 14 C24.34 14 23.68 14 23 14 C23 14.66 23 15.32 23 16 C22.030625 16.12375 21.06125 16.2475 20.0625 16.375 C19.051875 16.58125 18.04125 16.7875 17 17 C16.67 17.66 16.34 18.32 16 19 C13.4375 19.625 13.4375 19.625 11 20 C11 19.01 11 18.02 11 17 C9.68 16.67 8.36 16.34 7 16 C6.67 14.68 6.34 13.36 6 12 C5.01 12 4.02 12 3 12 C3 11.01 3 10.02 3 9 C1.68 8.67 0.36 8.34 -1 8 C-0.67 5.36 -0.34 2.72 0 0 Z " fill="#D81C23" transform="translate(438,84)"/>
<path d="M0 0 C-1.93467942 0.83986084 -3.87285129 1.67168027 -5.8125 2.5 C-7.43091797 3.19609375 -7.43091797 3.19609375 -9.08203125 3.90625 C-12 5 -12 5 -15 5 C-14.97643433 6.08099976 -14.97643433 6.08099976 -14.95239258 7.18383789 C-14.88969513 10.47664415 -14.85089905 13.76932438 -14.8125 17.0625 C-14.77479492 18.7630957 -14.77479492 18.7630957 -14.73632812 20.49804688 C-14.65527819 29.76475598 -16.10754985 35.55333267 -22.37109375 42.5546875 C-24.67856356 44.60208278 -27.01712695 45.36081292 -30 46 C-30 45.01 -30 44.02 -30 43 C-28.35 43 -26.7 43 -25 43 C-25 41.68 -25 40.36 -25 39 C-24.01 39 -23.02 39 -22 39 C-22 37.68 -22 36.36 -22 35 C-21.34 35 -20.68 35 -20 35 C-19.505 32.03 -19.505 32.03 -19 29 C-18.34 29 -17.68 29 -17 29 C-16.67 20.75 -16.34 12.5 -16 4 C-3.375 -1.125 -3.375 -1.125 0 0 Z " fill="#DC7477" transform="translate(210,392)"/>
<path d="M0 0 C-0.33 0.66 -0.66 1.32 -1 2 C-3.64945935 2.8039334 -6.24651318 3.49702555 -8.9375 4.125 C-9.67935547 4.30675781 -10.42121094 4.48851562 -11.18554688 4.67578125 C-16.67657425 6 -16.67657425 6 -19 6 C-19.03738281 6.6290625 -19.07476562 7.258125 -19.11328125 7.90625 C-19.56677121 13.81051149 -20.67976914 18.55250146 -23 24 C-23.99 24 -24.98 24 -26 24 C-25.67 22.02 -25.34 20.04 -25 18 C-24.34 18 -23.68 18 -23 18 C-23.061875 16.989375 -23.12375 15.97875 -23.1875 14.9375 C-22.96949836 10.35946558 -22.12722417 8.01809011 -20 4 C-16.98111014 1.98740676 -16.06143424 1.73456889 -12.625 1.5 C-8.04833784 1.0987991 -4.31701858 -1.43900619 0 0 Z " fill="#D35A5F" transform="translate(432,221)"/>
<path d="M0 0 C0.66 0 1.32 0 2 0 C0.63787302 5.14581303 -2.65178168 8.17033884 -7 11 C-11.40633713 12.72892246 -15.21022244 13.28876697 -19.9296875 13.4140625 C-21.86328125 13.47207031 -21.86328125 13.47207031 -23.8359375 13.53125 C-25.18228707 13.56269758 -26.52864132 13.59394511 -27.875 13.625 C-29.24481514 13.66323041 -30.61460755 13.70228501 -31.984375 13.7421875 C-35.32278263 13.83622715 -38.66118814 13.92188057 -42 14 C-42.33 13.01 -42.66 12.02 -43 11 C-32.11 11 -21.22 11 -10 11 C-10.495 9.515 -10.495 9.515 -11 8 C-9.02 8 -7.04 8 -5 8 C-4.34 6.68 -3.68 5.36 -3 4 C-2.34 4 -1.68 4 -1 4 C-0.67 2.68 -0.34 1.36 0 0 Z " fill="#B33F43" transform="translate(321,296)"/>
<path d="M0 0 C2.475 0.495 2.475 0.495 5 1 C5.33 2.32 5.66 3.64 6 5 C10.14576951 5.95487973 14.19391084 6.26068379 18.4375 6.5 C23.03184996 6.75962018 27.47380052 7.16051942 32 8 C31.67 8.66 31.34 9.32 31 10 C25.01333898 11.36537883 19.73205778 10.88667655 13.75 9.875 C13.06478271 9.77034424 12.37956543 9.66568848 11.67358398 9.55786133 C6.70464242 8.61910167 4.15765577 6.90552161 1 3 C0.67 2.01 0.34 1.02 0 0 Z " fill="#D0646A" transform="translate(374,238)"/>
<path d="M0 0 C0.66 0 1.32 0 2 0 C2 0.99 2 1.98 2 3 C2.66 3 3.32 3 4 3 C4.33 6.3 4.66 9.6 5 13 C4.01 13 3.02 13 2 13 C1.67 14.65 1.34 16.3 1 18 C-0.32 18 -1.64 18 -3 18 C-3 18.66 -3 19.32 -3 20 C-3.99 20.33 -4.98 20.66 -6 21 C-6 25.62 -6 30.24 -6 35 C-9 32 -9 32 -9.3984375 29.6953125 C-9.31669866 20.73128599 -9.31669866 20.73128599 -6 17 C-3.40479583 14.86548296 -0.75145515 12.93955035 2 11 C1.34 7.37 0.68 3.74 0 0 Z " fill="#CF484D" transform="translate(333,169)"/>
<path d="M0 0 C1.32 0 2.64 0 4 0 C4 0.66 4 1.32 4 2 C4.99 2 5.98 2 7 2 C7 2.66 7 3.32 7 4 C8.65 3.67 10.3 3.34 12 3 C12.33 4.65 12.66 6.3 13 8 C14.98 8 16.96 8 19 8 C20.04559253 14.58723293 19.83292414 19.59233959 18 26 C17.34 26 16.68 26 16 26 C16.33 21.38 16.66 16.76 17 12 C15.1025 10.88625 13.205 9.7725 11.25 8.625 C10.18265625 7.99851563 9.1153125 7.37203125 8.015625 6.7265625 C7.02046875 6.15679687 6.0253125 5.58703125 5 5 C4.27296875 4.57460937 3.5459375 4.14921875 2.796875 3.7109375 C0.81545868 2.70425147 0.81545868 2.70425147 -2 4 C-2.33 3.34 -2.66 2.68 -3 2 C-2.01 2 -1.02 2 0 2 C0 1.34 0 0.68 0 0 Z " fill="#C12B33" transform="translate(357,209)"/>
<path d="M0 0 C3.67378525 3.37591077 6.35481615 6.24724667 8 11 C8.12051938 15.32363272 7.70423348 18.8450571 5.4375 22.5625 C4.963125 23.036875 4.48875 23.51125 4 24 C2.68 23.34 1.36 22.68 0 22 C0.66 21.67 1.32 21.34 2 21 C2 20.01 2 19.02 2 18 C2.66 18 3.32 18 4 18 C3.855625 17.13375 3.71125 16.2675 3.5625 15.375 C3.19533971 13.17203823 2.86045557 10.96338422 2.5625 8.75 C2.23633324 5.86895888 2.23633324 5.86895888 0 4 C0 2.68 0 1.36 0 0 Z " fill="#DA5155" transform="translate(483,100)"/>
<path d="M0 0 C3.98347226 -0.07480519 7.96666594 -0.12890718 11.95068359 -0.16479492 C13.96336248 -0.18709408 15.97584584 -0.22523653 17.98828125 -0.26367188 C33.76722274 -0.38260862 33.76722274 -0.38260862 40 5.6875 C40.66 6.450625 41.32 7.21375 42 8 C40.02 8.99 40.02 8.99 38 10 C36.5 8.6875 36.5 8.6875 35 7 C35 6.01 35 5.02 35 4 C23.34120707 2.47992953 11.74542107 1.52201871 0 1 C0 0.67 0 0.34 0 0 Z " fill="#C72D32" transform="translate(278,244)"/>
<path d="M0 0 C1.670625 0.99 1.670625 0.99 3.375 2 C0.28635354 3.02954882 -0.77953672 2.95160666 -3.875 2.4375 C-8.36660326 1.84940137 -11.38997794 2.46818351 -15.625 4 C-15.625 3.34 -15.625 2.68 -15.625 2 C-17.935 2.33 -20.245 2.66 -22.625 3 C-16.90718107 -3.62063245 -7.444202 -3.72871219 0 0 Z " fill="#D4454A" transform="translate(79.625,149)"/>
<path d="M0 0 C3.02138567 -0.08149592 6.04053905 -0.14073421 9.0625 -0.1875 C9.91005859 -0.21263672 10.75761719 -0.23777344 11.63085938 -0.26367188 C18.67479029 -0.34526181 23.07880287 1.05253525 29 5 C28.34 5.66 27.68 6.32 27 7 C26.16597656 6.71125 25.33195312 6.4225 24.47265625 6.125 C13.5955305 2.53666986 6.05740176 2.41455324 -5 5 C-5 4.01 -5 3.02 -5 2 C-3.35 2 -1.7 2 0 2 C0 1.34 0 0.68 0 0 Z " fill="#D7777B" transform="translate(397,119)"/>
<path d="M0 0 C5.53846154 -0.36923077 5.53846154 -0.36923077 7.875 1.5 C8.24625 1.995 8.6175 2.49 9 3 C8.31421875 2.8659375 7.6284375 2.731875 6.921875 2.59375 C2.37791736 3.22553021 0.27437615 6.23095521 -2.75 9.5 C-4.82088739 11.67964296 -6.90374719 13.84453101 -9 16 C-9.33 16 -9.66 16 -10 16 C-10 14.35 -10 12.7 -10 11 C-8.68 11 -7.36 11 -6 11 C-6 10.01 -6 9.02 -6 8 C-6.66 8 -7.32 8 -8 8 C-6.25 4.125 -6.25 4.125 -4 3 C-1.875 3.9375 -1.875 3.9375 0 5 C0 3.35 0 1.7 0 0 Z " fill="#DC3035" transform="translate(92,386)"/>
<path d="M0 0 C2 1.5625 2 1.5625 3 3 C-0.05263664 3.98120464 -1.94736336 3.98120464 -5 3 C-4.67 2.34 -4.34 1.68 -4 1 C-5.4835001 1.42257276 -6.96176424 1.86356322 -8.4375 2.3125 C-9.26121094 2.55613281 -10.08492188 2.79976563 -10.93359375 3.05078125 C-11.95646484 3.52064453 -11.95646484 3.52064453 -13 4 C-13.33 4.99 -13.66 5.98 -14 7 C-16.6352539 8.42446157 -18.19404974 9.16845087 -21.16796875 8.546875 C-21.77253906 8.36640625 -22.37710937 8.1859375 -23 8 C-21.44210317 6.86863414 -19.87846143 5.74517679 -18.3125 4.625 C-17.44238281 3.99851562 -16.57226562 3.37203125 -15.67578125 2.7265625 C-9.95237635 -0.96649584 -6.54788667 -1.37294398 0 0 Z " fill="#CC363D" transform="translate(372,72)"/>
<path d="M0 0 C1.134375 0.66 2.26875 1.32 3.4375 2 C3.4375 2.99 3.4375 3.98 3.4375 5 C2.1175 4.67 0.7975 4.34 -0.5625 4 C-0.5625 3.34 -0.5625 2.68 -0.5625 2 C-1.8825 2 -3.2025 2 -4.5625 2 C-4.5625 1.34 -4.5625 0.68 -4.5625 0 C-8.90434202 0.18464366 -8.90434202 0.18464366 -12.5625 2 C-14.56208364 2.04080783 -16.56295254 2.04254356 -18.5625 2 C-18.5625 2.66 -18.5625 3.32 -18.5625 4 C-20.8725 4.66 -23.1825 5.32 -25.5625 6 C-18.55700713 -1.85464352 -9.6092962 -4.77069299 0 0 Z " fill="#C34549" transform="translate(263.5625,149)"/>
<path d="M0 0 C0.66 0.33 1.32 0.66 2 1 C0.8803014 2.00593243 -0.2459412 3.0045849 -1.375 4 C-2.31472656 4.8353125 -2.31472656 4.8353125 -3.2734375 5.6875 C-5 7 -5 7 -7 7 C-7 7.99 -7 8.98 -7 10 C-25.28419234 14.42614454 -25.28419234 14.42614454 -31 13 C-32.76953125 10.97265625 -32.76953125 10.97265625 -34 9 C-33.24976563 9.09539062 -32.49953125 9.19078125 -31.7265625 9.2890625 C-20.76406373 10.47643642 -12.21533034 9.35085138 -3 3 C-1.9729272 2.02782642 -0.9631135 1.03557345 0 0 Z " fill="#D6676C" transform="translate(430,178)"/>
<path d="M0 0 C2.625 0.375 2.625 0.375 5 1 C3.68 1.99 2.36 2.98 1 4 C3.31 4.66 5.62 5.32 8 6 C8.33 7.65 8.66 9.3 9 11 C8.01 11 7.02 11 6 11 C5.67 10.34 5.34 9.68 5 9 C1.95342609 8.14301087 -1.11720638 7.52501655 -4.21484375 6.87890625 C-7 6 -7 6 -9 3 C-7.88625 2.87625 -6.7725 2.7525 -5.625 2.625 C-1.96896323 2.3534187 -1.96896323 2.3534187 0 0 Z " fill="#CF1A22" transform="translate(326,152)"/>
<path d="M0 0 C0.66 0 1.32 0 2 0 C1.77734375 1.8671875 1.77734375 1.8671875 1 4 C-0.99609375 5.1953125 -0.99609375 5.1953125 -3.4375 6.125 C-7.04887035 7.52653197 -7.04887035 7.52653197 -10 10 C-13.625 10.125 -13.625 10.125 -17 10 C-17 10.66 -17 11.32 -17 12 C-21.16138263 12.08159574 -24.9472484 11.98248524 -29 11 C-29 10.67 -29 10.34 -29 10 C-27.98421875 9.85304688 -26.9684375 9.70609375 -25.921875 9.5546875 C-11.85847151 7.36953718 -11.85847151 7.36953718 0 0 Z " fill="#C53339" transform="translate(196,325)"/>
<path d="M0 0 C0.33 0 0.66 0 1 0 C1.226875 1.051875 1.45375 2.10375 1.6875 3.1875 C2.79308095 7.17404735 4.96760299 9.20700276 8 12 C8 12.66 8 13.32 8 14 C13.44452918 15.07624414 18.84582589 15.32192966 24.375 15.5625 C25.30183594 15.60568359 26.22867187 15.64886719 27.18359375 15.69335938 C29.45560294 15.79876186 31.72770925 15.90088606 34 16 C34 16.33 34 16.66 34 17 C30.68780768 17.117791 27.37616508 17.18777155 24.0625 17.25 C22.67321289 17.30027344 22.67321289 17.30027344 21.25585938 17.3515625 C14.71433686 17.44337334 9.64436565 16.40966381 4 13 C0.60894374 9.6958939 -0.7354114 6.53144249 -2 2 C-1.34 1.34 -0.68 0.68 0 0 Z " fill="#C37072" transform="translate(2,292)"/>
<path d="M0 0 C1.155 0.185625 2.31 0.37125 3.5 0.5625 C4.325 0.706875 5.15 0.85125 6 1 C6 1.99 6 2.98 6 4 C-0.93 3.505 -0.93 3.505 -8 3 C-8.969375 4.65 -9.93875 6.3 -10.9375 8 C-11.92752526 9.68514938 -12.94104104 11.35729358 -14 13 C-14.33 13 -14.66 13 -15 13 C-15 11.35 -15 9.7 -15 8 C-14.34 8 -13.68 8 -13 8 C-13 7.34 -13 6.68 -13 6 C-12.34 6 -11.68 6 -11 6 C-11.061875 5.21625 -11.12375 4.4325 -11.1875 3.625 C-11.125625 2.75875 -11.06375 1.8925 -11 1 C-7.07575658 -1.61616228 -4.39391825 -0.76128151 0 0 Z " fill="#CF4146" transform="translate(478,184)"/>
<path d="M0 0 C1.84446577 2.76669866 2.44899138 4.23102338 3.125 7.375 C3.29257812 8.12523437 3.46015625 8.87546875 3.6328125 9.6484375 C4 12 4 12 4 17 C12.415 18.485 12.415 18.485 21 20 C21 20.33 21 20.66 21 21 C18.77090129 21.02714735 16.54170633 21.04646254 14.3125 21.0625 C13.07113281 21.07410156 11.82976562 21.08570313 10.55078125 21.09765625 C7 21 7 21 2 20 C1.34 13.4 0.68 6.8 0 0 Z " fill="#CC5257" transform="translate(473,131)"/>
<path d="M0 0 C0.33 0.66 0.66 1.32 1 2 C1.5775 1.62875 2.155 1.2575 2.75 0.875 C5 0 5 0 7.25 0.875 C7.8275 1.24625 8.405 1.6175 9 2 C8.401875 2.639375 7.80375 3.27875 7.1875 3.9375 C4.46756681 7.74540646 3.28274627 11.53954137 2 16 C0 13 0 13 0 10 C0.66 10 1.32 10 2 10 C2 8.35 2 6.7 2 5 C1.34 5 0.68 5 0 5 C-0.33 5.99 -0.66 6.98 -1 8 C-1.66 7.34 -2.32 6.68 -3 6 C-2.63318342 3.06546739 -2.13562754 2.13562754 0 0 Z " fill="#E22029" transform="translate(373,130)"/>
<path d="M0 0 C1.10359863 -0.00287018 1.10359863 -0.00287018 2.22949219 -0.00579834 C3.77930037 -0.0071545 5.32912013 -0.00349789 6.87890625 0.00488281 C9.24244865 0.01559079 11.60523106 0.00496859 13.96875 -0.0078125 C15.47916833 -0.0064908 16.9895862 -0.0039282 18.5 0 C19.5533252 -0.00607269 19.5533252 -0.00607269 20.62792969 -0.01226807 C24.60640202 0.0254946 27.66540339 0.51674478 31.25 2.265625 C27.5 3.390625 27.5 3.390625 25.25 2.265625 C22.88833824 2.16758468 20.52385125 2.13484604 18.16015625 2.1328125 C17.45982773 2.13185577 16.75949921 2.13089905 16.03794861 2.12991333 C14.5559785 2.12923254 13.0740054 2.13107981 11.59204102 2.13525391 C9.32496419 2.14059563 7.05808621 2.13530971 4.79101562 2.12890625 C3.35156206 2.12956721 1.91210862 2.13084873 0.47265625 2.1328125 C-1.49562134 2.13450439 -1.49562134 2.13450439 -3.50366211 2.13623047 C-6.76292945 2.11538278 -6.76292945 2.11538278 -9.75 3.265625 C-10.08 4.255625 -10.41 5.245625 -10.75 6.265625 C-13.06 6.595625 -15.37 6.925625 -17.75 7.265625 C-12.1952814 1.23478766 -8.06483317 -0.04649585 0 0 Z " fill="#A44042" transform="translate(152.75,113.734375)"/>
<path d="M0 0 C5.29877676 -0.50464541 7.90716575 0.63478073 12 4 C15.21231057 7.9618497 15.35818351 10.98543082 15 16 C14.71479595 17.67557379 14.40044304 19.34817245 14 21 C13.01 20.67 12.02 20.34 11 20 C11.08378906 19.33613281 11.16757812 18.67226562 11.25390625 17.98828125 C12.05425042 11.45279152 12.05425042 11.45279152 11 5 C9.35 4.67 7.7 4.34 6 4 C6 3.34 6 2.68 6 2 C4.35 2 2.7 2 1 2 C0.67 1.34 0.34 0.68 0 0 Z " fill="#CE585C" transform="translate(426,63)"/>
<path d="M0 0 C2.125 0.9375 2.125 0.9375 4 2 C3.401875 2.165 2.80375 2.33 2.1875 2.5 C-2.05904538 5.41191683 -2.84646419 11.19180402 -4 16 C-4.66 16 -5.32 16 -6 16 C-6 17.65 -6 19.3 -6 21 C-6.66 20.67 -7.32 20.34 -8 20 C-6.41801189 5.97026338 -6.41801189 5.97026338 -2 1 C-1.34 0.67 -0.68 0.34 0 0 Z " fill="#C54348" transform="translate(409,62)"/>
<path d="M0 0 C0.33 0 0.66 0 1 0 C0.97679688 0.87140625 0.95359375 1.7428125 0.9296875 2.640625 C0.80781556 10.68417303 1.44884818 18.11969586 3 26 C3.33863417 27.9991093 3.67334947 29.99889767 4 32 C3.01 32 2.02 32 1 32 C-1.27141454 26.60539047 -1.20413361 21.73842251 -1 16 C-1.33 16 -1.66 16 -2 16 C-2 12.7 -2 9.4 -2 6 C-1.67 6 -1.34 6 -1 6 C-0.67 4.02 -0.34 2.04 0 0 Z " fill="#D85B5D" transform="translate(102,266)"/>
<path d="M0 0 C2.64 0 5.28 0 8 0 C8.33 0.66 8.66 1.32 9 2 C9.99 2.33 10.98 2.66 12 3 C12 4.32 12 5.64 12 7 C12.99 7.33 13.98 7.66 15 8 C14.34 8.66 13.68 9.32 13 10 C10.36 7.36 7.72 4.72 5 2 C2.586875 3.2375 2.586875 3.2375 0.125 4.5 C-4.75 7 -4.75 7 -7 7 C-6.67 5.68 -6.34 4.36 -6 3 C-4.02 2.67 -2.04 2.34 0 2 C0 1.34 0 0.68 0 0 Z " fill="#BD3439" transform="translate(219,383)"/>
<path d="M0 0 C0.99 0 1.98 0 3 0 C4.19287411 3.87684087 5 6.91621923 5 11 C5.99 11 6.98 11 8 11 C8 11.66 8 12.32 8 13 C8.99 13 9.98 13 11 13 C11.33 14.32 11.66 15.64 12 17 C10.68 17 9.36 17 8 17 C7.67 18.32 7.34 19.64 7 21 C6.01856791 18.25078962 5.0397767 15.50068729 4.0625 12.75 C3.78470703 11.97269531 3.50691406 11.19539063 3.22070312 10.39453125 C2.81948242 9.26337891 2.81948242 9.26337891 2.41015625 8.109375 C2.04096069 7.07248535 2.04096069 7.07248535 1.66430664 6.01464844 C1.00858753 4.02604347 0.48132614 2.03714797 0 0 Z " fill="#D8393F" transform="translate(36,309)"/>
<path d="M0 0 C2.25798728 2.9050523 4.19400682 5.89418547 6.0625 9.0625 C7.65585922 11.75864219 9.26201585 14.39302378 11 17 C6.64425364 16.51602818 4.9086741 15.20957142 2 12 C1.34 11.67 0.68 11.34 0 11 C0 10.01 0 9.02 0 8 C-0.66 7.67 -1.32 7.34 -2 7 C-1.34 4.69 -0.68 2.38 0 0 Z " fill="#D01A24" transform="translate(106,298)"/>
<path d="M0 0 C0.95465783 2.16967689 1.14401212 3.56328793 0.3984375 5.82421875 C-0.35870385 7.5684743 -1.17609198 9.28627131 -2 11 C-3.66611905 11.042721 -5.33382885 11.04063832 -7 11 C-7.33 10.67 -7.66 10.34 -8 10 C-9.74765452 9.90030159 -11.4995103 9.87031955 -13.25 9.875 C-14.68085938 9.87113281 -14.68085938 9.87113281 -16.140625 9.8671875 C-18.86463928 9.99371275 -21.34675009 10.38994619 -24 11 C-21.08123957 7.58403748 -18.75653963 7.35322141 -14.4296875 6.984375 C-10.69846807 7.00836998 -7.55664053 7.90067474 -4 9 C-3.71125 8.2575 -3.4225 7.515 -3.125 6.75 C-2.17697356 4.43260203 -1.15154089 2.22082885 0 0 Z " fill="#AE252C" transform="translate(343,114)"/>
<path d="M0 0 C-0.59114379 3.35474101 -1.71225441 5.12827765 -4 7.625 C-6.27217224 10.12374312 -6.27217224 10.12374312 -8 13 C-10.32156597 13.40729228 -12.6568787 13.74438677 -15 14 C-14.62488281 13.56429688 -14.24976563 13.12859375 -13.86328125 12.6796875 C-13.35152344 12.08414062 -12.83976563 11.48859375 -12.3125 10.875 C-11.76722656 10.24078125 -11.22195312 9.6065625 -10.66015625 8.953125 C-9.1659602 7.19524729 -7.70541285 5.41494059 -6.25 3.625 C-3.14285714 0 -3.14285714 0 0 0 Z " fill="#D2333A" transform="translate(213,311)"/>
<path d="M0 0 C2.31 0 4.62 0 7 0 C7.144375 0.78375 7.28875 1.5675 7.4375 2.375 C7.87798925 4.96421018 7.87798925 4.96421018 9 7 C8.34 7 7.68 7 7 7 C6.67 7.66 6.34 8.32 6 9 C5.01 9 4.02 9 3 9 C2.71125 8.360625 2.4225 7.72125 2.125 7.0625 C1.17176549 4.84793921 1.17176549 4.84793921 -1 4 C-0.67 2.68 -0.34 1.36 0 0 Z " fill="#E51D22" transform="translate(455,198)"/>
<path d="M0 0 C0.99 0 1.98 0 3 0 C2.62180687 5.57834863 2.30454174 9.04447516 -2 13 C-6.12520246 14.8907178 -7.50788585 15.12302854 -12 14 C-9.03 13.34 -6.06 12.68 -3 12 C-3.061875 11.13375 -3.12375 10.2675 -3.1875 9.375 C-2.97544498 5.55800967 -1.87955693 3.28922464 0 0 Z " fill="#DB6D6E" transform="translate(496,174)"/>
<path d="M0 0 C0.99 0.33 1.98 0.66 3 1 C1.43416404 5.03721561 -1.44173865 7.47070582 -4.625 10.25 C-5.140625 10.70890625 -5.65625 11.1678125 -6.1875 11.640625 C-7.4534602 12.76592296 -8.72607942 13.88372177 -10 15 C-11 12 -11 12 -9.875 9.3125 C-8 7 -8 7 -5.3125 6.6875 C-4.549375 6.790625 -3.78625 6.89375 -3 7 C-3.33 5.68 -3.66 4.36 -4 3 C-2.68 2.67 -1.36 2.34 0 2 C0 1.34 0 0.68 0 0 Z " fill="#D54D52" transform="translate(277,387)"/>
<path d="M0 0 C5.97881997 5.50680787 5.97881997 5.50680787 7 10 C6.98609129 17.87232885 6.98609129 17.87232885 4.44921875 20.7734375 C3.73185547 21.38058594 3.73185547 21.38058594 3 22 C2.67 19.69 2.34 17.38 2 15 C2.99 15.33 3.98 15.66 5 16 C5 14.02 5 12.04 5 10 C4.34 10 3.68 10 3 10 C0.96564469 6.27034861 0 4.33094958 0 0 Z " fill="#C73C43" transform="translate(464,205)"/>
<path d="M0 0 C4.04135587 1.59930434 6.67907152 4.48660409 9.625 7.5625 C12.96402902 11.22714016 12.96402902 11.22714016 17 14 C16.67 15.98 16.34 17.96 16 20 C15.34 20 14.68 20 14 20 C13.95875 19.30132812 13.9175 18.60265625 13.875 17.8828125 C12.63214599 13.78805242 10.08821309 11.72839504 7 8.875 C1.12039106 3.36117318 1.12039106 3.36117318 0 0 Z " fill="#C65556" transform="translate(35,194)"/>
<path d="M0 0 C0.33 0.99 0.66 1.98 1 3 C1.66 2.34 2.32 1.68 3 1 C6.125 0.875 6.125 0.875 9 1 C9 1.66 9 2.32 9 3 C4.95728595 5.50519248 1.54589865 7.42424124 -3.3125 6.9375 C-8.10922113 5.71799463 -8.10922113 5.71799463 -10 3 C-7.36 3.33 -4.72 3.66 -2 4 C-2 3.34 -2 2.68 -2 2 C-1.34 2 -0.68 2 0 2 C0 1.34 0 0.68 0 0 Z " fill="#CE393F" transform="translate(345,212)"/>
<path d="M0 0 C0.33 0 0.66 0 1 0 C1 8.25 1 16.5 1 25 C4.3 25.99 7.6 26.98 11 28 C11.99 28.66 12.98 29.32 14 30 C12.35 30.33 10.7 30.66 9 31 C8.67 30.34 8.34 29.68 8 29 C5.36 28.34 2.72 27.68 0 27 C0 18.09 0 9.18 0 0 Z " fill="#DA767A" transform="translate(194,132)"/>
<path d="M0 0 C0.44988281 0.36351562 0.89976563 0.72703125 1.36328125 1.1015625 C6.90273999 5.43099919 12.76634203 8.76858171 19 12 C15.457201 13.180933 12.71640139 13.27028374 9 13 C7 10 7 10 7 7 C6.01 7 5.02 7 4 7 C4 6.34 4 5.68 4 5 C3.34 5 2.68 5 2 5 C1.34 3.35 0.68 1.7 0 0 Z " fill="#C63137" transform="translate(121,320)"/>
<path d="M0 0 C0.66 0.33 1.32 0.66 2 1 C1.3503125 1.556875 1.3503125 1.556875 0.6875 2.125 C-3.28825929 6.54251032 -4.41938848 11.19388477 -5 17 C-5.99 17.33 -6.98 17.66 -8 18 C-8.42287666 11.86828844 -8.03413682 8.93061166 -4 4 C-2.70317626 2.63113049 -1.38176866 1.2830709 0 0 Z " fill="#D0272B" transform="translate(8,247)"/>
<path d="M0 0 C0.99 0 1.98 0 3 0 C3 0.99 3 1.98 3 3 C3.66 3 4.32 3 5 3 C5 3.99 5 4.98 5 6 C5.99 6.33 6.98 6.66 8 7 C8.33 10.3 8.66 13.6 9 17 C8.34 17.33 7.68 17.66 7 18 C6.61908203 16.89591797 6.61908203 16.89591797 6.23046875 15.76953125 C5.88628906 14.79371094 5.54210937 13.81789063 5.1875 12.8125 C4.85105469 11.84957031 4.51460937 10.88664063 4.16796875 9.89453125 C3.02104583 7.05215705 1.57818238 4.61824526 0 2 C0 1.34 0 0.68 0 0 Z " fill="#D26062" transform="translate(212,244)"/>
<path d="M0 0 C0.66 0.33 1.32 0.66 2 1 C0.66015608 4.68457078 -1.07330711 7.91978116 -3.046875 11.28515625 C-4.24893048 13.44787083 -5.1552683 15.67698782 -6 18 C-8.1519437 14.77208445 -8.20086443 13.71599191 -8 10 C-7.01 9.67 -6.02 9.34 -5 9 C-4.67 7.02 -4.34 5.04 -4 3 C-3.01 3 -2.02 3 -1 3 C-0.67 2.01 -0.34 1.02 0 0 Z " fill="#D9585F" transform="translate(112,240)"/>
<path d="M0 0 C3.83223528 1.23178991 5.34580758 3.58695891 7.1796875 7.07421875 C9.46765177 12.44548725 9.03189387 17.38191116 8 23 C5.24215213 20.24215213 5.52544494 18.15758862 5.125 14.3125 C4.3884703 8.53311775 3.37156702 4.72019383 0 0 Z " fill="#BA494E" transform="translate(283,168)"/>
<path d="M0 0 C0.33 0 0.66 0 1 0 C1 1.98 1 3.96 1 6 C1.66 6.33 2.32 6.66 3 7 C3 7.33 3 7.66 3 8 C4.65 8.33 6.3 8.66 8 9 C8 9.33 8 9.66 8 10 C12.54805635 10.17835515 15.8794254 9.99785435 20 8 C18.625 10 18.625 10 16 12 C11.48863218 12.72273178 7.41220969 12.52190358 3.125 10.9375 C0.21491106 8.28418362 -1.21385815 5.50613029 -3 2 C-2.01 2 -1.02 2 0 2 C0 1.34 0 0.68 0 0 Z " fill="#E08183" transform="translate(437,226)"/>
<path d="M0 0 C5.29012124 4.40843437 10.18808428 9.07559794 15 14 C14.34 14.66 13.68 15.32 13 16 C12.39671875 15.37351563 11.7934375 14.74703125 11.171875 14.1015625 C10.37265625 13.28429687 9.5734375 12.46703125 8.75 11.625 C7.96109375 10.81289062 7.1721875 10.00078125 6.359375 9.1640625 C4.26620545 7.24416857 2.59602821 6.08366315 0 5 C0 3.35 0 1.7 0 0 Z " fill="#C94B52" transform="translate(268,153)"/>
<path d="M0 0 C6.46341463 1.46341463 6.46341463 1.46341463 8.9375 3.9375 C10 6 10 6 10 9 C10.99 9.33 11.98 9.66 13 10 C13.8125 11.875 13.8125 11.875 14 14 C13.01 15.485 13.01 15.485 12 17 C11.75765625 16.48050781 11.5153125 15.96101562 11.265625 15.42578125 C8.34260593 9.34365311 4.87277409 4.69874644 0 0 Z " fill="#D04A4F" transform="translate(426,126)"/>
<path d="M0 0 C0.50015625 0.66386719 1.0003125 1.32773437 1.515625 2.01171875 C4.70592984 5.84911372 8.2019512 9.30804727 11.75 12.8125 C12.44738281 13.50537109 13.14476562 14.19824219 13.86328125 14.91210938 C15.57326155 16.61037748 17.28554134 18.30625506 19 20 C16 20 16 20 13.40625 17.59375 C11.93122074 16.04637598 10.48005592 14.47846886 9.02734375 12.91015625 C7.73632171 11.55581433 6.37171147 10.27255161 5 9 C4.01 9 3.02 9 2 9 C0.50178941 5.62902617 0 3.79557881 0 0 Z " fill="#EBA5A8" transform="translate(268,334)"/>
<path d="M0 0 C0.90105469 0.01804688 1.80210937 0.03609375 2.73046875 0.0546875 C3.41753906 0.07789063 4.10460937 0.10109375 4.8125 0.125 C2.12408141 2.37745881 0.16608125 4.00713958 -3.1875 5.125 C-3.5175 6.115 -3.8475 7.105 -4.1875 8.125 C-4.8475 8.125 -5.5075 8.125 -6.1875 8.125 C-6.1875 6.475 -6.1875 4.825 -6.1875 3.125 C-6.8475 2.795 -7.5075 2.465 -8.1875 2.125 C-4.87379 -0.08414 -3.8428979 -0.09981553 0 0 Z " fill="#DC464C" transform="translate(128.1875,223.875)"/>
<path d="M0 0 C-2.39763185 2.39763185 -3.33273498 2.34280586 -6.625 2.625 C-7.44226563 2.69976562 -8.25953125 2.77453125 -9.1015625 2.8515625 C-9.72804687 2.90054688 -10.35453125 2.94953125 -11 3 C-11.33 3.99 -11.66 4.98 -12 6 C-14.06640625 6.94921875 -14.06640625 6.94921875 -16.5625 7.6875 C-17.80193359 8.06455078 -17.80193359 8.06455078 -19.06640625 8.44921875 C-19.70449219 8.63097656 -20.34257812 8.81273437 -21 9 C-21 8.01 -21 7.02 -21 6 C-18.36 5.34 -15.72 4.68 -13 4 C-13 3.34 -13 2.68 -13 2 C-8.46298506 0.54815522 -4.81938524 -0.23509196 0 0 Z " fill="#CE2127" transform="translate(154,215)"/>
<path d="M0 0 C1 2 1 2 0.51171875 3.92578125 C0.23972656 4.71339844 -0.03226562 5.50101563 -0.3125 6.3125 C-2.26840803 12.44041368 -3.15238621 18.63791058 -4 25 C-3.01 25.33 -2.02 25.66 -1 26 C-1.33 27.32 -1.66 28.64 -2 30 C-4.69469882 27.4175803 -5.01038602 25.89267778 -5.375 22.125 C-5.13098182 14.8044547 -4.09635977 6.14453966 0 0 Z " fill="#CC7477" transform="translate(318,125)"/>
<path d="M0 0 C2.475 0.495 2.475 0.495 5 1 C5.33 2.32 5.66 3.64 6 5 C7.1446875 5.185625 7.1446875 5.185625 8.3125 5.375 C11 6 11 6 14 8 C6.77750207 8.6120761 6.77750207 8.6120761 3.0625 5.6875 C1 3 1 3 0 0 Z " fill="#CE585F" transform="translate(374,238)"/>
<path d="M0 0 C0.66 0.66 1.32 1.32 2 2 C1.67 2.66 1.34 3.32 1 4 C1.5775 4.2475 2.155 4.495 2.75 4.75 C5.41578402 6.23099112 7.08202933 7.61907089 9 10 C9.75 13.25 9.75 13.25 10 16 C7.7253638 13.77390787 5.59596208 11.4572286 3.5 9.0625 C2.9121875 8.39347656 2.324375 7.72445312 1.71875 7.03515625 C0.06401905 5.07580437 -1.48311935 3.06721235 -3 1 C-2.01 0.67 -1.02 0.34 0 0 Z " fill="#D2585A" transform="translate(202,228)"/>
<path d="M0 0 C0.33 0 0.66 0 1 0 C0.979375 0.86625 0.95875 1.7325 0.9375 2.625 C2.55453405 7.7614611 6.47748525 9.42353705 11 12 C9.02 12.99 9.02 12.99 7 14 C6.67 13.34 6.34 12.68 6 12 C5.01 12 4.02 12 3 12 C3 11.01 3 10.02 3 9 C1.68 8.67 0.36 8.34 -1 8 C-0.67 5.36 -0.34 2.72 0 0 Z " fill="#D65E62" transform="translate(438,84)"/>
<path d="M0 0 C0 3 0 3 -1 5 C-1.07116382 7.37402501 -1.08409085 9.75000677 -1.0625 12.125 C-1.05347656 13.40632813 -1.04445313 14.68765625 -1.03515625 16.0078125 C-1.02355469 16.99523437 -1.01195312 17.98265625 -1 19 C-3.69461326 15.5989611 -4.82649155 13.42446536 -5 9 C-3.72720597 5.36344564 -2.73264029 2.73264029 0 0 Z " fill="#D3676D" transform="translate(347,81)"/>
<path d="M0 0 C0 3.73837399 -0.87486844 4.27919685 -3.375 6.9375 C-5.78233292 9.50829379 -7.56946286 11.77045403 -9 15 C-9.99 15 -10.98 15 -12 15 C-12.33 15.99 -12.66 16.98 -13 18 C-13.66 17.67 -14.32 17.34 -15 17 C-13.06402271 14.72785301 -11.12628828 12.45724637 -9.1875 10.1875 C-8.64029297 9.54490234 -8.09308594 8.90230469 -7.52929688 8.24023438 C-6.73168945 7.30727539 -6.73168945 7.30727539 -5.91796875 6.35546875 C-5.43094482 5.78465576 -4.9439209 5.21384277 -4.44213867 4.62573242 C-3.01735855 3.01956841 -1.53368638 1.50185891 0 0 Z " fill="#DA797C" transform="translate(50,341)"/>
<path d="M0 0 C1.32 0.33 2.64 0.66 4 1 C3.8125 2.875 3.8125 2.875 3 5 C0.4375 6.25 0.4375 6.25 -2 7 C-2 7.66 -2 8.32 -2 9 C-1.34 9.33 -0.68 9.66 0 10 C-1.65 10 -3.3 10 -5 10 C-5 10.66 -5 11.32 -5 12 C-5.66 11.67 -6.32 11.34 -7 11 C-6.4946875 10.45730469 -5.989375 9.91460937 -5.46875 9.35546875 C-4.8190625 8.64003906 -4.169375 7.92460937 -3.5 7.1875 C-2.8503125 6.47980469 -2.200625 5.77210938 -1.53125 5.04296875 C0.29987759 3.02542907 0.29987759 3.02542907 0 0 Z " fill="#D11D28" transform="translate(50,340)"/>
<path d="M0 0 C2.60186108 2.60186108 2.29810177 3.82354355 2.3125 7.4375 C2.32925781 8.40558594 2.34601563 9.37367188 2.36328125 10.37109375 C1.9533659 13.33747041 1.32042696 14.19386292 -1 16 C-1.02685095 13.52076199 -1.04676547 11.0418116 -1.0625 8.5625 C-1.07506836 7.50192383 -1.07506836 7.50192383 -1.08789062 6.41992188 C-1.09653588 4.61306441 -1.05220011 2.80612397 -1 1 C-0.67 0.67 -0.34 0.34 0 0 Z " fill="#CC5454" transform="translate(372,144)"/>
<path d="M0 0 C3.02107902 -0.0543251 6.04116528 -0.09382927 9.0625 -0.125 C9.91005859 -0.14175781 10.75761719 -0.15851563 11.63085938 -0.17578125 C16.82443095 -0.21588605 21.11819399 0.16932275 26 2 C27.9375 4.125 27.9375 4.125 29 6 C28.01 6 27.02 6 26 6 C25.67 5.01 25.34 4.02 25 3 C19.52140877 2.12489617 14.10142201 1.70975966 8.5625 1.4375 C7.32209961 1.37272461 7.32209961 1.37272461 6.05664062 1.30664062 C4.03790451 1.20161967 2.01897049 1.10041441 0 1 C0 0.67 0 0.34 0 0 Z " fill="#D42E35" transform="translate(161,116)"/>
<path d="M0 0 C0.66 0.33 1.32 0.66 2 1 C2 2.32 2 3.64 2 5 C1.34 5 0.68 5 0 5 C0 5.66 0 6.32 0 7 C-4.455 7.495 -4.455 7.495 -9 8 C-9 7.01 -9 6.02 -9 5 C-8.443125 4.9175 -7.88625 4.835 -7.3125 4.75 C-4.30285794 3.77389987 -2.37845248 2.04811186 0 0 Z " fill="#E15C5E" transform="translate(461,93)"/>
<path d="M0 0 C2 1.5625 2 1.5625 3 3 C-0.05263664 3.98120464 -1.94736336 3.98120464 -5 3 C-4.67 2.34 -4.34 1.68 -4 1 C-8.455 1.495 -8.455 1.495 -13 2 C-9.13517222 -1.86482778 -4.95302263 -1.20729927 0 0 Z " fill="#CD4D51" transform="translate(372,72)"/>
<path d="M0 0 C0.66 0 1.32 0 2 0 C0.62380176 5.19897112 -2.66863099 8.08143805 -7 11 C-9.9375 11.875 -9.9375 11.875 -12 12 C-11.34 11.67 -10.68 11.34 -10 11 C-10.33 10.01 -10.66 9.02 -11 8 C-9.02 8 -7.04 8 -5 8 C-4.34 6.68 -3.68 5.36 -3 4 C-2.34 4 -1.68 4 -1 4 C-0.67 2.68 -0.34 1.36 0 0 Z " fill="#CB555A" transform="translate(321,296)"/>
<path d="M0 0 C5.53846154 -0.36923077 5.53846154 -0.36923077 7.875 1.5 C8.24625 1.995 8.6175 2.49 9 3 C8.319375 2.87625 7.63875 2.7525 6.9375 2.625 C2.51142186 3.19003125 0.1251547 5.9739136 -3 9 C-3 7.68 -3 6.36 -3 5 C-2.01 5 -1.02 5 0 5 C0 3.35 0 1.7 0 0 Z " fill="#D3474E" transform="translate(92,386)"/>
<path d="M0 0 C0.83007361 2.59398004 0.98958542 4.55197273 0.9375 7.3125 C1.01732294 12.02205375 1.52605545 16.24260458 4.625 19.9375 C5.305625 20.4634375 5.305625 20.4634375 6 21 C5.34 21.66 4.68 22.32 4 23 C0.49372176 17.91024126 -1.14161372 14.68030397 -1.125 8.5 C-1.12757812 7.5409375 -1.13015625 6.581875 -1.1328125 5.59375 C-1 3 -1 3 0 0 Z " fill="#B2353C" transform="translate(34,360)"/>
<path d="M0 0 C-1 2 -1 2 -4.0625 3.125 C-8.09858291 4.19682285 -11.84184728 4.1459001 -16 4 C-15.67 3.34 -15.34 2.68 -15 2 C-12.67038557 1.64159778 -10.33634657 1.31151288 -8 1 C-7.0925 0.62875 -6.185 0.2575 -5.25 -0.125 C-3 -1 -3 -1 0 0 Z " fill="#CA3940" transform="translate(432,221)"/>
<path d="M0 0 C1.32 0 2.64 0 4 0 C4.66 0.99 5.32 1.98 6 3 C8.56282742 3.72965366 8.56282742 3.72965366 11 4 C11 4.66 11 5.32 11 6 C11.66 6.33 12.32 6.66 13 7 C11.375 7.75 11.375 7.75 9 8 C5.13520454 5.87041883 2.39087244 3.71913491 0 0 Z " fill="#CD4E54" transform="translate(237,397)"/>
<path d="M0 0 C0 0.66 0 1.32 0 2 C-3.56045177 3.18681726 -6.43808337 3.09689832 -10.1875 3.0625 C-11.45980469 3.05347656 -12.73210937 3.04445313 -14.04296875 3.03515625 C-15.50669922 3.01775391 -15.50669922 3.01775391 -17 3 C-14.45161413 0.45161413 -13.16415114 0.6311852 -9.625 0.375 C-8.19027344 0.26285156 -8.19027344 0.26285156 -6.7265625 0.1484375 C-4.48714532 0.02652081 -2.24273337 0 0 0 Z " fill="#BC2D33" transform="translate(78,402)"/>
<path d="M0 0 C4.75 0.75 4.75 0.75 7 3 C5.56445975 3.50559908 4.1264798 4.0042749 2.6875 4.5 C1.48673828 4.91765625 1.48673828 4.91765625 0.26171875 5.34375 C-2 6 -2 6 -5 6 C-5 4.68 -5 3.36 -5 2 C-3.68 2 -2.36 2 -1 2 C-0.67 1.34 -0.34 0.68 0 0 Z " fill="#D6202B" transform="translate(205,388)"/>
<path d="M0 0 C0.33 0 0.66 0 1 0 C1.2475 1.0725 1.495 2.145 1.75 3.25 C2.99883146 6.99649437 4.02488658 8.52073882 7 11 C5.68 11.33 4.36 11.66 3 12 C2.10577086 10.7636832 1.23512109 9.51028438 0.375 8.25 C-0.11226563 7.55390625 -0.59953125 6.8578125 -1.1015625 6.140625 C-2 4 -2 4 -1.1484375 1.734375 C-0.76945313 1.16203125 -0.39046875 0.5896875 0 0 Z " fill="#CE5555" transform="translate(2,292)"/>
<path d="M0 0 C2.97 0.495 2.97 0.495 6 1 C8 7.625 8 7.625 8 11 C5.84012516 8.93513431 4.03929301 6.81221537 2.3125 4.375 C1.65701172 3.45847656 1.65701172 3.45847656 0.98828125 2.5234375 C0 1 0 1 0 0 Z " fill="#C6393E" transform="translate(327,204)"/>
<path d="M0 0 C1.5625 1.75 1.5625 1.75 3 4 C2.875 6.1875 2.875 6.1875 2 8 C1.01 8.33 0.02 8.66 -1 9 C-1 8.34 -1 7.68 -1 7 C-1.66 6.67 -2.32 6.34 -3 6 C-2.42655063 3.13275314 -2.1385485 2.1385485 0 0 Z " fill="#E12932" transform="translate(228,164)"/>
<path d="M0 0 C0.33 0.99 0.66 1.98 1 3 C0.34 3.66 -0.32 4.32 -1 5 C-0.67 5.66 -0.34 6.32 0 7 C-0.99 7.99 -1.98 8.98 -3 10 C-3 9.34 -3 8.68 -3 8 C-4.65 8.33 -6.3 8.66 -8 9 C-7.04270084 7.87411986 -6.08412105 6.7493285 -5.125 5.625 C-4.59132812 4.99851563 -4.05765625 4.37203125 -3.5078125 3.7265625 C-2.38567993 2.44163349 -1.20628025 1.20628025 0 0 Z " fill="#D23940" transform="translate(237,155)"/>
<path d="M0 0 C-2.3129482 2.3129482 -3.47904875 2.49580975 -6.625 3.125 C-7.44226563 3.29257813 -8.25953125 3.46015625 -9.1015625 3.6328125 C-10.04128906 3.81457031 -10.04128906 3.81457031 -11 4 C-11 4.66 -11 5.32 -11 6 C-12.32 6 -13.64 6 -15 6 C-15 5.34 -15 4.68 -15 4 C-13.06767179 3.13419713 -11.12892806 2.28270059 -9.1875 1.4375 C-8.10855469 0.96183594 -7.02960938 0.48617187 -5.91796875 -0.00390625 C-3 -1 -3 -1 0 0 Z " fill="#C32F35" transform="translate(119,159)"/>
<path d="M0 0 C-0.33 0.66 -0.66 1.32 -1 2 C-2.98 2 -4.96 2 -7 2 C-7 2.66 -7 3.32 -7 4 C-9.31 4.66 -11.62 5.32 -14 6 C-6.58333333 -1.8287037 -6.58333333 -1.8287037 0 0 Z " fill="#CD3D46" transform="translate(252,149)"/>
<path d="M0 0 C2.31 0 4.62 0 7 0 C6.01 0.495 6.01 0.495 5 1 C5 1.66 5 2.32 5 3 C1.7 3.66 -1.6 4.32 -5 5 C-5 4.01 -5 3.02 -5 2 C-3.35 2 -1.7 2 0 2 C0 1.34 0 0.68 0 0 Z " fill="#CF5D61" transform="translate(397,119)"/>
<path d="M0 0 C-1.32 0 -2.64 0 -4 0 C-4 0.66 -4 1.32 -4 2 C-8.16138263 2.08159574 -11.9472484 1.98248524 -16 1 C-16 0.67 -16 0.34 -16 0 C-14.08655626 -0.39111271 -12.16903447 -0.76231167 -10.25 -1.125 C-9.18265625 -1.33382813 -8.1153125 -1.54265625 -7.015625 -1.7578125 C-3.86311649 -2.01099324 -2.60040934 -1.70415175 0 0 Z " fill="#D3696E" transform="translate(183,335)"/>
<path d="M0 0 C5.94 0 11.88 0 18 0 C18 0.33 18 0.66 18 1 C17.09507812 1.09087891 17.09507812 1.09087891 16.171875 1.18359375 C14.97304688 1.30927734 14.97304688 1.30927734 13.75 1.4375 C12.96109375 1.51871094 12.1721875 1.59992188 11.359375 1.68359375 C9.02508379 1.95064289 9.02508379 1.95064289 6.890625 2.53515625 C4.212727 3.19356506 2.48439357 3.24219678 0 2 C0 1.34 0 0.68 0 0 Z " fill="#DE1E21" transform="translate(278,245)"/>
<path d="M0 0 C0.66 0 1.32 0 2 0 C1.75 3.375 1.75 3.375 1 7 C-1.5335908 8.94241961 -2.78187214 9 -6 9 C-5.05016642 7.49460339 -4.08988109 5.99579653 -3.125 4.5 C-2.59132813 3.6646875 -2.05765625 2.829375 -1.5078125 1.96875 C-0.76144531 0.99421875 -0.76144531 0.99421875 0 0 Z " fill="#D34B4D" transform="translate(436,171)"/>
<path d="M0 0 C1.53445094 3.06890187 0.54984289 5.70094266 0 9 C-1.98 9 -3.96 9 -6 9 C-4.02 6.03 -2.04 3.06 0 0 Z " fill="#D95054" transform="translate(350,105)"/>
<path d="M0 0 C0.99 0.33 1.98 0.66 3 1 C3.08159574 5.16138263 2.98248524 8.9472484 2 13 C1.01 12.67 0.02 12.34 -1 12 C-0.67 8.04 -0.34 4.08 0 0 Z " fill="#CD494F" transform="translate(438,71)"/>
<path d="M0 0 C4.30840713 1.07710178 7.63576723 2.03947516 11 5 C7.69564916 6.12377697 5.9493138 5.89554742 2.75 4.5625 C2.04359375 4.27503906 1.3371875 3.98757813 0.609375 3.69140625 C0.07828125 3.46324219 -0.4528125 3.23507812 -1 3 C-0.67 2.01 -0.34 1.02 0 0 Z " fill="#CC464B" transform="translate(111,391)"/>
<path d="M0 0 C0.99 0.33 1.98 0.66 3 1 C3.66 4.3 4.32 7.6 5 11 C4.01 11 3.02 11 2 11 C0.57741188 7.17679443 -0.24042276 4.08718695 0 0 Z " fill="#C83C41" transform="translate(101,287)"/>
<path d="M0 0 C4.27547053 -0.34203764 6.59660493 -0.21269922 10.4375 1.8125 C11.283125 2.534375 12.12875 3.25625 13 4 C13 4.99 13 5.98 13 7 C9.535 5.02 9.535 5.02 6 3 C6 2.34 6 1.68 6 1 C4.02 1 2.04 1 0 1 C0 0.67 0 0.34 0 0 Z " fill="#E27F82" transform="translate(467,90)"/>
<path d="M0 0 C0.66 0.33 1.32 0.66 2 1 C1.34 3.64 0.68 6.28 0 9 C-0.66 9 -1.32 9 -2 9 C-2 10.65 -2 12.3 -2 14 C-2.66 13.67 -3.32 13.34 -4 13 C-3.67 10.36 -3.34 7.72 -3 5 C-2.34 5 -1.68 5 -1 5 C-0.67 3.35 -0.34 1.7 0 0 Z " fill="#CA3138" transform="translate(405,69)"/>
<path d="M0 0 C3.63 0.33 7.26 0.66 11 1 C9.02 1.99 9.02 1.99 7 3 C6.2575 3.8353125 6.2575 3.8353125 5.5 4.6875 C5.005 5.120625 4.51 5.55375 4 6 C1.8125 5.6875 1.8125 5.6875 0 5 C0 3.33333333 0 1.66666667 0 0 Z " fill="#EB454D" transform="translate(159,336)"/>
<path d="M0 0 C3.63 0.33 7.26 0.66 11 1 C11 1.66 11 2.32 11 3 C6.71 3 2.42 3 -2 3 C-1.34 2.67 -0.68 2.34 0 2 C0 1.34 0 0.68 0 0 Z " fill="#CF6367" transform="translate(146,334)"/>
<path d="M0 0 C-0.55728913 3.34373475 -1.35173889 6.03312999 -3 9 C-3.66 9 -4.32 9 -5 9 C-5.36666667 3.5 -5.36666667 3.5 -3.625 1.125 C-2 0 -2 0 0 0 Z " fill="#CE474B" transform="translate(275,322)"/>
<path d="M0 0 C2.45668485 3.18816967 4.38838956 6.29329598 6 10 C5.67 10.66 5.34 11.32 5 12 C3.046875 11.3203125 3.046875 11.3203125 1 10 C0.390625 7.6171875 0.390625 7.6171875 0.25 4.875 C0.19328125 3.96492187 0.1365625 3.05484375 0.078125 2.1171875 C0.05234375 1.41851562 0.0265625 0.71984375 0 0 Z " fill="#D74E55" transform="translate(268,217)"/>
<path d="M0 0 C0.33 0.66 0.66 1.32 1 2 C1.66 2 2.32 2 3 2 C3.33 3.32 3.66 4.64 4 6 C1.36 6.33 -1.28 6.66 -4 7 C-4 6.34 -4 5.68 -4 5 C-4.66 4.67 -5.32 4.34 -6 4 C-4.35 4 -2.7 4 -1 4 C-0.67 2.68 -0.34 1.36 0 0 Z " fill="#D91823" transform="translate(403,78)"/>
<path d="M0 0 C0.7425 0.0825 1.485 0.165 2.25 0.25 C0.27 2.56 -1.71 4.87 -3.75 7.25 C-4.74 6.26 -5.73 5.27 -6.75 4.25 C-3.42692308 0.31153846 -3.42692308 0.31153846 0 0 Z " fill="#D21D21" transform="translate(282.75,197.75)"/>
<path d="M0 0 C3.63 1.98 7.26 3.96 11 6 C8 8 8 8 6.0625 7.9375 C3.12135824 6.60061738 1.79837707 4.63333786 0 2 C0 1.34 0 0.68 0 0 Z " fill="#D8575C" transform="translate(384,180)"/>
<path d="M0 0 C0.66 0 1.32 0 2 0 C2 0.99 2 1.98 2 3 C2.66 3 3.32 3 4 3 C4.33 6.3 4.66 9.6 5 13 C3 12 3 12 2.1484375 9.78515625 C1.76558594 8.43744141 1.76558594 8.43744141 1.375 7.0625 C1.11460937 6.16660156 0.85421875 5.27070313 0.5859375 4.34765625 C0 2 0 2 0 0 Z " fill="#C95257" transform="translate(333,169)"/>
<path d="M0 0 C0 0.66 0 1.32 0 2 C-0.66 2 -1.32 2 -2 2 C-1.67 3.32 -1.34 4.64 -1 6 C-2.97746603 6.73080266 -4.98072489 7.39421747 -7 8 C-7.66 7.67 -8.32 7.34 -9 7 C-7.88121617 5.82737096 -6.75476949 4.66204862 -5.625 3.5 C-4.68527344 2.52546875 -4.68527344 2.52546875 -3.7265625 1.53125 C-2 0 -2 0 0 0 Z " fill="#DC5B5D" transform="translate(57,152)"/>
<path d="M0 0 C1.32 0.66 2.64 1.32 4 2 C3.525625 2.886875 3.05125 3.77375 2.5625 4.6875 C1.20262851 7.57042756 0.45939614 9.87610623 0 13 C-2 10 -2 10 -2 7 C-1.34 7 -0.68 7 0 7 C-0.185625 6.030625 -0.37125 5.06125 -0.5625 4.0625 C-0.706875 3.051875 -0.85125 2.04125 -1 1 C-0.67 0.67 -0.34 0.34 0 0 Z " fill="#C23739" transform="translate(375,133)"/>
<path d="M0 0 C2.31 0.66 4.62 1.32 7 2 C7 3.32 7 4.64 7 6 C7.99 6.33 8.98 6.66 10 7 C9.34 7.66 8.68 8.32 8 9 C6.66368764 7.6905332 5.33102075 6.37734515 4 5.0625 C3.2575 4.33160156 2.515 3.60070312 1.75 2.84765625 C0 1 0 1 0 0 Z " fill="#BE5356" transform="translate(224,384)"/>
<path d="M0 0 C0.95465783 2.16967689 1.14401212 3.56328793 0.3984375 5.82421875 C-0.35870385 7.5684743 -1.17609198 9.28627131 -2 11 C-3.65 11 -5.3 11 -7 11 C-6.01 10.34 -5.02 9.68 -4 9 C-2.89363605 6.60931266 -2.89363605 6.60931266 -2 4 C-1.34786461 2.65949948 -0.68620031 1.32338632 0 0 Z " fill="#D05157" transform="translate(343,114)"/>
<path d="M0 0 C-0.639375 0.268125 -1.27875 0.53625 -1.9375 0.8125 C-4.33131686 1.88667752 -4.33131686 1.88667752 -5 5 C-7.31 5.33 -9.62 5.66 -12 6 C-4.43243243 -2.21621622 -4.43243243 -2.21621622 0 0 Z " fill="#CA4F52" transform="translate(147,115)"/>
<path d="M0 0 C1.65 0 3.3 0 5 0 C2.78631706 2.21368294 1.06983375 3.86552921 -2.11328125 4.265625 C-4.07746787 4.25166986 -6.0402625 4.13286356 -8 4 C-7.67 3.34 -7.34 2.68 -7 2 C-4.69 2 -2.38 2 0 2 C0 1.34 0 0.68 0 0 Z " fill="#BA1A23" transform="translate(452,233)"/>
<path d="M0 0 C0.99 0.66 1.98 1.32 3 2 C2.02526874 3.66926454 1.04510211 5.33535642 0.0625 7 C-0.48277344 7.928125 -1.02804687 8.85625 -1.58984375 9.8125 C-2.05519531 10.534375 -2.52054687 11.25625 -3 12 C-3.33 12 -3.66 12 -4 12 C-4 10.35 -4 8.7 -4 7 C-3.34 7 -2.68 7 -2 7 C-2 6.34 -2 5.68 -2 5 C-1.34 5 -0.68 5 0 5 C0 3.35 0 1.7 0 0 Z " fill="#CB464F" transform="translate(467,185)"/>
<path d="M0 0 C1.12894876 0.93274109 2.25300876 1.87140122 3.375 2.8125 C4.00148438 3.33457031 4.62796875 3.85664063 5.2734375 4.39453125 C7 6 7 6 9 9 C8.01 9.495 8.01 9.495 7 10 C3.60582235 6.87378374 1.3937282 4.43458973 0 0 Z " fill="#D13440" transform="translate(88,157)"/>
<path d="M0 0 C0.6875 1.75 0.6875 1.75 1 4 C-0.4375 6.25 -0.4375 6.25 -2 8 C-3.32 7.34 -4.64 6.68 -6 6 C-5.34 5.67 -4.68 5.34 -4 5 C-4 4.01 -4 3.02 -4 2 C-2.68 2.33 -1.36 2.66 0 3 C0 2.01 0 1.02 0 0 Z " fill="#E16167" transform="translate(489,116)"/>
<path d="M0 0 C0.66 0 1.32 0 2 0 C2.33 3.3 2.66 6.6 3 10 C-0.29980516 6.70019484 -0.60974014 5.48798839 -1 1 C-0.67 0.67 -0.34 0.34 0 0 Z " fill="#CF565E" transform="translate(131,421)"/>
<path d="M0 0 C1.32 0 2.64 0 4 0 C4.144375 0.78375 4.28875 1.5675 4.4375 2.375 C4.87798925 4.96421018 4.87798925 4.96421018 6 7 C5.34 7 4.68 7 4 7 C3.67 7.66 3.34 8.32 3 9 C2.01 7.68 1.02 6.36 0 5 C0.66 5 1.32 5 2 5 C2 3.68 2 2.36 2 1 C1.34 0.67 0.68 0.34 0 0 Z " fill="#CF272C" transform="translate(458,198)"/>
<path d="M0 0 C1.4589426 0.47730838 2.91713496 0.95691042 4.375 1.4375 C5.18710938 1.70433594 5.99921875 1.97117188 6.8359375 2.24609375 C9 3 9 3 11 4 C8 6 8 6 5.875 5.8125 C5.25625 5.544375 4.6375 5.27625 4 5 C3.67 4.01 3.34 3.02 3 2 C2.01 2 1.02 2 0 2 C0 1.34 0 0.68 0 0 Z " fill="#D1585C" transform="translate(214,165)"/>
<path d="M0 0 C1.12377697 3.30435084 0.89554742 5.0506862 -0.4375 8.25 C-0.72496094 8.95640625 -1.01242187 9.6628125 -1.30859375 10.390625 C-1.53675781 10.92171875 -1.76492188 11.4528125 -2 12 C-2.33 12 -2.66 12 -3 12 C-3 8.37 -3 4.74 -3 1 C-2.01 1.495 -2.01 1.495 -1 2 C-0.67 1.34 -0.34 0.68 0 0 Z " fill="#D05E61" transform="translate(278,310)"/>
<path d="M0 0 C1.32 0 2.64 0 4 0 C4 0.66 4 1.32 4 2 C4.99 2 5.98 2 7 2 C7 2.99 7 3.98 7 5 C6.071875 4.649375 5.14375 4.29875 4.1875 3.9375 C1.0197047 2.67617372 1.0197047 2.67617372 -2 4 C-2.33 3.34 -2.66 2.68 -3 2 C-2.01 2 -1.02 2 0 2 C0 1.34 0 0.68 0 0 Z " fill="#CD323B" transform="translate(357,209)"/>
<path d="M0 0 C0.99 0 1.98 0 3 0 C2.8125 1.8125 2.8125 1.8125 2 4 C-0.4375 5.8125 -0.4375 5.8125 -3 7 C-3.66 6.67 -4.32 6.34 -5 6 C-5 5.34 -5 4.68 -5 4 C-3.35 4 -1.7 4 0 4 C0 2.68 0 1.36 0 0 Z " fill="#D55157" transform="translate(185,431)"/>
<path d="M0 0 C0.99 0 1.98 0 3 0 C4.19287411 3.87684087 5 6.91621923 5 11 C4.34 11 3.68 11 3 11 C2.01 7.37 1.02 3.74 0 0 Z " fill="#BE3D44" transform="translate(36,309)"/>
<path d="M0 0 C0.66 0.33 1.32 0.66 2 1 C1.54625 1.4125 1.0925 1.825 0.625 2.25 C-1.10274711 3.91951012 -1.10274711 3.91951012 -1.9375 6.125 C-3 8 -3 8 -5.125 8.75 C-6.053125 8.87375 -6.053125 8.87375 -7 9 C-5.03681826 5.46627288 -2.95929119 2.75520215 0 0 Z " fill="#C76162" transform="translate(8,247)"/>
<path d="M0 0 C2.83374881 3.20336822 3.5205537 5.78087253 4 10 C3.34 10 2.68 10 2 10 C-1.07692308 4.58461538 -1.07692308 4.58461538 -0.6875 1.625 C-0.460625 1.08875 -0.23375 0.5525 0 0 Z " fill="#CE5A5D" transform="translate(274,230)"/>
<path d="M0 0 C0.99 0 1.98 0 3 0 C3.33 2.31 3.66 4.62 4 7 C2.68 6.67 1.36 6.34 0 6 C0 4.02 0 2.04 0 0 Z " fill="#E32A34" transform="translate(373,168)"/>
<path d="M0 0 C2.6875 0.875 2.6875 0.875 5 2 C5 2.33 5 2.66 5 3 C2.69 3.33 0.38 3.66 -2 4 C-2 5.65 -2 7.3 -2 9 C-2.33 9 -2.66 9 -3 9 C-3.1875 5.625 -3.1875 5.625 -3 2 C-2.01 1.34 -1.02 0.68 0 0 Z " fill="#DB686D" transform="translate(415,223)"/>
<path d="M0 0 C2.78349856 1.0558098 4.00409146 2.00518252 5.875 4.375 C7 7 7 7 6.1875 9.3125 C5.795625 9.869375 5.40375 10.42625 5 11 C4.80664062 10.45730469 4.61328125 9.91460937 4.4140625 9.35546875 C4.15367187 8.64003906 3.89328125 7.92460937 3.625 7.1875 C3.36976563 6.47980469 3.11453125 5.77210938 2.8515625 5.04296875 C1.9734231 2.75226641 1.9734231 2.75226641 0 0 Z " fill="#D98B8E" transform="translate(283,168)"/>
<path d="M0 0 C0.33 1.65 0.66 3.3 1 5 C0.01 5 -0.98 5 -2 5 C-2.33 4.34 -2.66 3.68 -3 3 C-5.52733235 2.34444881 -5.52733235 2.34444881 -8 2 C-4.91190305 0.23537317 -3.76687864 0 0 0 Z " fill="#DD5D66" transform="translate(334,158)"/>
<path d="M0 0 C1.65 0.33 3.3 0.66 5 1 C2.11912454 3.40072955 -0.56404834 5.47291037 -4 7 C-4 6.01 -4 5.02 -4 4 C-3.01 4 -2.02 4 -1 4 C-0.67 2.68 -0.34 1.36 0 0 Z " fill="#CE484D" transform="translate(480,123)"/>
<path d="M0 0 C0.33 0.99 0.66 1.98 1 3 C0 4 0 4 -3.5625 4.0625 C-4.696875 4.041875 -5.83125 4.02125 -7 4 C-7 3.34 -7 2.68 -7 2 C-4.35261084 0.5393715 -3.10551666 0 0 0 Z " fill="#D3333B" transform="translate(128,394)"/>
<path d="M0 0 C2.75605439 2.54805028 3.70610368 4.17934778 4 8 C3.34 8.66 2.68 9.32 2 10 C0.41727399 8.41727399 0.65264253 6.61965997 0.4375 4.4375 C0.35371094 3.61121094 0.26992188 2.78492188 0.18359375 1.93359375 C0.12300781 1.29550781 0.06242187 0.65742188 0 0 Z " fill="#D3595D" transform="translate(320,252)"/>
<path d="M0 0 C-4.30769231 3.07692308 -4.30769231 3.07692308 -7.8125 2.6875 C-8.534375 2.460625 -9.25625 2.23375 -10 2 C-6.80505194 -1.19494806 -4.22040044 -1.35655728 0 0 Z " fill="#CE3840" transform="translate(133,225)"/>
<path d="M0 0 C1.32 0.66 2.64 1.32 4 2 C4 3.65 4 5.3 4 7 C3.01 6.34 2.02 5.68 1 5 C0.01 5 -0.98 5 -2 5 C-1 2 -1 2 0 0 Z " fill="#D51E27" transform="translate(283,353)"/>
<path d="M0 0 C-0.61875 0.28875 -1.2375 0.5775 -1.875 0.875 C-4.13325765 1.93720042 -4.13325765 1.93720042 -6 4 C-6.99 3.34 -7.98 2.68 -9 2 C-9 1.34 -9 0.68 -9 0 C-5.93109813 -1.53445094 -3.29905734 -0.54984289 0 0 Z " fill="#D32124" transform="translate(164,337)"/>
<path d="M0 0 C2.672336 3.56311466 3.77263971 5.84585747 5 10 C3.68 10 2.36 10 1 10 C0.67 6.7 0.34 3.4 0 0 Z " fill="#DC777B" transform="translate(106,298)"/>
<path d="M0 0 C0.33 0 0.66 0 1 0 C1.33 3.3 1.66 6.6 2 10 C1.01 10.495 1.01 10.495 0 11 C-1.125 3.375 -1.125 3.375 0 0 Z " fill="#CD5155" transform="translate(219,251)"/>
<path d="M0 0 C5.94 0.99 5.94 0.99 12 2 C12 2.33 12 2.66 12 3 C8.7 3.33 5.4 3.66 2 4 C2 3.01 2 2.02 2 1 C1.34 0.67 0.68 0.34 0 0 Z " fill="#C41D25" transform="translate(393,187)"/>
<path d="M0 0 C3.81538462 2.46153846 3.81538462 2.46153846 4.75 5.1875 C4.8325 5.785625 4.915 6.38375 5 7 C3.68 7.33 2.36 7.66 1 8 C0.67 5.36 0.34 2.72 0 0 Z " fill="#CB1C25" transform="translate(282,168)"/>
<path d="M0 0 C2.64 0.33 5.28 0.66 8 1 C8.33 1.99 8.66 2.98 9 4 C5.625 3.6875 5.625 3.6875 2 3 C1.34 2.01 0.68 1.02 0 0 Z " fill="#DB7579" transform="translate(317,155)"/>
<path d="M0 0 C2.96404505 2.80804268 5.44499019 5.18315774 7 9 C5.1875 8.875 5.1875 8.875 3 8 C0 2.96428571 0 2.96428571 0 0 Z " fill="#AE242C" transform="translate(374,75)"/>
<path d="M0 0 C1.65 0.99 3.3 1.98 5 3 C4.67 4.65 4.34 6.3 4 8 C1.84622436 5.37801226 0.59927826 3.35595828 0 0 Z " fill="#D35D5C" transform="translate(44,330)"/>
<path d="M0 0 C-2.98646769 1.99097846 -5.59687262 2.94124926 -9 4 C-9 3.01 -9 2.02 -9 1 C-5.8035914 -0.06546953 -3.34252724 -0.07427838 0 0 Z " fill="#C04547" transform="translate(142,220)"/>
<path d="M0 0 C1.70884005 1.62339805 3.37446717 3.29319053 5 5 C5 5.66 5 6.32 5 7 C2.525 6.01 2.525 6.01 0 5 C0 3.35 0 1.7 0 0 Z " fill="#D36064" transform="translate(495,152)"/>
<path d="M0 0 C3.4375 0.8125 3.4375 0.8125 7 2 C7.33 2.99 7.66 3.98 8 5 C7.34 5.66 6.68 6.32 6 7 C1.125 2.25 1.125 2.25 0 0 Z " fill="#C6585D" transform="translate(426,126)"/>
<path d="M0 0 C4.875 4.75 4.875 4.75 6 7 C4.35 6.67 2.7 6.34 1 6 C0.67 4.02 0.34 2.04 0 0 Z " fill="#D87578" transform="translate(111,308)"/>
<path d="M0 0 C0.91007812 0.10183594 1.82015625 0.20367187 2.7578125 0.30859375 C3.45648438 0.39238281 4.15515625 0.47617188 4.875 0.5625 C4.875 0.8925 4.875 1.2225 4.875 1.5625 C3.25175914 1.78412329 1.626279 1.98939803 0 2.1875 C-1.35738281 2.36152344 -1.35738281 2.36152344 -2.7421875 2.5390625 C-3.52851563 2.54679688 -4.31484375 2.55453125 -5.125 2.5625 C-5.785 1.9025 -6.445 1.2425 -7.125 0.5625 C-4.50184968 -0.74907516 -2.89466564 -0.33399988 0 0 Z " fill="#CA3239" transform="translate(17.125,245.4375)"/>
<path d="M0 0 C1.32 1.32 2.64 2.64 4 4 C3.67 4.99 3.34 5.98 3 7 C1.68 6.01 0.36 5.02 -1 4 C-0.67 2.68 -0.34 1.36 0 0 Z " fill="#DC1A20" transform="translate(52,208)"/>
<path d="M0 0 C0.66 0.33 1.32 0.66 2 1 C1.67 2.32 1.34 3.64 1 5 C-0.65 5 -2.3 5 -4 5 C-2.68 3.35 -1.36 1.7 0 0 Z " fill="#E05E66" transform="translate(47,160)"/>
<path d="M0 0 C-0.33 0.66 -0.66 1.32 -1 2 C-1.99 2 -2.98 2 -4 2 C-5.68798827 3.43750191 -5.68798827 3.43750191 -7 5 C-7 4.34 -7 3.68 -7 3 C-7.66 2.67 -8.32 2.34 -9 2 C-5.86501708 0.14223235 -3.62528568 -0.20140476 0 0 Z " fill="#D83336" transform="translate(142,120)"/>
<path d="M0 0 C2.475 0.99 2.475 0.99 5 2 C4.01 2.99 3.02 3.98 2 5 C0.68 4.34 -0.64 3.68 -2 3 C-1 1 -1 1 0 0 Z " fill="#D6252C" transform="translate(446,96)"/>
</svg>
