<svg xmlns="http://www.w3.org/2000/svg" xmlns:xlink="http://www.w3.org/1999/xlink" viewBox="9164 571 67.056 51.328">
  <defs>
    <style>
      .cls-1 {
        fill: none;
      }

      .cls-2 {
        clip-path: url(#clip-path);
      }

      .cls-3, .cls-4 {
        fill: #fa2b2e;
      }

      .cls-3 {
        fill-rule: evenodd;
      }
    </style>
    <clipPath id="clip-path">
      <path id="Path_157" data-name="Path 157" class="cls-1" d="M0-71.23H67.056V-19.9H0Z" transform="translate(0 71.23)"/>
    </clipPath>
  </defs>
  <g id="Group_335" data-name="Group 335" transform="translate(9164 571)">
    <g id="Group_334" data-name="Group 334" class="cls-2" transform="translate(0 0)">
      <g id="Group_332" data-name="Group 332" transform="translate(0 0)">
        <path id="Path_155" data-name="Path 155" class="cls-3" d="M-12.046-13.865A1.758,1.758,0,0,1-13.8-12.106a1.758,1.758,0,0,1-1.759-1.758V-28.52h3.517Zm-12.9,0a1.759,1.759,0,0,1-1.76,1.758,1.757,1.757,0,0,1-1.758-1.758V-19.14h3.517Zm-12.9,0A1.758,1.758,0,0,1-39.6-12.106a1.758,1.758,0,0,1-1.759-1.758v-9.966h3.517Zm-3.517-34A1.758,1.758,0,0,1-39.6-49.623a1.758,1.758,0,0,1,1.758,1.758V-37.9h-3.517Zm3.517,22.276h-3.517a1.758,1.758,0,0,1-1.758-1.758v-7.035a1.759,1.759,0,0,1,1.758-1.758h3.517a1.758,1.758,0,0,1,1.758,1.758v7.035a1.757,1.757,0,0,1-1.758,1.758m9.38-22.276A1.757,1.757,0,0,1-26.7-49.623a1.759,1.759,0,0,1,1.76,1.758V-33.21h-3.517ZM-24.942-20.9h-3.517a1.759,1.759,0,0,1-1.76-1.759v-7.034a1.759,1.759,0,0,1,1.76-1.759h3.517a1.759,1.759,0,0,1,1.758,1.759v7.034A1.758,1.758,0,0,1-24.942-20.9m9.379-26.966A1.758,1.758,0,0,1-13.8-49.623a1.758,1.758,0,0,1,1.758,1.758v5.276h-3.517Zm3.517,17.586h-3.517a1.758,1.758,0,0,1-1.758-1.758v-7.034a1.758,1.758,0,0,1,1.758-1.759h3.517a1.758,1.758,0,0,1,1.758,1.759v7.034a1.758,1.758,0,0,1-1.758,1.758" transform="translate(43.115 49.623)"/>
      </g>
      <g id="Group_333" data-name="Group 333" transform="translate(35.59 19.863)">
        <path id="Path_156" data-name="Path 156" class="cls-4" d="M-4.125-10.009.731-17.584h-6.6L4.083-29.628,1.755-20.871h6.87ZM-14.764-4.357H16.7V-35.823H-14.764Z" transform="translate(14.764 35.823)"/>
      </g>
    </g>
  </g>
</svg>
