<?xml version="1.0" encoding="UTF-8"?>
<svg version="1.1" xmlns="http://www.w3.org/2000/svg" width="17" height="20">
<path d="M0 0 C2.97 0 5.94 0 9 0 C9 2.64 9 5.28 9 8 C7.68 7.67 6.36 7.34 5 7 C4.38511719 7.86625 3.77023437 8.7325 3.13671875 9.625 C2.3208245 10.75037138 1.50439011 11.87535129 0.6875 13 C0.28337891 13.57234375 -0.12074219 14.1446875 -0.53710938 14.734375 C-1.61900525 16.21208644 -2.80455549 17.61254109 -4 19 C-4.99 19 -5.98 19 -7 19 C-6.50485982 14.65962225 -3.68886128 11.91387625 -0.9375 8.75 C-0.46505859 8.19570312 0.00738281 7.64140625 0.49414062 7.0703125 C1.65658967 5.708251 2.82747855 4.35340044 4 3 C2.68 2.67 1.36 2.34 0 2 C0 1.34 0 0.68 0 0 Z " fill="#71D500" transform="translate(7,0)"/>
</svg>
