<?xml version="1.0" encoding="UTF-8"?>
<svg version="1.1" xmlns="http://www.w3.org/2000/svg" viewBox="0 0 64 46" width="64" height="46">
<path d="M0 0 C10.56 0 21.12 0 32 0 C32 15.18 32 30.36 32 46 C21.44 46 10.88 46 0 46 C0 30.82 0 15.64 0 0 Z M5 5 C5 7.31 5 9.62 5 12 C12.26 12 19.52 12 27 12 C27 9.69 27 7.38 27 5 C19.74 5 12.48 5 5 5 Z M5 17 C5 18.65 5 20.3 5 22 C6.65 22 8.3 22 10 22 C10 20.35 10 18.7 10 17 C8.35 17 6.7 17 5 17 Z M13 17 C13 18.65 13 20.3 13 22 C14.65 22 16.3 22 18 22 C18 20.35 18 18.7 18 17 C16.35 17 14.7 17 13 17 Z M21 17 C21 18.65 21 20.3 21 22 C22.65 22 24.3 22 26 22 C26 20.35 26 18.7 26 17 C24.35 17 22.7 17 21 17 Z M13 26 C13 27.98 13 29.96 13 32 C14.65 32 16.3 32 18 32 C18 30.02 18 28.04 18 26 C16.35 26 14.7 26 13 26 Z M21 26 C21 31.28 21 36.56 21 42 C22.65 42 24.3 42 26 42 C26 36.72 26 31.44 26 26 C24.35 26 22.7 26 21 26 Z M5 27 C5 28.65 5 30.3 5 32 C6.65 32 8.3 32 10 32 C10 30.35 10 28.7 10 27 C8.35 27 6.7 27 5 27 Z M5 36 C5 37.65 5 39.3 5 41 C6.65 41 8.3 41 10 41 C10 39.35 10 37.7 10 36 C8.35 36 6.7 36 5 36 Z M13 36 C13 37.65 13 39.3 13 41 C14.65 41 16.3 41 18 41 C18 39.35 18 37.7 18 36 C16.35 36 14.7 36 13 36 Z " fill="#e31837" transform="translate(0,0)"/>
<path d="M0 0 C3.90285767 1.58667578 6.33520982 4.13350481 9.25 7.125 C10.14203125 8.03507813 11.0340625 8.94515625 11.953125 9.8828125 C12.62859375 10.58148438 13.3040625 11.28015625 14 12 C15.17539996 11.07347299 16.34010577 10.13336613 17.5 9.1875 C18.1496875 8.66542969 18.799375 8.14335937 19.46875 7.60546875 C21.34509128 6.00795167 21.34509128 6.00795167 21 3 C20.67 2.01 20.34 1.02 20 0 C22.97 0 25.94 0 29 0 C29 2.97 29 5.94 29 9 C26.525 8.505 26.525 8.505 24 8 C23.54109375 8.56589844 23.0821875 9.13179687 22.609375 9.71484375 C21.99578125 10.44832031 21.3821875 11.18179687 20.75 11.9375 C20.14671875 12.66839844 19.5434375 13.39929688 18.921875 14.15234375 C16.8115869 16.18113698 15.88008574 16.72621739 13 17 C11.26074219 15.82836914 11.26074219 15.82836914 9.546875 14.03515625 C8.928125 13.40029297 8.309375 12.76542969 7.671875 12.11132812 C7.03765625 11.43521484 6.4034375 10.75910156 5.75 10.0625 C5.1003125 9.39025391 4.450625 8.71800781 3.78125 8.02539062 C2.17575886 6.36087407 0.58303096 4.68584572 -1 3 C-0.67 2.01 -0.34 1.02 0 0 Z " fill="#e31837" transform="translate(35,7)"/>
<path d="M0 0 C1.65 0 3.3 0 5 0 C5 9.24 5 18.48 5 28 C3.35 28 1.7 28 0 28 C0 18.76 0 9.52 0 0 Z " fill="#e31837" transform="translate(35,18)"/>
<path d="M0 0 C1.65 0 3.3 0 5 0 C5 8.25 5 16.5 5 25 C3.35 25 1.7 25 0 25 C0 16.75 0 8.5 0 0 Z " fill="#e31837" transform="translate(59,21)"/>
<path d="M0 0 C1.65 0 3.3 0 5 0 C5 7.26 5 14.52 5 22 C3.35 22 1.7 22 0 22 C0 14.74 0 7.48 0 0 Z " fill="#e31837" transform="translate(53,24)"/>
<path d="M0 0 C1.65 0 3.3 0 5 0 C5 6.93 5 13.86 5 21 C3.35 21 1.7 21 0 21 C0 14.07 0 7.14 0 0 Z " fill="#e31837" transform="translate(41,25)"/>
<path d="M0 0 C1.65 0 3.3 0 5 0 C5 5.61 5 11.22 5 17 C3.35 17 1.7 17 0 17 C0 11.39 0 5.78 0 0 Z " fill="#e31837" transform="translate(47,29)"/>
</svg>
