<svg xmlns="http://www.w3.org/2000/svg" xmlns:xlink="http://www.w3.org/1999/xlink" viewBox="10339 1004 24 22.875">
  <defs>
    <style>
      .cls-1 {
        fill: none;
      }

      .cls-2 {
        clip-path: url(#clip-path);
      }

      .cls-3 {
        fill: gray;
        fill-rule: evenodd;
      }
    </style>
    <clipPath id="clip-path">
      <path id="Path_154" data-name="Path 154" class="cls-1" d="M0-61H24v22.875H0Z" transform="translate(0 60.999)"/>
    </clipPath>
  </defs>
  <g id="Group_326" data-name="Group 326" class="cls-2" transform="translate(10339 1004)">
    <g id="Group_325" data-name="Group 325" transform="translate(0 0)">
      <path id="Path_153" data-name="Path 153" class="cls-3" d="M-1.609-12.132a4.478,4.478,0,0,1-.965-2.78,4.5,4.5,0,0,1,4.5-4.5,4.474,4.474,0,0,1,2.779.965,12.04,12.04,0,0,0-6.314,6.314M13.926-6.286h-4.5A1.125,1.125,0,0,1,8.3-7.411v-6a1.125,1.125,0,0,1,1.125-1.125,1.125,1.125,0,0,1,1.125,1.125v4.875h3.375a1.125,1.125,0,0,1,1.125,1.125,1.125,1.125,0,0,1-1.125,1.125m-4.5-9.75A8.625,8.625,0,0,0,.8-7.411,8.625,8.625,0,0,0,9.426,1.214a8.625,8.625,0,0,0,8.625-8.625,8.625,8.625,0,0,0-8.625-8.625M20.3-7.411A10.827,10.827,0,0,1,17.329.044l1.522,1.521a1.112,1.112,0,0,1-1.573,1.573L15.643,1.5A10.816,10.816,0,0,1,9.426,3.464,10.818,10.818,0,0,1,3.219,1.512L1.6,3.134A1.125,1.125,0,1,1,.006,1.543L1.514.035A10.826,10.826,0,0,1-1.449-7.411,10.875,10.875,0,0,1,9.426-18.286,10.875,10.875,0,0,1,20.3-7.411m.18-4.873A11.789,11.789,0,0,0,14.3-18.466a4.384,4.384,0,0,1,2.722-.945,4.406,4.406,0,0,1,4.406,4.406,4.383,4.383,0,0,1-.945,2.721" transform="translate(2.574 19.411)"/>
    </g>
  </g>
</svg>
