<svg xmlns="http://www.w3.org/2000/svg" version="1.1" width="212" height="150" style="shape-rendering:geometricPrecision; text-rendering:geometricPrecision; image-rendering:optimizeQuality; fill-rule:evenodd; clip-rule:evenodd" xmlns:xlink="http://www.w3.org/1999/xlink" viewBox="0 0 1717 1214"><g><path style="opacity:0.981" fill="#cdd2f7" d="M 1276.5,380.5 C 1277.93,382.744 1279.93,384.577 1282.5,386C 1295.06,392.438 1307.06,399.604 1318.5,407.5C 1314,408.649 1309.67,410.315 1305.5,412.5C 1132.72,312.894 960.055,213.061 787.5,113C 783.526,110.398 779.193,108.898 774.5,108.5C 778.448,105.275 782.948,102.941 788,101.5C 792.772,102.635 797.272,104.468 801.5,107C 959.748,198.374 1117.92,289.874 1276,381.5C 1276.4,381.272 1276.57,380.938 1276.5,380.5 Z" /></g><g><path style="opacity:0.999" fill="#6b67e9" d="M 774.5,108.5 C 779.193,108.898 783.526,110.398 787.5,113C 960.055,213.061 1132.72,312.894 1305.5,412.5C 1311.24,417.639 1315.24,423.972 1317.5,431.5C 1318.81,446.961 1318.81,462.294 1317.5,477.5C 1134.47,371.316 951.133,265.65 767.5,160.5C 767.333,145.496 767.5,130.496 768,115.5C 768.962,112.039 771.128,109.705 774.5,108.5 Z" /></g><g><path style="opacity:1" fill="#f1f0fd" d="M 805.5,141.5 C 806.93,141.421 808.264,141.754 809.5,142.5C 810.934,150.584 810.768,158.584 809,166.5C 806.79,167.749 804.624,167.582 802.5,166C 797.263,162.375 795.263,157.542 796.5,151.5C 797.167,151.833 797.833,152.167 798.5,152.5C 799.271,154.862 800.105,157.196 801,159.5C 802.11,161.037 803.61,161.703 805.5,161.5C 805.5,154.833 805.5,148.167 805.5,141.5 Z" /></g><g><path style="opacity:0.98" fill="#dae0f5" d="M 1379.5,163.5 C 1375.04,167.663 1369.88,170.996 1364,173.5C 1360.51,169.202 1357.51,164.536 1355,159.5C 1353.99,158.663 1352.82,158.33 1351.5,158.5C 1353.61,165.56 1356.95,172.06 1361.5,178C 1362.5,178.667 1363.5,178.667 1364.5,178C 1370.19,174.821 1375.86,171.655 1381.5,168.5C 1385.48,176.597 1385.31,184.597 1381,192.5C 1377.51,196.047 1373.34,197.214 1368.5,196C 1351.92,188.568 1342.92,175.735 1341.5,157.5C 1342.13,143.035 1349.13,138.535 1362.5,144C 1370.14,148.779 1375.81,155.279 1379.5,163.5 Z" /></g><g><path style="opacity:1" fill="#bab9f4" d="M 815.5,146.5 C 814.51,152.645 814.177,158.978 814.5,165.5C 813.182,158.989 813.182,152.322 814.5,145.5C 815.107,145.624 815.44,145.957 815.5,146.5 Z" /></g><g><path style="opacity:1" fill="#f2f1fd" d="M 815.5,146.5 C 816.15,146.804 816.817,147.137 817.5,147.5C 818.331,154.476 818.831,161.476 819,168.5C 820.484,172.488 823.317,174.154 827.5,173.5C 827.17,166.8 827.503,160.134 828.5,153.5C 829.5,154.167 830.5,154.833 831.5,155.5C 832.664,162.142 832.831,168.808 832,175.5C 829.317,180.331 825.817,180.831 821.5,177C 817.498,174.161 815.165,170.327 814.5,165.5C 814.177,158.978 814.51,152.645 815.5,146.5 Z" /></g><g><path style="opacity:0.933" fill="#fdfdfe" d="M 1379.5,163.5 C 1382.51,161.5 1385.85,160.5 1389.5,160.5C 1388.81,164.897 1386.14,167.563 1381.5,168.5C 1375.86,171.655 1370.19,174.821 1364.5,178C 1363.5,178.667 1362.5,178.667 1361.5,178C 1356.95,172.06 1353.61,165.56 1351.5,158.5C 1352.82,158.33 1353.99,158.663 1355,159.5C 1357.51,164.536 1360.51,169.202 1364,173.5C 1369.88,170.996 1375.04,167.663 1379.5,163.5 Z" /></g><g><path style="opacity:1" fill="#f0effd" d="M 835.5,158.5 C 837.17,158.751 838.67,159.418 840,160.5C 840.333,167.833 840.667,175.167 841,182.5C 844,184.5 847,186.5 850,188.5C 850.781,189.944 850.614,191.277 849.5,192.5C 844.918,189.959 840.418,187.293 836,184.5C 835.5,175.84 835.334,167.173 835.5,158.5 Z" /></g><g><path style="opacity:0.997" fill="#f5f5fa" d="M 767.5,160.5 C 951.133,265.65 1134.47,371.316 1317.5,477.5C 1318.83,606.137 1318.83,734.804 1317.5,863.5C 1314.72,867.008 1311.05,868.342 1306.5,867.5C 1171.17,789.833 1035.83,712.167 900.5,634.5C 899.529,625.584 899.196,616.584 899.5,607.5C 1031.39,683.362 1163.22,759.362 1295,835.5C 1295.67,729.167 1295.67,622.833 1295,516.5C 1126.92,419.879 959.088,322.879 791.5,225.5C 790.333,331.832 790.167,438.165 791,544.5C 805.812,552.815 820.312,561.482 834.5,570.5C 832.395,578.026 831.062,585.692 830.5,593.5C 811.779,583.391 793.612,572.391 776,560.5C 771.995,555.489 769.328,549.822 768,543.5C 767.5,532.172 767.333,520.838 767.5,509.5C 768.833,474.833 768.833,440.167 767.5,405.5C 767.5,323.833 767.5,242.167 767.5,160.5 Z" /></g><g><path style="opacity:0.992" fill="#5551cb" d="M 681.5,266.5 C 674.574,291.539 661.241,312.372 641.5,329C 641.728,329.399 642.062,329.565 642.5,329.5C 633.5,335.336 624.167,340.669 614.5,345.5C 630.221,316.622 634.721,285.955 628,253.5C 626.004,245.849 624.17,238.183 622.5,230.5C 637.274,210.058 655.274,193.058 676.5,179.5C 681.042,190.001 683.876,201.001 685,212.5C 686.467,230.715 685.3,248.715 681.5,266.5 Z" /></g><g><path style="opacity:0.993" fill="#7f7cfa" d="M 622.5,230.5 C 624.17,238.183 626.004,245.849 628,253.5C 634.721,285.955 630.221,316.622 614.5,345.5C 596.604,338.604 583.937,326.271 576.5,308.5C 571.177,290.758 570.177,272.758 573.5,254.5C 577.942,230.009 586.442,207.009 599,185.5C 608.963,199.427 616.796,214.427 622.5,230.5 Z" /></g><g><path style="opacity:1" fill="#cfd4f8" d="M 801.5,209.5 C 819.139,219.655 836.806,229.822 854.5,240C 855.791,243.455 855.791,246.955 854.5,250.5C 837.167,240.5 819.833,230.5 802.5,220.5C 801.511,216.893 801.177,213.226 801.5,209.5 Z" /></g><g><path style="opacity:1" fill="#6f6bec" d="M 594.5,214.5 C 595.649,214.791 596.316,215.624 596.5,217C 595.091,239.506 595.258,262.006 597,284.5C 598.657,301.795 602.824,318.461 609.5,334.5C 609.167,334.833 608.833,335.167 608.5,335.5C 600.703,317.312 595.87,298.312 594,278.5C 591.891,257.091 592.057,235.758 594.5,214.5 Z" /></g><g><path style="opacity:0.988" fill="#5652cc" d="M 573.5,254.5 C 570.177,272.758 571.177,290.758 576.5,308.5C 568.091,303.24 558.758,298.74 548.5,295C 539.855,293.314 531.188,292.147 522.5,291.5C 509.019,269.772 503.685,246.106 506.5,220.5C 521.133,222.478 534.8,227.311 547.5,235C 556.609,240.947 565.276,247.447 573.5,254.5 Z" /></g><g><path style="opacity:1" fill="#e8ecf7" d="M 899.5,607.5 C 899.5,606.167 899.5,604.833 899.5,603.5C 910.806,609.821 922.139,616.155 933.5,622.5C 933.833,613.333 934.167,604.167 934.5,595C 934.498,585.475 933.832,576.308 932.5,567.5C 934.475,565.863 936.475,564.196 938.5,562.5C 960.521,575.6 982.688,588.6 1005,601.5C 1005.67,581.833 1005.67,562.167 1005,542.5C 990.723,534.281 976.557,525.948 962.5,517.5C 962.557,516.391 962.89,515.391 963.5,514.5C 977.687,521.846 991.52,529.846 1005,538.5C 1005.67,518.833 1005.67,499.167 1005,479.5C 982.667,466.5 960.333,453.5 938,440.5C 937.167,460.175 937.334,479.842 938.5,499.5C 943.362,502.763 948.362,505.763 953.5,508.5C 953.5,508.833 953.5,509.167 953.5,509.5C 948.13,518.228 941.797,526.228 934.5,533.5C 934.832,522.48 934.499,511.48 933.5,500.5C 911.205,488.033 889.038,475.367 867,462.5C 866.174,473.674 866.341,484.674 867.5,495.5C 865.858,496.803 864.191,498.136 862.5,499.5C 862.833,486.15 862.499,472.817 861.5,459.5C 839.5,446.833 817.5,434.167 795.5,421.5C 794.334,440.825 794.167,460.158 795,479.5C 816.112,491.971 837.279,504.305 858.5,516.5C 857.89,517.391 857.557,518.391 857.5,519.5C 836.867,507.889 816.201,496.223 795.5,484.5C 794.334,503.825 794.167,523.158 795,542.5C 808.48,551.154 822.313,559.154 836.5,566.5C 836.011,567.995 835.345,569.329 834.5,570.5C 820.312,561.482 805.812,552.815 791,544.5C 790.167,438.165 790.333,331.832 791.5,225.5C 959.088,322.879 1126.92,419.879 1295,516.5C 1295.67,622.833 1295.67,729.167 1295,835.5C 1163.22,759.362 1031.39,683.362 899.5,607.5 Z" /></g><g><path style="opacity:0.978" fill="#dae0f5" d="M 1208.5,253.5 C 1203.57,257.309 1198.23,260.642 1192.5,263.5C 1189.29,258.248 1185.96,253.082 1182.5,248C 1179.91,247.699 1179.08,248.866 1180,251.5C 1183.25,256.334 1186.25,261.334 1189,266.5C 1189.74,267.574 1190.74,268.241 1192,268.5C 1197.97,264.768 1204.13,261.434 1210.5,258.5C 1212.42,264.671 1212.92,271.004 1212,277.5C 1210.05,282.957 1206.21,285.957 1200.5,286.5C 1184.66,281.487 1174.82,270.82 1171,254.5C 1169.92,247.946 1170.59,241.612 1173,235.5C 1179.61,230.417 1186.44,230.25 1193.5,235C 1199.8,240.11 1204.8,246.277 1208.5,253.5 Z" /></g><g><path style="opacity:0.925" fill="#fdfdfe" d="M 1208.5,253.5 C 1211.14,252.18 1213.81,250.847 1216.5,249.5C 1218.57,250.786 1218.9,252.453 1217.5,254.5C 1215.3,256.098 1212.97,257.431 1210.5,258.5C 1204.13,261.434 1197.97,264.768 1192,268.5C 1190.74,268.241 1189.74,267.574 1189,266.5C 1186.25,261.334 1183.25,256.334 1180,251.5C 1179.08,248.866 1179.91,247.699 1182.5,248C 1185.96,253.082 1189.29,258.248 1192.5,263.5C 1198.23,260.642 1203.57,257.309 1208.5,253.5 Z" /></g><g><path style="opacity:0.974" fill="#fa7b68" d="M 1357.5,254.5 C 1357.06,256.074 1356.06,257.241 1354.5,258C 1349.47,260.845 1344.47,263.679 1339.5,266.5C 1323.14,258.033 1306.14,256.366 1288.5,261.5C 1309.84,244.179 1332.84,241.846 1357.5,254.5 Z" /></g><g><path style="opacity:1" fill="#ced3f8" d="M 873.5,251.5 C 890.941,261.056 908.274,270.89 925.5,281C 926.791,284.455 926.791,287.955 925.5,291.5C 908.5,281.667 891.5,271.833 874.5,262C 873.544,258.606 873.211,255.106 873.5,251.5 Z" /></g><g><path style="opacity:0.993" fill="#fe5a72" d="M 1339.5,266.5 C 1354.61,275.265 1367.94,286.265 1379.5,299.5C 1386.24,307.304 1392.24,315.637 1397.5,324.5C 1403.65,334.46 1408.98,344.793 1413.5,355.5C 1416.91,365.396 1419.91,375.396 1422.5,385.5C 1425.3,400.536 1425.14,415.536 1422,430.5C 1419.46,442.595 1413.63,452.595 1404.5,460.5C 1399.69,464.735 1394.02,467.068 1387.5,467.5C 1387.75,458.46 1387.41,449.46 1386.5,440.5C 1394.6,436.555 1400.1,430.222 1403,421.5C 1407.89,404.061 1407.56,386.728 1402,369.5C 1393.35,341.185 1377.85,317.352 1355.5,298C 1343.63,288.067 1329.97,282.567 1314.5,281.5C 1307.01,280.883 1300.68,283.216 1295.5,288.5C 1292.94,289.543 1290.78,291.21 1289,293.5C 1282.59,302.813 1279.42,313.147 1279.5,324.5C 1280.28,341.828 1283.95,358.494 1290.5,374.5C 1283.85,370.862 1277.18,367.195 1270.5,363.5C 1261.7,342.013 1259.2,319.68 1263,296.5C 1265.71,280.354 1274.21,268.687 1288.5,261.5C 1306.14,256.366 1323.14,258.033 1339.5,266.5 Z" /></g><g><path style="opacity:0.992" fill="#423eaf" d="M 705.5,319.5 C 689.536,317.224 673.87,318.391 658.5,323C 653.032,324.903 647.699,327.07 642.5,329.5C 642.062,329.565 641.728,329.399 641.5,329C 661.241,312.372 674.574,291.539 681.5,266.5C 701.633,262.079 721.633,262.579 741.5,268C 735.108,289.203 723.108,306.37 705.5,319.5 Z" /></g><g><path style="opacity:1" fill="#fefefe" d="M 1386.5,440.5 C 1384.3,434.596 1380.97,429.43 1376.5,425C 1355.93,412.555 1335.27,400.388 1314.5,388.5C 1327.55,381.222 1340.39,373.556 1353,365.5C 1353.5,362.183 1353.67,358.85 1353.5,355.5C 1353.67,341.829 1353.5,328.163 1353,314.5C 1351.55,310.329 1348.88,308.995 1345,310.5C 1344.5,325.83 1344.33,341.163 1344.5,356.5C 1333.22,363.811 1321.56,370.645 1309.5,377C 1308.58,379.041 1308.24,381.208 1308.5,383.5C 1308.63,384.239 1308.46,384.906 1308,385.5C 1304.39,383.28 1300.89,380.947 1297.5,378.5C 1289.16,360.957 1284.49,342.457 1283.5,323C 1283.65,310.056 1287.65,298.556 1295.5,288.5C 1300.68,283.216 1307.01,280.883 1314.5,281.5C 1329.97,282.567 1343.63,288.067 1355.5,298C 1377.85,317.352 1393.35,341.185 1402,369.5C 1407.56,386.728 1407.89,404.061 1403,421.5C 1400.1,430.222 1394.6,436.555 1386.5,440.5 Z" /></g><g><path style="opacity:0.979" fill="#ef6a62" d="M 1357.5,254.5 C 1373.93,263.265 1387.93,274.932 1399.5,289.5C 1392.83,292.833 1386.17,296.167 1379.5,299.5C 1367.94,286.265 1354.61,275.265 1339.5,266.5C 1344.47,263.679 1349.47,260.845 1354.5,258C 1356.06,257.241 1357.06,256.074 1357.5,254.5 Z" /></g><g><path style="opacity:1" fill="#cfd4f8" d="M 944.5,292.5 C 962.274,302.223 979.941,312.223 997.5,322.5C 998.659,326.122 998.825,329.789 998,333.5C 980.582,323.207 963.082,313.04 945.5,303C 944.544,299.606 944.211,296.106 944.5,292.5 Z" /></g><g><path style="opacity:1" fill="#f5f5fa" d="M 794.5,294.5 C 817.054,307.362 839.554,320.362 862,333.5C 862.833,353.175 862.666,372.842 861.5,392.5C 839.416,379.374 817.249,366.374 795,353.5C 794.5,333.836 794.333,314.169 794.5,294.5 Z" /></g><g><path style="opacity:1" fill="#cc3758" d="M 1295.5,288.5 C 1287.65,298.556 1283.65,310.056 1283.5,323C 1284.49,342.457 1289.16,360.957 1297.5,378.5C 1294.67,377.921 1292.34,376.588 1290.5,374.5C 1283.95,358.494 1280.28,341.828 1279.5,324.5C 1279.42,313.147 1282.59,302.813 1289,293.5C 1290.78,291.21 1292.94,289.543 1295.5,288.5 Z" /></g><g><path style="opacity:0.985" fill="#e65c5f" d="M 1399.5,289.5 C 1407.04,296.711 1413.04,305.045 1417.5,314.5C 1411.07,318.379 1404.41,321.713 1397.5,324.5C 1392.24,315.637 1386.24,307.304 1379.5,299.5C 1386.17,296.167 1392.83,292.833 1399.5,289.5 Z" /></g><g><path style="opacity:1" fill="#f5f5fa" d="M 937.5,314.5 C 960.354,326.845 982.854,339.845 1005,353.5C 1005.83,372.842 1005.67,392.175 1004.5,411.5C 982.205,399.033 960.038,386.367 938,373.5C 937.5,353.836 937.333,334.169 937.5,314.5 Z" /></g><g><path style="opacity:0.994" fill="#6a66e8" d="M 522.5,291.5 C 531.188,292.147 539.855,293.314 548.5,295C 558.758,298.74 568.091,303.24 576.5,308.5C 583.937,326.271 596.604,338.604 614.5,345.5C 624.167,340.669 633.5,335.336 642.5,329.5C 647.699,327.07 653.032,324.903 658.5,323C 673.87,318.391 689.536,317.224 705.5,319.5C 719.828,323.828 732.495,330.995 743.5,341C 729.803,357.855 712.136,368.022 690.5,371.5C 684.833,371.5 679.167,371.5 673.5,371.5C 669.481,371.354 665.481,371.021 661.5,370.5C 643.579,366.123 627.412,358.123 613,346.5C 595.422,356.417 576.589,361.75 556.5,362.5C 549.713,362.799 543.046,362.132 536.5,360.5C 535.833,360.5 535.167,360.5 534.5,360.5C 516.541,353.926 501.375,343.259 489,328.5C 484.023,322.022 478.856,315.688 473.5,309.5C 488.203,299.326 504.536,293.326 522.5,291.5 Z" /></g><g><path style="opacity:0.98" fill="#de505b" d="M 1417.5,314.5 C 1424.07,323.635 1429.07,333.635 1432.5,344.5C 1426.29,346.941 1420.29,349.941 1414.5,353.5C 1413.7,353.957 1413.37,354.624 1413.5,355.5C 1408.98,344.793 1403.65,334.46 1397.5,324.5C 1404.41,321.713 1411.07,318.379 1417.5,314.5 Z" /></g><g><path style="opacity:1" fill="#cfd4f8" d="M 1016.5,333.5 C 1034.14,343.655 1051.81,353.822 1069.5,364C 1070.79,367.455 1070.79,370.955 1069.5,374.5C 1052.17,364.5 1034.83,354.5 1017.5,344.5C 1016.51,340.893 1016.18,337.226 1016.5,333.5 Z" /></g><g><path style="opacity:1" fill="#f5f5fa" d="M 865.5,336.5 C 888.685,348.844 911.518,361.844 934,375.5C 934.667,395.167 934.667,414.833 934,434.5C 911.333,421.167 888.667,407.833 866,394.5C 865.5,375.17 865.333,355.836 865.5,336.5 Z" /></g><g><path style="opacity:1" fill="#635fd8" d="M 1353.5,355.5 C 1350.97,354.319 1348.47,352.986 1346,351.5C 1345.8,353.382 1345.3,355.048 1344.5,356.5C 1344.33,341.163 1344.5,325.83 1345,310.5C 1348.88,308.995 1351.55,310.329 1353,314.5C 1353.5,328.163 1353.67,341.829 1353.5,355.5 Z" /></g><g><path style="opacity:1" fill="#5955d1" d="M 726.5,343.5 C 727.978,343.238 729.311,343.571 730.5,344.5C 713.392,349.486 695.892,351.819 678,351.5C 665.456,351.33 652.956,350.497 640.5,349C 635.53,348.776 630.863,347.609 626.5,345.5C 627,345.167 627.5,344.833 628,344.5C 644.157,347.815 660.49,349.149 677,348.5C 693.913,349.387 710.413,347.72 726.5,343.5 Z" /></g><g><path style="opacity:1" fill="#372f95" d="M 661.5,370.5 C 638.088,382.729 613.421,385.895 587.5,380C 575.295,377.238 564.962,371.404 556.5,362.5C 576.589,361.75 595.422,356.417 613,346.5C 627.412,358.123 643.579,366.123 661.5,370.5 Z" /></g><g><path style="opacity:1" fill="#f5f5fa" d="M 1009.5,356.5 C 1031.94,368.89 1054.27,381.556 1076.5,394.5C 1077.83,414.167 1077.83,433.833 1076.5,453.5C 1054.09,440.878 1031.92,427.878 1010,414.5C 1009.5,395.17 1009.33,375.836 1009.5,356.5 Z" /></g><g><path style="opacity:1" fill="#f6f5fa" d="M 794.5,358.5 C 817.35,370.51 839.85,383.177 862,396.5C 862.833,416.175 862.666,435.842 861.5,455.5C 839.416,442.374 817.249,429.374 795,416.5C 794.5,397.17 794.333,377.836 794.5,358.5 Z" /></g><g><path style="opacity:1" fill="#f2f2f9" d="M 536.5,360.5 C 543.046,362.132 549.713,362.799 556.5,362.5C 564.962,371.404 575.295,377.238 587.5,380C 613.421,385.895 638.088,382.729 661.5,370.5C 665.481,371.021 669.481,371.354 673.5,371.5C 675.292,372.309 677.292,372.809 679.5,373C 669.939,380.447 659.272,385.781 647.5,389C 633.655,391.981 619.655,393.481 605.5,393.5C 584.311,392.4 564.978,385.9 547.5,374C 542.84,370.187 539.173,365.687 536.5,360.5 Z" /></g><g><path style="opacity:1" fill="#dadef3" d="M 1270.5,363.5 C 1277.18,367.195 1283.85,370.862 1290.5,374.5C 1292.34,376.588 1294.67,377.921 1297.5,378.5C 1300.89,380.947 1304.39,383.28 1308,385.5C 1308.46,384.906 1308.63,384.239 1308.5,383.5C 1309.87,385.86 1311.87,387.527 1314.5,388.5C 1335.27,400.388 1355.93,412.555 1376.5,425C 1380.97,429.43 1384.3,434.596 1386.5,440.5C 1387.41,449.46 1387.75,458.46 1387.5,467.5C 1371.11,469.556 1355.77,466.056 1341.5,457C 1337.8,454.49 1334.14,451.99 1330.5,449.5C 1330.8,441.414 1330.47,433.414 1329.5,425.5C 1327.86,418.2 1324.19,412.2 1318.5,407.5C 1307.06,399.604 1295.06,392.438 1282.5,386C 1279.93,384.577 1277.93,382.744 1276.5,380.5C 1274.1,374.973 1272.1,369.306 1270.5,363.5 Z" /></g><g><path style="opacity:0.994" fill="#d54357" d="M 1432.5,344.5 C 1437.09,353.93 1440.09,363.93 1441.5,374.5C 1435.67,378.921 1429.33,382.588 1422.5,385.5C 1419.91,375.396 1416.91,365.396 1413.5,355.5C 1413.37,354.624 1413.7,353.957 1414.5,353.5C 1420.29,349.941 1426.29,346.941 1432.5,344.5 Z" /></g><g><path style="opacity:1" fill="#4d49bc" d="M 1353.5,355.5 C 1353.67,358.85 1353.5,362.183 1353,365.5C 1340.39,373.556 1327.55,381.222 1314.5,388.5C 1311.87,387.527 1309.87,385.86 1308.5,383.5C 1308.24,381.208 1308.58,379.041 1309.5,377C 1321.56,370.645 1333.22,363.811 1344.5,356.5C 1345.3,355.048 1345.8,353.382 1346,351.5C 1348.47,352.986 1350.97,354.319 1353.5,355.5 Z" /></g><g><path style="opacity:1" fill="#f7f7fd" d="M 1206.5,374.5 C 1218.38,375.871 1223.04,382.371 1220.5,394C 1216.81,394.45 1213.15,394.283 1209.5,393.5C 1209.28,394.675 1209.61,395.675 1210.5,396.5C 1213.96,398.133 1217.29,399.966 1220.5,402C 1221.75,403.494 1221.75,404.994 1220.5,406.5C 1215.83,403.833 1211.17,401.167 1206.5,398.5C 1205.35,395.554 1205.18,392.554 1206,389.5C 1209.43,388.905 1212.93,388.738 1216.5,389C 1218.09,383.588 1216.09,380.588 1210.5,380C 1209.81,381.067 1209.31,382.234 1209,383.5C 1205.41,381.371 1204.58,378.371 1206.5,374.5 Z" /></g><g><path style="opacity:1" fill="#bfc4ea" d="M 673.5,371.5 C 679.167,371.5 684.833,371.5 690.5,371.5C 687.727,385.807 685.06,400.14 682.5,414.5C 679.832,422.844 678.165,431.511 677.5,440.5C 675.387,448.972 673.554,457.639 672,466.5C 666.387,476.245 658.22,483.078 647.5,487C 638.056,490.255 628.39,492.422 618.5,493.5C 614.167,493.5 609.833,493.5 605.5,493.5C 605.5,460.167 605.5,426.833 605.5,393.5C 619.655,393.481 633.655,391.981 647.5,389C 659.272,385.781 669.939,380.447 679.5,373C 677.292,372.809 675.292,372.309 673.5,371.5 Z" /></g><g><path style="opacity:1" fill="#ced3f8" d="M 1088.5,375.5 C 1105.94,385.105 1123.28,394.939 1140.5,405C 1141.79,408.455 1141.79,411.955 1140.5,415.5C 1123.25,405.626 1106.08,395.626 1089,385.5C 1088.5,382.183 1088.33,378.85 1088.5,375.5 Z" /></g><g><path style="opacity:1" fill="#f5f5fa" d="M 937.5,377.5 C 960.112,390.273 982.612,403.273 1005,416.5C 1005.5,435.83 1005.67,455.164 1005.5,474.5C 982.693,462.51 960.193,449.843 938,436.5C 937.5,416.836 937.333,397.169 937.5,377.5 Z" /></g><g><path style="opacity:1" fill="#fe5c73" d="M 812.5,380.5 C 815.425,380.46 818.091,381.293 820.5,383C 823.358,386.52 826.191,390.02 829,393.5C 834.683,391.357 839.349,392.69 843,397.5C 847.051,402.689 848.051,408.355 846,414.5C 840.348,419.4 834.182,422.733 827.5,424.5C 822,414.833 816.5,405.167 811,395.5C 808.551,390.051 809.051,385.051 812.5,380.5 Z" /></g><g><path style="opacity:1" fill="#f2f1fd" d="M 1225.5,385.5 C 1236.52,386.861 1241.85,393.195 1241.5,404.5C 1243.23,414.967 1239.56,417.8 1230.5,413C 1223.35,404.859 1221.68,395.692 1225.5,385.5 Z" /></g><g><path style="opacity:0.997" fill="#c7ccf1" d="M 534.5,360.5 C 535.167,360.5 535.833,360.5 536.5,360.5C 539.173,365.687 542.84,370.187 547.5,374C 564.978,385.9 584.311,392.4 605.5,393.5C 605.5,426.833 605.5,460.167 605.5,493.5C 586.596,492.595 570.429,485.595 557,472.5C 555.392,469.618 554.059,466.618 553,463.5C 546.766,429.167 540.6,394.833 534.5,360.5 Z" /></g><g><path style="opacity:1" fill="#6d69e9" d="M 1229.5,390.5 C 1232.26,390.744 1234.43,392.077 1236,394.5C 1236.67,399.5 1236.67,404.5 1236,409.5C 1232.68,410.334 1230.35,409.001 1229,405.5C 1228.22,400.416 1228.39,395.416 1229.5,390.5 Z" /></g><g><path style="opacity:1" fill="#f5f4fd" d="M 1245.5,396.5 C 1252.73,396.88 1257.56,400.547 1260,407.5C 1260.98,410.669 1260.48,413.503 1258.5,416C 1255.13,416.543 1251.8,416.376 1248.5,415.5C 1248.33,416.822 1248.66,417.989 1249.5,419C 1252.99,420.579 1256.33,422.413 1259.5,424.5C 1260.83,426.167 1260.83,427.833 1259.5,429.5C 1254.67,426.248 1249.67,423.248 1244.5,420.5C 1242.99,417.059 1243.33,413.892 1245.5,411C 1248.8,411.046 1252.13,411.212 1255.5,411.5C 1255.85,408.398 1255.18,405.565 1253.5,403C 1249.99,400.502 1247.82,401.335 1247,405.5C 1242.96,403.142 1242.46,400.142 1245.5,396.5 Z" /></g><g><path style="opacity:1" fill="#f5f5fa" d="M 1080.5,397.5 C 1103.52,410.097 1126.36,423.097 1149,436.5C 1149.67,456.167 1149.67,475.833 1149,495.5C 1126.63,482.3 1104.13,469.3 1081.5,456.5C 1080.5,436.845 1080.17,417.178 1080.5,397.5 Z" /></g><g><path style="opacity:1" fill="#f5f5fa" d="M 865.5,399.5 C 888.685,411.844 911.518,424.844 934,438.5C 934.667,458.167 934.667,477.833 934,497.5C 911.333,484.167 888.667,470.833 866,457.5C 865.5,438.17 865.333,418.836 865.5,399.5 Z" /></g><g><path style="opacity:0.991" fill="#fcfcfd" d="M 767.5,405.5 C 768.833,440.167 768.833,474.833 767.5,509.5C 753.677,508.021 740.01,506.354 726.5,504.5C 727.498,473.338 727.832,442.004 727.5,410.5C 740.738,408.841 754.071,407.174 767.5,405.5 Z" /></g><g><path style="opacity:1" fill="#8582fb" d="M 974.5,405.5 C 979.332,405.773 981.332,408.44 980.5,413.5C 975.881,412.873 973.881,410.206 974.5,405.5 Z" /></g><g><path style="opacity:1" fill="#f9f9fe" d="M 1264.5,407.5 C 1271.77,407.891 1276.6,411.558 1279,418.5C 1279.67,424.167 1279.67,429.833 1279,435.5C 1276.37,437.988 1273.54,438.155 1270.5,436C 1264.27,431.492 1261.6,425.325 1262.5,417.5C 1262.25,413.865 1262.92,410.532 1264.5,407.5 Z" /></g><g><path style="opacity:1" fill="#e44b67" d="M 984.5,411.5 C 989.751,411.572 991.751,414.072 990.5,419C 986.089,418.764 984.089,416.264 984.5,411.5 Z" /></g><g><path style="opacity:0.994" fill="#f0f2f9" d="M 727.5,410.5 C 727.832,442.004 727.498,473.338 726.5,504.5C 709.952,503.545 693.619,501.879 677.5,499.5C 677.5,479.833 677.5,460.167 677.5,440.5C 678.165,431.511 679.832,422.844 682.5,414.5C 697.483,412.968 712.483,411.635 727.5,410.5 Z" /></g><g><path style="opacity:1" fill="#716ce9" d="M 1267.5,412.5 C 1271.6,412.469 1274.1,414.469 1275,418.5C 1275.67,422.833 1275.67,427.167 1275,431.5C 1270.77,432.708 1268.11,431.041 1267,426.5C 1266.23,421.748 1266.39,417.081 1267.5,412.5 Z" /></g><g><path style="opacity:1" fill="#8380fb" d="M 1159.5,416.5 C 1177.43,426.578 1195.26,436.912 1213,447.5C 1213.67,450.833 1213.67,454.167 1213,457.5C 1195.33,447.167 1177.67,436.833 1160,426.5C 1159.5,423.183 1159.33,419.85 1159.5,416.5 Z" /></g><g><path style="opacity:1" fill="#bbc0e4" d="M 1318.5,407.5 C 1324.19,412.2 1327.86,418.2 1329.5,425.5C 1325.53,427.487 1321.53,429.487 1317.5,431.5C 1315.24,423.972 1311.24,417.639 1305.5,412.5C 1309.67,410.315 1314,408.649 1318.5,407.5 Z" /></g><g><path style="opacity:1" fill="#f5f5fa" d="M 1009.5,419.5 C 1031.94,431.89 1054.27,444.556 1076.5,457.5C 1077.83,477.167 1077.83,496.833 1076.5,516.5C 1054.09,503.878 1031.92,490.878 1010,477.5C 1009.5,458.17 1009.33,438.836 1009.5,419.5 Z" /></g><g><path style="opacity:1" fill="#f5f5fa" d="M 862.5,499.5 C 860.221,505.037 858.888,510.703 858.5,516.5C 837.279,504.305 816.112,491.971 795,479.5C 794.167,460.158 794.334,440.825 795.5,421.5C 817.5,434.167 839.5,446.833 861.5,459.5C 862.499,472.817 862.833,486.15 862.5,499.5 Z" /></g><g><path style="opacity:0.981" fill="#ca3152" d="M 1441.5,374.5 C 1447.31,397.031 1444.81,418.697 1434,439.5C 1425.99,449.009 1416.15,456.009 1404.5,460.5C 1413.63,452.595 1419.46,442.595 1422,430.5C 1425.14,415.536 1425.3,400.536 1422.5,385.5C 1429.33,382.588 1435.67,378.921 1441.5,374.5 Z" /></g><g><path style="opacity:0.995" fill="#a6accd" d="M 1329.5,425.5 C 1330.47,433.414 1330.8,441.414 1330.5,449.5C 1330.5,485.167 1330.5,520.833 1330.5,556.5C 1330.67,655.167 1330.5,753.834 1330,852.5C 1329.77,855.738 1328.27,858.238 1325.5,860C 1323.08,861.626 1320.58,863.126 1318,864.5C 1317.6,864.272 1317.43,863.938 1317.5,863.5C 1318.83,734.804 1318.83,606.137 1317.5,477.5C 1318.81,462.294 1318.81,446.961 1317.5,431.5C 1321.53,429.487 1325.53,427.487 1329.5,425.5 Z" /></g><g><path style="opacity:1" fill="#f5f5fa" d="M 1152.5,438.5 C 1175.05,451.362 1197.55,464.362 1220,477.5C 1220.67,497.167 1220.67,516.833 1220,536.5C 1197.67,523.5 1175.33,510.5 1153,497.5C 1152.5,477.836 1152.33,458.169 1152.5,438.5 Z" /></g><g><path style="opacity:1" fill="#f5f5fa" d="M 963.5,514.5 C 963.5,513.833 963.5,513.167 963.5,512.5C 965.972,510.5 968.138,508.167 970,505.5C 972.395,506.798 973.562,505.965 973.5,503C 973.375,501.373 972.875,499.873 972,498.5C 969.339,496.584 966.839,494.584 964.5,492.5C 966.065,488.928 968.065,485.595 970.5,482.5C 970.167,482.167 969.833,481.833 969.5,481.5C 966.23,483.267 963.397,485.6 961,488.5C 957.06,494.699 954.56,501.365 953.5,508.5C 948.362,505.763 943.362,502.763 938.5,499.5C 937.334,479.842 937.167,460.175 938,440.5C 960.333,453.5 982.667,466.5 1005,479.5C 1005.67,499.167 1005.67,518.833 1005,538.5C 991.52,529.846 977.687,521.846 963.5,514.5 Z" /></g><g><path style="opacity:1" fill="#8380fb" d="M 1231.5,458.5 C 1249.27,468.223 1266.94,478.223 1284.5,488.5C 1285.83,491.833 1285.83,495.167 1284.5,498.5C 1266.91,488.899 1249.57,478.899 1232.5,468.5C 1231.51,465.232 1231.18,461.898 1231.5,458.5 Z" /></g><g><path style="opacity:1" fill="#f5f5fa" d="M 1080.5,460.5 C 1103.52,473.097 1126.36,486.097 1149,499.5C 1149.5,518.83 1149.67,538.164 1149.5,557.5C 1126.64,545.335 1103.97,532.668 1081.5,519.5C 1080.5,499.845 1080.17,480.178 1080.5,460.5 Z" /></g><g><path style="opacity:1" fill="#f5f4fa" d="M 934.5,533.5 C 933.167,535.167 931.833,536.833 930.5,538.5C 924.971,542.758 919.305,546.758 913.5,550.5C 908.595,552.453 903.595,554.12 898.5,555.5C 893.998,553.992 889.998,551.659 886.5,548.5C 884.597,546.372 882.931,544.039 881.5,541.5C 887.476,539.022 891.643,534.688 894,528.5C 895.271,523.246 895.771,517.913 895.5,512.5C 896.591,509.056 897.591,505.556 898.5,502C 898.333,501.167 898.167,500.333 898,499.5C 894.078,498.816 892.578,496.482 893.5,492.5C 891.473,492.662 889.473,492.495 887.5,492C 886.471,490.302 884.971,489.468 883,489.5C 877.826,491.438 872.659,493.438 867.5,495.5C 866.341,484.674 866.174,473.674 867,462.5C 889.038,475.367 911.205,488.033 933.5,500.5C 934.499,511.48 934.832,522.48 934.5,533.5 Z" /></g><g><path style="opacity:0.992" fill="#e0e3f2" d="M 677.5,440.5 C 677.5,460.167 677.5,479.833 677.5,499.5C 657.619,498.212 637.952,496.212 618.5,493.5C 628.39,492.422 638.056,490.255 647.5,487C 658.22,483.078 666.387,476.245 672,466.5C 673.554,457.639 675.387,448.972 677.5,440.5 Z" /></g><g><path style="opacity:0.981" fill="#7f7cfa" d="M 653.5,565.5 C 559.693,620.909 465.36,675.576 370.5,729.5C 367.309,728.908 364.309,727.741 361.5,726C 309.67,696.252 258.003,666.252 206.5,636C 201.862,634.223 197.195,633.056 192.5,632.5C 286.976,577.759 381.643,523.259 476.5,469C 482.167,468.109 487.501,469.109 492.5,472C 546.23,503.193 599.896,534.36 653.5,565.5 Z" /></g><g><path style="opacity:1" fill="#6b67e9" d="M 479.5,478.5 C 530.771,507.137 581.771,536.304 632.5,566C 545.229,616.886 457.729,667.386 370,717.5C 319.107,688.972 268.607,659.805 218.5,630C 305.89,579.978 392.89,529.478 479.5,478.5 Z" /></g><g><path style="opacity:1" fill="#f5f5fa" d="M 1224.5,480.5 C 1246.94,492.89 1269.27,505.556 1291.5,518.5C 1292.83,538.167 1292.83,557.833 1291.5,577.5C 1269.5,564.833 1247.5,552.167 1225.5,539.5C 1224.5,519.845 1224.17,500.178 1224.5,480.5 Z" /></g><g><path style="opacity:1" fill="#fed3ad" d="M 963.5,512.5 C 960.167,511.5 956.833,510.5 953.5,509.5C 953.5,509.167 953.5,508.833 953.5,508.5C 954.56,501.365 957.06,494.699 961,488.5C 963.397,485.6 966.23,483.267 969.5,481.5C 969.833,481.833 970.167,482.167 970.5,482.5C 968.065,485.595 966.065,488.928 964.5,492.5C 966.839,494.584 969.339,496.584 972,498.5C 972.875,499.873 973.375,501.373 973.5,503C 973.562,505.965 972.395,506.798 970,505.5C 968.138,508.167 965.972,510.5 963.5,512.5 Z" /></g><g><path style="opacity:1" fill="#f5f5fa" d="M 1009.5,482.5 C 1031.94,494.89 1054.27,507.556 1076.5,520.5C 1077.83,540.167 1077.83,559.833 1076.5,579.5C 1054.09,566.878 1031.92,553.878 1010,540.5C 1009.5,521.17 1009.33,501.836 1009.5,482.5 Z" /></g><g><path style="opacity:1" fill="#f5f5fa" d="M 857.5,519.5 C 858.795,523.423 860.628,527.09 863,530.5C 863.494,532.134 863.66,533.801 863.5,535.5C 862.889,537.775 861.555,539.441 859.5,540.5C 857.091,541.701 855.091,543.367 853.5,545.5C 846.029,550.978 840.363,557.978 836.5,566.5C 822.313,559.154 808.48,551.154 795,542.5C 794.167,523.158 794.334,503.825 795.5,484.5C 816.201,496.223 836.867,507.889 857.5,519.5 Z" /></g><g><path style="opacity:1" fill="#211e6c" d="M 895.5,512.5 C 894.19,514.435 892.857,516.435 891.5,518.5C 889.958,517.253 888.458,517.253 887,518.5C 886.161,527.353 881.495,533.353 873,536.5C 869.875,535.744 866.709,535.411 863.5,535.5C 863.66,533.801 863.494,532.134 863,530.5C 860.628,527.09 858.795,523.423 857.5,519.5C 857.557,518.391 857.89,517.391 858.5,516.5C 858.888,510.703 860.221,505.037 862.5,499.5C 864.191,498.136 865.858,496.803 867.5,495.5C 872.659,493.438 877.826,491.438 883,489.5C 884.971,489.468 886.471,490.302 887.5,492C 889.473,492.495 891.473,492.662 893.5,492.5C 892.578,496.482 894.078,498.816 898,499.5C 898.167,500.333 898.333,501.167 898.5,502C 897.591,505.556 896.591,509.056 895.5,512.5 Z" /></g><g><path style="opacity:1" fill="#f5f5fa" d="M 1152.5,501.5 C 1175.05,514.362 1197.55,527.362 1220,540.5C 1220.67,560.167 1220.67,579.833 1220,599.5C 1197.67,586.5 1175.33,573.5 1153,560.5C 1152.5,540.836 1152.33,521.169 1152.5,501.5 Z" /></g><g><path style="opacity:0.982" fill="#dae0f5" d="M 1444.5,530.5 C 1440.04,534.663 1434.88,537.996 1429,540.5C 1425.12,536.444 1421.96,531.777 1419.5,526.5C 1417.8,525.177 1416.46,525.51 1415.5,527.5C 1418.71,533.415 1422.04,539.248 1425.5,545C 1426.83,545.667 1428.17,545.667 1429.5,545C 1435.19,541.821 1440.86,538.655 1446.5,535.5C 1448.66,542.407 1448.99,549.407 1447.5,556.5C 1445.05,560.975 1441.22,562.975 1436,562.5C 1434.17,562.333 1432.33,562.167 1430.5,562C 1427.26,559.909 1423.93,558.076 1420.5,556.5C 1409.4,545.327 1404.9,531.993 1407,516.5C 1412.47,507.738 1419.63,506.238 1428.5,512C 1435.51,516.834 1440.84,523 1444.5,530.5 Z" /></g><g><path style="opacity:1" fill="#fcd1ab" d="M 895.5,512.5 C 895.771,517.913 895.271,523.246 894,528.5C 891.643,534.688 887.476,539.022 881.5,541.5C 882.931,544.039 884.597,546.372 886.5,548.5C 884.967,550.245 882.967,551.245 880.5,551.5C 876.968,551.69 873.635,551.023 870.5,549.5C 867.485,547.326 864.151,545.659 860.5,544.5C 859.766,543.292 859.433,541.959 859.5,540.5C 861.555,539.441 862.889,537.775 863.5,535.5C 866.709,535.411 869.875,535.744 873,536.5C 881.495,533.353 886.161,527.353 887,518.5C 888.458,517.253 889.958,517.253 891.5,518.5C 892.857,516.435 894.19,514.435 895.5,512.5 Z" /></g><g><path style="opacity:1" fill="#f5f5fa" d="M 962.5,517.5 C 976.557,525.948 990.723,534.281 1005,542.5C 1005.67,562.167 1005.67,581.833 1005,601.5C 982.688,588.6 960.521,575.6 938.5,562.5C 938.733,560.938 939.4,559.605 940.5,558.5C 944.548,554.746 947.882,550.413 950.5,545.5C 953.839,560.326 962.173,571.492 975.5,579C 979.625,579.854 983.625,579.52 987.5,578C 989.049,576.786 990.215,575.286 991,573.5C 994.247,555.151 988.413,540.318 973.5,529C 969.386,526.461 965.053,524.961 960.5,524.5C 960.767,522.035 961.434,519.701 962.5,517.5 Z" /></g><g><path style="opacity:1" fill="#f5f5fa" d="M 1080.5,523.5 C 1103.52,536.097 1126.36,549.097 1149,562.5C 1149.67,582.167 1149.67,601.833 1149,621.5C 1126.58,608.374 1104.08,595.374 1081.5,582.5C 1080.5,562.845 1080.17,543.178 1080.5,523.5 Z" /></g><g><path style="opacity:1" fill="#e8ebf6" d="M 960.5,524.5 C 965.053,524.961 969.386,526.461 973.5,529C 988.413,540.318 994.247,555.151 991,573.5C 990.215,575.286 989.049,576.786 987.5,578C 983.625,579.52 979.625,579.854 975.5,579C 962.173,571.492 953.839,560.326 950.5,545.5C 954.14,538.557 957.473,531.557 960.5,524.5 Z" /></g><g><path style="opacity:0.929" fill="#fdfdfe" d="M 1444.5,530.5 C 1447.51,528.5 1450.85,527.5 1454.5,527.5C 1454.66,528.873 1454.49,530.207 1454,531.5C 1451.53,532.986 1449.03,534.319 1446.5,535.5C 1440.86,538.655 1435.19,541.821 1429.5,545C 1428.17,545.667 1426.83,545.667 1425.5,545C 1422.04,539.248 1418.71,533.415 1415.5,527.5C 1416.46,525.51 1417.8,525.177 1419.5,526.5C 1421.96,531.777 1425.12,536.444 1429,540.5C 1434.88,537.996 1440.04,534.663 1444.5,530.5 Z" /></g><g><path style="opacity:1" fill="#8380fb" d="M 1176.5,528.5 C 1183.62,528.308 1189.45,530.974 1194,536.5C 1198.03,542.053 1200.53,548.219 1201.5,555C 1201.37,557.253 1200.87,559.419 1200,561.5C 1196.22,565.28 1191.88,568.28 1187,570.5C 1181.56,562.62 1176.89,554.286 1173,545.5C 1171.49,539.13 1172.65,533.464 1176.5,528.5 Z" /></g><g><path style="opacity:1" fill="#ed5662" d="M 953.5,509.5 C 956.833,510.5 960.167,511.5 963.5,512.5C 963.5,513.167 963.5,513.833 963.5,514.5C 962.89,515.391 962.557,516.391 962.5,517.5C 961.434,519.701 960.767,522.035 960.5,524.5C 957.473,531.557 954.14,538.557 950.5,545.5C 947.882,550.413 944.548,554.746 940.5,558.5C 936.621,552.075 933.287,545.408 930.5,538.5C 931.833,536.833 933.167,535.167 934.5,533.5C 941.797,526.228 948.13,518.228 953.5,509.5 Z" /></g><g><path style="opacity:1" fill="#fefefe" d="M 967.5,537.5 C 976.469,539.82 979.136,545.32 975.5,554C 980.768,558.023 983.102,563.189 982.5,569.5C 975.5,565.5 968.5,561.5 961.5,557.5C 959.412,551.905 961.412,548.905 967.5,548.5C 966.173,544.803 966.173,541.136 967.5,537.5 Z" /></g><g><path style="opacity:1" fill="#f3f2fb" d="M 1182.5,540.5 C 1189.9,541.718 1192.56,545.885 1190.5,553C 1183.02,552.151 1180.35,547.985 1182.5,540.5 Z" /></g><g><path style="opacity:1" fill="#f17a65" d="M 859.5,540.5 C 859.433,541.959 859.766,543.292 860.5,544.5C 860.832,581.004 860.498,617.337 859.5,653.5C 857.847,653.34 856.514,652.674 855.5,651.5C 856.664,616.002 856.831,580.336 856,544.5C 855.292,545.381 854.458,546.047 853.5,546.5C 853.5,546.167 853.5,545.833 853.5,545.5C 855.091,543.367 857.091,541.701 859.5,540.5 Z" /></g><g><path style="opacity:1" fill="#f36565" d="M 930.5,538.5 C 933.287,545.408 936.621,552.075 940.5,558.5C 939.4,559.605 938.733,560.938 938.5,562.5C 936.475,564.196 934.475,565.863 932.5,567.5C 930.754,569.252 928.754,570.585 926.5,571.5C 925.504,571.586 924.671,571.252 924,570.5C 920.22,563.937 916.72,557.271 913.5,550.5C 919.305,546.758 924.971,542.758 930.5,538.5 Z" /></g><g><path style="opacity:1" fill="#f5f5fa" d="M 1224.5,543.5 C 1246.94,555.89 1269.27,568.556 1291.5,581.5C 1292.83,601.167 1292.83,620.833 1291.5,640.5C 1269.5,627.833 1247.5,615.167 1225.5,602.5C 1224.5,582.845 1224.17,563.178 1224.5,543.5 Z" /></g><g><path style="opacity:1" fill="#f5f5fa" d="M 1009.5,545.5 C 1031.94,557.89 1054.27,570.556 1076.5,583.5C 1077.83,603.167 1077.83,622.833 1076.5,642.5C 1054.5,629.833 1032.5,617.167 1010.5,604.5C 1009.5,584.845 1009.17,565.178 1009.5,545.5 Z" /></g><g><path style="opacity:0.974" fill="#e4445f" d="M 853.5,545.5 C 853.5,545.833 853.5,546.167 853.5,546.5C 850.389,550.387 848.056,554.72 846.5,559.5C 843.405,567.213 841.238,575.213 840,583.5C 839.077,597.318 838.244,610.984 837.5,624.5C 832.494,614.805 830.16,604.472 830.5,593.5C 831.062,585.692 832.395,578.026 834.5,570.5C 835.345,569.329 836.011,567.995 836.5,566.5C 840.363,557.978 846.029,550.978 853.5,545.5 Z" /></g><g><path style="opacity:1" fill="#ee6962" d="M 860.5,544.5 C 864.151,545.659 867.485,547.326 870.5,549.5C 869.833,585.5 869.167,621.5 868.5,657.5C 865.426,656.698 862.426,655.698 859.5,654.5C 859.5,654.167 859.5,653.833 859.5,653.5C 860.498,617.337 860.832,581.004 860.5,544.5 Z" /></g><g><path style="opacity:1" fill="#f58a67" d="M 855.5,651.5 C 852.19,649.518 849.19,647.185 846.5,644.5C 847.833,616.167 847.833,587.833 846.5,559.5C 848.056,554.72 850.389,550.387 853.5,546.5C 854.458,546.047 855.292,545.381 856,544.5C 856.831,580.336 856.664,616.002 855.5,651.5 Z" /></g><g><path style="opacity:1" fill="#e9575f" d="M 870.5,549.5 C 873.635,551.023 876.968,551.69 880.5,551.5C 880.5,587.5 880.5,623.5 880.5,659.5C 879.167,659.5 877.833,659.5 876.5,659.5C 873.627,659.198 870.961,658.531 868.5,657.5C 869.167,621.5 869.833,585.5 870.5,549.5 Z" /></g><g><path style="opacity:1" fill="#e5495e" d="M 886.5,548.5 C 889.998,551.659 893.998,553.992 898.5,555.5C 897.167,556.167 895.833,556.833 894.5,557.5C 888.385,558.11 884.551,561.444 883,567.5C 882.222,580.551 888.388,586.218 901.5,584.5C 900.109,590.739 899.443,597.072 899.5,603.5C 899.5,604.833 899.5,606.167 899.5,607.5C 899.196,616.584 899.529,625.584 900.5,634.5C 901.198,639.307 901.865,644.141 902.5,649C 902.1,651.215 901.1,653.048 899.5,654.5C 895.54,657.266 891.207,659.266 886.5,660.5C 882.958,660.813 879.625,660.479 876.5,659.5C 877.833,659.5 879.167,659.5 880.5,659.5C 880.5,623.5 880.5,587.5 880.5,551.5C 882.967,551.245 884.967,550.245 886.5,548.5 Z" /></g><g><path style="opacity:1" fill="#f87267" d="M 913.5,550.5 C 916.72,557.271 920.22,563.937 924,570.5C 924.671,571.252 925.504,571.586 926.5,571.5C 921.444,576.365 915.444,579.699 908.5,581.5C 904.813,572.772 900.146,564.772 894.5,557.5C 895.833,556.833 897.167,556.167 898.5,555.5C 903.595,554.12 908.595,552.453 913.5,550.5 Z" /></g><g><path style="opacity:1" fill="#ebedf8" d="M 1330.5,556.5 C 1347.83,556.5 1365.17,556.5 1382.5,556.5C 1382.5,662.5 1382.5,768.5 1382.5,874.5C 1370.83,874.5 1359.17,874.5 1347.5,874.5C 1333.25,874.847 1319.58,872.514 1306.5,867.5C 1311.05,868.342 1314.72,867.008 1317.5,863.5C 1317.43,863.938 1317.6,864.272 1318,864.5C 1320.58,863.126 1323.08,861.626 1325.5,860C 1328.27,858.238 1329.77,855.738 1330,852.5C 1330.5,753.834 1330.67,655.167 1330.5,556.5 Z" /></g><g><path style="opacity:1" fill="#eef0f9" d="M 1382.5,556.5 C 1389.83,556.5 1397.17,556.5 1404.5,556.5C 1404.5,662.5 1404.5,768.5 1404.5,874.5C 1397.17,874.5 1389.83,874.5 1382.5,874.5C 1382.5,768.5 1382.5,662.5 1382.5,556.5 Z" /></g><g><path style="opacity:0.986" fill="#f1f2fa" d="M 1404.5,556.5 C 1409.83,556.5 1415.17,556.5 1420.5,556.5C 1423.93,558.076 1427.26,559.909 1430.5,562C 1432.33,562.167 1434.17,562.333 1436,562.5C 1441.22,562.975 1445.05,560.975 1447.5,556.5C 1451.17,556.5 1454.83,556.5 1458.5,556.5C 1455.38,557.479 1452.04,557.813 1448.5,557.5C 1448.5,663.167 1448.5,768.833 1448.5,874.5C 1459.17,874.5 1469.83,874.5 1480.5,874.5C 1480.5,874.833 1480.5,875.167 1480.5,875.5C 1436,875.832 1391.66,875.499 1347.5,874.5C 1359.17,874.5 1370.83,874.5 1382.5,874.5C 1389.83,874.5 1397.17,874.5 1404.5,874.5C 1404.5,768.5 1404.5,662.5 1404.5,556.5 Z" /></g><g><path style="opacity:1" fill="#f6f7fb" d="M 1458.5,556.5 C 1473.83,556.5 1489.17,556.5 1504.5,556.5C 1504.5,662.5 1504.5,768.5 1504.5,874.5C 1496.5,874.5 1488.5,874.5 1480.5,874.5C 1469.83,874.5 1459.17,874.5 1448.5,874.5C 1448.5,768.833 1448.5,663.167 1448.5,557.5C 1452.04,557.813 1455.38,557.479 1458.5,556.5 Z" /></g><g><path style="opacity:0.99" fill="#fbfcfd" d="M 1504.5,556.5 C 1523.4,555.437 1542.07,556.937 1560.5,561C 1564.26,561.92 1567.76,563.42 1571,565.5C 1571.5,668.833 1571.67,772.166 1571.5,875.5C 1541.17,875.5 1510.83,875.5 1480.5,875.5C 1480.5,875.167 1480.5,874.833 1480.5,874.5C 1488.5,874.5 1496.5,874.5 1504.5,874.5C 1504.5,768.5 1504.5,662.5 1504.5,556.5 Z" /></g><g><path style="opacity:1" fill="#fc7b68" d="M 894.5,557.5 C 900.146,564.772 904.813,572.772 908.5,581.5C 906.188,582.341 903.855,583.341 901.5,584.5C 888.388,586.218 882.222,580.551 883,567.5C 884.551,561.444 888.385,558.11 894.5,557.5 Z" /></g><g><path style="opacity:1" fill="#f5f5fa" d="M 1152.5,564.5 C 1175.05,577.362 1197.55,590.362 1220,603.5C 1220.67,623.167 1220.67,642.833 1220,662.5C 1197.67,649.5 1175.33,636.5 1153,623.5C 1152.5,603.836 1152.33,584.169 1152.5,564.5 Z" /></g><g><path style="opacity:0.996" fill="#3c3498" d="M 653.5,565.5 C 654.926,568.299 654.592,570.966 652.5,573.5C 646.74,574.878 641.74,577.545 637.5,581.5C 548.364,632.235 459.364,683.235 370.5,734.5C 370.5,732.833 370.5,731.167 370.5,729.5C 465.36,675.576 559.693,620.909 653.5,565.5 Z" /></g><g><path style="opacity:1" fill="#f5f5fa" d="M 937.5,566.5 C 960.112,579.273 982.612,592.273 1005,605.5C 1005.67,625.167 1005.67,644.833 1005,664.5C 982.667,651.5 960.333,638.5 938,625.5C 937.5,605.836 937.333,586.169 937.5,566.5 Z" /></g><g><path style="opacity:1" fill="#f5f4f9" d="M 932.5,567.5 C 933.832,576.308 934.498,585.475 934.5,595C 934.167,604.167 933.833,613.333 933.5,622.5C 922.139,616.155 910.806,609.821 899.5,603.5C 899.443,597.072 900.109,590.739 901.5,584.5C 903.855,583.341 906.188,582.341 908.5,581.5C 915.444,579.699 921.444,576.365 926.5,571.5C 928.754,570.585 930.754,569.252 932.5,567.5 Z" /></g><g><path style="opacity:1" fill="#f99d6a" d="M 846.5,559.5 C 847.833,587.833 847.833,616.167 846.5,644.5C 842.169,639.481 839.169,633.814 837.5,627.5C 837.5,626.5 837.5,625.5 837.5,624.5C 838.244,610.984 839.077,597.318 840,583.5C 841.238,575.213 843.405,567.213 846.5,559.5 Z" /></g><g><path style="opacity:0.997" fill="#f0f2fa" d="M 652.5,573.5 C 656.5,575.833 660.5,578.167 664.5,580.5C 664.5,603.167 664.5,625.833 664.5,648.5C 651.635,656.099 638.635,663.432 625.5,670.5C 625.5,659.833 625.5,649.167 625.5,638.5C 634.833,632.833 644.167,627.167 653.5,621.5C 654.613,620.054 654.78,618.387 654,616.5C 649.39,613.113 644.557,610.113 639.5,607.5C 638.883,607.389 638.383,607.056 638,606.5C 637.5,598.173 637.334,589.84 637.5,581.5C 641.74,577.545 646.74,574.878 652.5,573.5 Z" /></g><g><path style="opacity:0.991" fill="#f6f7fb" d="M 664.5,580.5 C 683.636,591.236 702.636,602.236 721.5,613.5C 727.167,610.333 732.833,607.167 738.5,604C 739.928,603.421 741.262,603.588 742.5,604.5C 743.436,605.974 744.77,606.974 746.5,607.5C 746.586,608.496 746.252,609.329 745.5,610C 739.441,613.687 733.274,617.187 727,620.5C 725.862,620.011 724.695,619.678 723.5,619.5C 721.742,619.123 720.075,618.456 718.5,617.5C 700.473,627.845 682.473,638.178 664.5,648.5C 664.5,625.833 664.5,603.167 664.5,580.5 Z" /></g><g><path style="opacity:1" fill="#ccd1f7" d="M 637.5,581.5 C 637.334,589.84 637.5,598.173 638,606.5C 638.383,607.056 638.883,607.389 639.5,607.5C 638.815,609.414 638.315,611.414 638,613.5C 547.022,666.067 456.189,718.734 365.5,771.5C 364.209,771.737 363.209,771.404 362.5,770.5C 363.495,757.677 363.829,744.677 363.5,731.5C 365.471,732.823 367.471,734.156 369.5,735.5C 370.107,735.376 370.44,735.043 370.5,734.5C 459.364,683.235 548.364,632.235 637.5,581.5 Z" /></g><g><path style="opacity:1" fill="#f5f5fa" d="M 1080.5,586.5 C 1103.52,599.097 1126.36,612.097 1149,625.5C 1149.67,645.167 1149.67,664.833 1149,684.5C 1126.58,671.374 1104.08,658.374 1081.5,645.5C 1080.5,625.845 1080.17,606.178 1080.5,586.5 Z" /></g><g><path style="opacity:0.931" fill="#f9fafd" d="M 728.5,654.5 C 728.5,650.167 728.5,645.833 728.5,641.5C 734.437,637.19 740.77,633.357 747.5,630C 749.396,627.932 751.396,626.099 753.5,624.5C 762.471,621.549 765.804,615.549 763.5,606.5C 771.769,601.537 778.269,603.204 783,611.5C 783.837,615.295 783.504,618.961 782,622.5C 765.486,635.342 747.653,646.008 728.5,654.5 Z" /></g><g><path style="opacity:1" fill="#f5f5fa" d="M 1224.5,606.5 C 1246.94,618.89 1269.27,631.556 1291.5,644.5C 1292.83,664.167 1292.83,683.833 1291.5,703.5C 1269.5,690.833 1247.5,678.167 1225.5,665.5C 1224.5,645.845 1224.17,626.178 1224.5,606.5 Z" /></g><g><path style="opacity:1" fill="#d7ddf4" d="M 639.5,607.5 C 644.557,610.113 649.39,613.113 654,616.5C 654.78,618.387 654.613,620.054 653.5,621.5C 653.762,620.022 653.429,618.689 652.5,617.5C 563.39,669.288 474.057,720.622 384.5,771.5C 378.167,771.5 371.833,771.5 365.5,771.5C 456.189,718.734 547.022,666.067 638,613.5C 638.315,611.414 638.815,609.414 639.5,607.5 Z" /></g><g><path style="opacity:1" fill="#f5f5fa" d="M 1009.5,608.5 C 1031.94,620.89 1054.27,633.556 1076.5,646.5C 1077.83,666.167 1077.83,685.833 1076.5,705.5C 1054.5,692.833 1032.5,680.167 1010.5,667.5C 1009.5,647.845 1009.17,628.178 1009.5,608.5 Z" /></g><g><path style="opacity:1" fill="#c9cef1" d="M 746.5,607.5 C 747.794,608.29 748.961,609.29 750,610.5C 752.429,615.202 753.595,619.868 753.5,624.5C 751.396,626.099 749.396,627.932 747.5,630C 740.77,633.357 734.437,637.19 728.5,641.5C 727.833,641.5 727.167,641.5 726.5,641.5C 727.921,638.991 729.588,636.657 731.5,634.5C 730.597,630.111 728.931,626.111 726.5,622.5C 725.306,621.728 724.306,620.728 723.5,619.5C 724.695,619.678 725.862,620.011 727,620.5C 733.274,617.187 739.441,613.687 745.5,610C 746.252,609.329 746.586,608.496 746.5,607.5 Z" /></g><g><path style="opacity:1" fill="#524cbf" d="M 763.5,606.5 C 765.804,615.549 762.471,621.549 753.5,624.5C 753.595,619.868 752.429,615.202 750,610.5C 748.961,609.29 747.794,608.29 746.5,607.5C 744.77,606.974 743.436,605.974 742.5,604.5C 747.852,599.22 753.852,598.386 760.5,602C 762.141,603.129 763.141,604.629 763.5,606.5 Z" /></g><g><path style="opacity:1" fill="#8c88fb" d="M 1118.5,613.5 C 1122.92,614.86 1124.59,617.693 1123.5,622C 1119.87,622.215 1117.87,620.381 1117.5,616.5C 1117.69,615.416 1118.02,614.416 1118.5,613.5 Z" /></g><g><path style="opacity:0.997" fill="#3d3498" d="M 653.5,621.5 C 644.167,627.167 634.833,632.833 625.5,638.5C 606.236,649.109 587.236,660.109 568.5,671.5C 545.499,683.998 522.833,696.998 500.5,710.5C 456.969,735.765 413.302,760.765 369.5,785.5C 369.325,783.379 369.659,781.379 370.5,779.5C 375.5,777.336 380.167,774.669 384.5,771.5C 474.057,720.622 563.39,669.288 652.5,617.5C 653.429,618.689 653.762,620.022 653.5,621.5 Z" /></g><g><path style="opacity:1" fill="#feb070" d="M 723.5,619.5 C 724.306,620.728 725.306,621.728 726.5,622.5C 656.781,663.53 586.781,704.197 516.5,744.5C 516.167,744.5 515.833,744.5 515.5,744.5C 513.073,742.442 510.407,740.609 507.5,739C 527.896,727.14 548.23,715.307 568.5,703.5C 587.699,692.737 606.699,681.737 625.5,670.5C 638.635,663.432 651.635,656.099 664.5,648.5C 682.473,638.178 700.473,627.845 718.5,617.5C 720.075,618.456 721.742,619.123 723.5,619.5 Z" /></g><g><path style="opacity:1" fill="#e54d68" d="M 1128.5,619.5 C 1133.19,620.506 1135.19,623.506 1134.5,628.5C 1129.4,627.709 1127.4,624.709 1128.5,619.5 Z" /></g><g><path style="opacity:1" fill="#fe826b" d="M 726.5,622.5 C 728.931,626.111 730.597,630.111 731.5,634.5C 661.33,675.086 590.996,715.419 520.5,755.5C 519.559,753.95 518.893,752.284 518.5,750.5C 517.833,748.5 517.167,746.5 516.5,744.5C 586.781,704.197 656.781,663.53 726.5,622.5 Z" /></g><g><path style="opacity:1" fill="#fe8a74" d="M 1138.5,626.5 C 1143.75,626.572 1145.75,629.072 1144.5,634C 1140.09,633.764 1138.09,631.264 1138.5,626.5 Z" /></g><g><path style="opacity:1" fill="#f5f5fa" d="M 1152.5,627.5 C 1175.05,640.362 1197.55,653.362 1220,666.5C 1220.67,686.167 1220.67,705.833 1220,725.5C 1197.67,712.5 1175.33,699.5 1153,686.5C 1152.5,666.836 1152.33,647.169 1152.5,627.5 Z" /></g><g><path style="opacity:0.969" fill="#5753ca" d="M 192.5,632.5 C 197.195,633.056 201.862,634.223 206.5,636C 258.003,666.252 309.67,696.252 361.5,726C 364.309,727.741 367.309,728.908 370.5,729.5C 370.5,731.167 370.5,732.833 370.5,734.5C 370.44,735.043 370.107,735.376 369.5,735.5C 367.471,734.156 365.471,732.823 363.5,731.5C 309.658,700.412 255.658,669.578 201.5,639C 198.364,637.959 195.864,638.793 194,641.5C 192.437,646.718 192.104,652.051 193,657.5C 194.711,663.252 197.211,668.586 200.5,673.5C 200.439,675.592 199.439,677.092 197.5,678C 199.833,680.333 202.167,682.667 204.5,685C 231.393,700.274 258.06,715.774 284.5,731.5C 283.5,733.167 282.167,734.5 280.5,735.5C 255.394,720.441 230.061,705.608 204.5,691C 191.55,680.604 184.217,667.104 182.5,650.5C 182.228,642.367 185.562,636.367 192.5,632.5 Z" /></g><g><path style="opacity:1" fill="#e34966" d="M 731.5,634.5 C 729.588,636.657 727.921,638.991 726.5,641.5C 693.668,659.412 661.335,678.079 629.5,697.5C 591.926,718.406 554.593,739.739 517.5,761.5C 517.062,761.565 516.728,761.399 516.5,761C 518.439,759.568 519.772,757.735 520.5,755.5C 590.996,715.419 661.33,675.086 731.5,634.5 Z" /></g><g><path style="opacity:1" fill="#eaedf8" d="M 625.5,638.5 C 625.5,649.167 625.5,659.833 625.5,670.5C 606.699,681.737 587.699,692.737 568.5,703.5C 568.5,692.833 568.5,682.167 568.5,671.5C 587.236,660.109 606.236,649.109 625.5,638.5 Z" /></g><g><path style="opacity:1" fill="#f4f3fa" d="M 363.5,731.5 C 363.829,744.677 363.495,757.677 362.5,770.5C 344.5,760.5 326.5,750.5 308.5,740.5C 313.403,735.103 319.07,730.603 325.5,727C 326.833,726 326.833,725 325.5,724C 319.323,720.484 313.157,716.984 307,713.5C 300.372,717.563 294.206,722.23 288.5,727.5C 262.888,713.024 237.221,698.524 211.5,684C 207.305,680.97 203.639,677.47 200.5,673.5C 197.211,668.586 194.711,663.252 193,657.5C 192.104,652.051 192.437,646.718 194,641.5C 195.864,638.793 198.364,637.959 201.5,639C 255.658,669.578 309.658,700.412 363.5,731.5 Z" /></g><g><path style="opacity:0.972" fill="#1e1c6b" d="M 837.5,627.5 C 839.169,633.814 842.169,639.481 846.5,644.5C 845.347,650.319 845.181,656.319 846,662.5C 849.397,667.399 853.564,671.399 858.5,674.5C 860.461,676.963 862.628,679.297 865,681.5C 866.252,684.014 866.752,686.68 866.5,689.5C 861.669,712.498 856.336,735.498 850.5,758.5C 849.89,759.391 849.557,760.391 849.5,761.5C 845.032,764.343 841.032,763.676 837.5,759.5C 836.722,746.839 836.556,734.173 837,721.5C 838.168,710.656 839.335,699.823 840.5,689C 839.364,668.503 838.364,648.003 837.5,627.5 Z" /></g><g><path style="opacity:1" fill="#f5f5fa" d="M 1080.5,649.5 C 1103.52,662.097 1126.36,675.097 1149,688.5C 1149.83,708.175 1149.67,727.842 1148.5,747.5C 1126.33,734.248 1104,721.248 1081.5,708.5C 1080.5,688.845 1080.17,669.178 1080.5,649.5 Z" /></g><g><path style="opacity:1" fill="#2e2b82" d="M 846.5,644.5 C 849.19,647.185 852.19,649.518 855.5,651.5C 856.514,652.674 857.847,653.34 859.5,653.5C 859.5,653.833 859.5,654.167 859.5,654.5C 858.509,660.979 858.176,667.646 858.5,674.5C 853.564,671.399 849.397,667.399 846,662.5C 845.181,656.319 845.347,650.319 846.5,644.5 Z" /></g><g><path style="opacity:0.997" fill="#5050bc" d="M 899.5,654.5 C 899.519,690.238 898.185,725.904 895.5,761.5C 894.542,767.744 894.209,774.077 894.5,780.5C 894.343,781.873 894.51,783.207 895,784.5C 898.554,783.042 902.054,781.708 905.5,780.5C 907.167,780.5 908.833,780.5 910.5,780.5C 914.053,781.398 915.719,783.732 915.5,787.5C 914.313,789.072 913.313,790.739 912.5,792.5C 906.052,796.284 899.385,799.618 892.5,802.5C 892.5,800.167 892.5,797.833 892.5,795.5C 891.209,795.737 890.209,795.404 889.5,794.5C 895.542,794.329 896.708,791.996 893,787.5C 890.226,789.552 887.393,789.886 884.5,788.5C 886.495,746.18 887.161,703.513 886.5,660.5C 891.207,659.266 895.54,657.266 899.5,654.5 Z M 894.5,780.5 C 898.167,780.5 901.833,780.5 905.5,780.5C 902.054,781.708 898.554,783.042 895,784.5C 894.51,783.207 894.343,781.873 894.5,780.5 Z" /></g><g><path style="opacity:1" fill="#4342a7" d="M 859.5,654.5 C 862.426,655.698 865.426,656.698 868.5,657.5C 870.961,658.531 873.627,659.198 876.5,659.5C 879.625,660.479 882.958,660.813 886.5,660.5C 887.161,703.513 886.495,746.18 884.5,788.5C 883.5,787.833 882.5,787.167 881.5,786.5C 881.167,784.5 880.833,782.5 880.5,780.5C 879.929,773.975 878.595,767.641 876.5,761.5C 874.667,748.505 873.834,735.505 874,722.5C 871.797,711.3 869.297,700.3 866.5,689.5C 866.752,686.68 866.252,684.014 865,681.5C 862.628,679.297 860.461,676.963 858.5,674.5C 858.176,667.646 858.509,660.979 859.5,654.5 Z" /></g><g><path style="opacity:1" fill="#f5f5fa" d="M 1224.5,669.5 C 1246.94,681.89 1269.27,694.556 1291.5,707.5C 1292.83,727.167 1292.83,746.833 1291.5,766.5C 1269.5,753.833 1247.5,741.167 1225.5,728.5C 1224.5,708.845 1224.17,689.178 1224.5,669.5 Z" /></g><g><path style="opacity:0.979" fill="#e8ebf7" d="M 726.5,641.5 C 727.167,641.5 727.833,641.5 728.5,641.5C 728.5,645.833 728.5,650.167 728.5,654.5C 695.7,674.071 662.7,693.404 629.5,712.5C 629.5,707.5 629.5,702.5 629.5,697.5C 661.335,678.079 693.668,659.412 726.5,641.5 Z" /></g><g><path style="opacity:0.997" fill="#6e69e7" d="M 200.5,673.5 C 203.639,677.47 207.305,680.97 211.5,684C 237.221,698.524 262.888,713.024 288.5,727.5C 287.5,729.167 286.167,730.5 284.5,731.5C 258.06,715.774 231.393,700.274 204.5,685C 202.167,682.667 199.833,680.333 197.5,678C 199.439,677.092 200.439,675.592 200.5,673.5 Z" /></g><g><path style="opacity:1" fill="#e2e6f6" d="M 568.5,671.5 C 568.5,682.167 568.5,692.833 568.5,703.5C 548.23,715.307 527.896,727.14 507.5,739C 510.407,740.609 513.073,742.442 515.5,744.5C 507.71,748.395 500.043,752.228 492.5,756C 494.628,752.87 497.128,750.037 500,747.5C 500.5,735.171 500.667,722.838 500.5,710.5C 522.833,696.998 545.499,683.998 568.5,671.5 Z" /></g><g><path style="opacity:0.975" fill="#dde1f4" d="M 629.5,697.5 C 629.5,702.5 629.5,707.5 629.5,712.5C 597.861,730.655 566.194,748.822 534.5,767C 523.577,770.308 512.744,773.808 502,777.5C 503.58,773.007 505.746,768.674 508.5,764.5C 509.167,764.5 509.5,764.167 509.5,763.5C 512.28,762.922 514.947,762.255 517.5,761.5C 554.593,739.739 591.926,718.406 629.5,697.5 Z" /></g><g><path style="opacity:0.981" fill="#dce2f5" d="M 500.5,710.5 C 500.667,722.838 500.5,735.171 500,747.5C 497.128,750.037 494.628,752.87 492.5,756C 500.043,752.228 507.71,748.395 515.5,744.5C 515.833,744.5 516.167,744.5 516.5,744.5C 517.167,746.5 517.833,748.5 518.5,750.5C 516.473,750.338 514.473,750.505 512.5,751C 506.806,754.179 501.139,757.345 495.5,760.5C 494.855,759.188 493.855,758.188 492.5,757.5C 489.5,759.833 486.833,762.5 484.5,765.5C 486.396,766.466 488.396,766.799 490.5,766.5C 482.062,771.892 473.395,777.059 464.5,782C 437.833,782.333 411.167,782.667 384.5,783C 379.831,786.461 374.831,787.294 369.5,785.5C 413.302,760.765 456.969,735.765 500.5,710.5 Z" /></g><g><path style="opacity:0.973" fill="#fe5b72" d="M 308.5,740.5 C 307.5,740.833 306.833,741.5 306.5,742.5C 304.457,743.579 303.124,745.246 302.5,747.5C 298.497,752.842 294.497,758.175 290.5,763.5C 288.953,757.555 287.62,751.555 286.5,745.5C 280.426,747.472 274.426,749.305 268.5,751C 272.333,745.672 276.333,740.505 280.5,735.5C 282.167,734.5 283.5,733.167 284.5,731.5C 286.167,730.5 287.5,729.167 288.5,727.5C 294.206,722.23 300.372,717.563 307,713.5C 313.157,716.984 319.323,720.484 325.5,724C 326.833,725 326.833,726 325.5,727C 319.07,730.603 313.403,735.103 308.5,740.5 Z" /></g><g><path style="opacity:1" fill="#6d68e8" d="M 308.5,740.5 C 326.5,750.5 344.5,760.5 362.5,770.5C 363.209,771.404 364.209,771.737 365.5,771.5C 371.833,771.5 378.167,771.5 384.5,771.5C 380.167,774.669 375.5,777.336 370.5,779.5C 367.984,779.245 365.65,778.411 363.5,777C 346.167,767 328.833,757 311.5,747C 309.308,745.933 307.642,744.433 306.5,742.5C 306.833,741.5 307.5,740.833 308.5,740.5 Z" /></g><g><path style="opacity:0.939" fill="#5752cc" d="M 306.5,742.5 C 307.642,744.433 309.308,745.933 311.5,747C 328.833,757 346.167,767 363.5,777C 365.65,778.411 367.984,779.245 370.5,779.5C 369.659,781.379 369.325,783.379 369.5,785.5C 347.032,773.098 324.698,760.432 302.5,747.5C 303.124,745.246 304.457,743.579 306.5,742.5 Z" /></g><g><path style="opacity:0.948" fill="#c6cae9" d="M 518.5,750.5 C 518.893,752.284 519.559,753.95 520.5,755.5C 519.772,757.735 518.439,759.568 516.5,761C 516.728,761.399 517.062,761.565 517.5,761.5C 514.947,762.255 512.28,762.922 509.5,763.5C 508.833,763.5 508.5,763.833 508.5,764.5C 504.158,764.739 499.824,765.073 495.5,765.5C 496.833,763.833 496.833,762.167 495.5,760.5C 501.139,757.345 506.806,754.179 512.5,751C 514.473,750.505 516.473,750.338 518.5,750.5 Z" /></g><g><path style="opacity:1" fill="#5352bf" d="M 871.5,761.5 C 868.867,767.824 864.2,771.824 857.5,773.5C 853.474,775.217 849.474,776.883 845.5,778.5C 845.5,775.5 845.5,772.5 845.5,769.5C 851.186,768.797 852.519,766.13 849.5,761.5C 849.557,760.391 849.89,759.391 850.5,758.5C 856.243,755.892 862.243,755.059 868.5,756C 870.671,757.174 871.671,759.007 871.5,761.5 Z" /></g><g><path style="opacity:0.947" fill="#f1f0f7" d="M 837.5,759.5 C 841.032,763.676 845.032,764.343 849.5,761.5C 852.519,766.13 851.186,768.797 845.5,769.5C 843.116,767.115 840.45,765.115 837.5,763.5C 837.5,762.167 837.5,760.833 837.5,759.5 Z" /></g><g><path style="opacity:0.881" fill="#fafbfd" d="M 895.5,761.5 C 911.17,761.333 926.837,761.5 942.5,762C 943.476,768.076 943.81,774.242 943.5,780.5C 932.5,780.5 921.5,780.5 910.5,780.5C 908.833,780.5 907.167,780.5 905.5,780.5C 901.833,780.5 898.167,780.5 894.5,780.5C 894.209,774.077 894.542,767.744 895.5,761.5 Z" /></g><g><path style="opacity:1" fill="#5a53be" d="M 495.5,760.5 C 496.833,762.167 496.833,763.833 495.5,765.5C 493.958,766.301 492.292,766.634 490.5,766.5C 488.396,766.799 486.396,766.466 484.5,765.5C 486.833,762.5 489.5,759.833 492.5,757.5C 493.855,758.188 494.855,759.188 495.5,760.5 Z" /></g><g><path style="opacity:1" fill="#393693" d="M 837.5,763.5 C 840.45,765.115 843.116,767.115 845.5,769.5C 845.5,772.5 845.5,775.5 845.5,778.5C 849.474,776.883 853.474,775.217 857.5,773.5C 854.167,775.833 850.833,778.167 847.5,780.5C 834.642,780.451 831.309,774.784 837.5,763.5 Z" /></g><g><path style="opacity:0.993" fill="#d6d9ed" d="M 871.5,761.5 C 873.167,761.5 874.833,761.5 876.5,761.5C 878.595,767.641 879.929,773.975 880.5,780.5C 869.5,780.5 858.5,780.5 847.5,780.5C 850.833,778.167 854.167,775.833 857.5,773.5C 864.2,771.824 868.867,767.824 871.5,761.5 Z" /></g><g><path style="opacity:0.925" fill="#e2e4f2" d="M 915.5,787.5 C 921.167,787.5 926.833,787.5 932.5,787.5C 931.94,794.121 932.607,800.455 934.5,806.5C 920.167,806.5 905.833,806.5 891.5,806.5C 898.672,802.081 905.672,797.415 912.5,792.5C 913.313,790.739 914.313,789.072 915.5,787.5 Z" /></g><g><path style="opacity:0.918" fill="#f9f9fc" d="M 932.5,787.5 C 950.5,787.5 968.5,787.5 986.5,787.5C 986.5,793.833 986.5,800.167 986.5,806.5C 969.167,806.5 951.833,806.5 934.5,806.5C 932.607,800.455 931.94,794.121 932.5,787.5 Z" /></g><g><path style="opacity:1" fill="#f5f4fa" d="M 881.5,786.5 C 882.5,787.167 883.5,787.833 884.5,788.5C 887.393,789.886 890.226,789.552 893,787.5C 896.708,791.996 895.542,794.329 889.5,794.5C 886.545,792.878 883.878,790.878 881.5,788.5C 881.5,787.833 881.5,787.167 881.5,786.5 Z" /></g><g><path style="opacity:0.941" fill="#383593" d="M 881.5,788.5 C 883.878,790.878 886.545,792.878 889.5,794.5C 890.209,795.404 891.209,795.737 892.5,795.5C 892.5,797.833 892.5,800.167 892.5,802.5C 899.385,799.618 906.052,796.284 912.5,792.5C 905.672,797.415 898.672,802.081 891.5,806.5C 878.349,806.008 875.016,800.008 881.5,788.5 Z" /></g><g><path style="opacity:0.988" fill="#807dfa" d="M 712.5,803.5 C 712.261,805.467 712.594,807.301 713.5,809C 717.152,809.499 720.818,809.665 724.5,809.5C 729.067,809.744 733.401,810.91 737.5,813C 740.2,814.857 741.866,817.357 742.5,820.5C 742.821,825.695 742.487,830.695 741.5,835.5C 741.665,832.482 741.498,829.482 741,826.5C 737.083,830.709 732.25,833.209 726.5,834C 707.503,834.5 688.503,834.667 669.5,834.5C 669.333,823.162 669.5,811.828 670,800.5C 672.638,796.872 676.138,794.372 680.5,793C 689.911,790.401 698.911,791.401 707.5,796C 710.2,797.857 711.866,800.357 712.5,803.5 Z" /></g><g><path style="opacity:0.833" fill="#d9dcf0" d="M 712.5,803.5 C 717.098,804.465 721.098,806.465 724.5,809.5C 720.818,809.665 717.152,809.499 713.5,809C 712.594,807.301 712.261,805.467 712.5,803.5 Z" /></g><g><path style="opacity:0.966" fill="#f5f5fa" d="M 742.5,820.5 C 747.98,821.491 752.48,824.157 756,828.5C 757.369,833.437 756.203,837.604 752.5,841C 744.332,845.058 735.665,846.558 726.5,845.5C 730.525,843.98 734.525,842.146 738.5,840C 739.883,838.729 740.883,837.229 741.5,835.5C 742.487,830.695 742.821,825.695 742.5,820.5 Z" /></g><g><path style="opacity:0.991" fill="#5551c8" d="M 741.5,835.5 C 740.883,837.229 739.883,838.729 738.5,840C 734.525,842.146 730.525,843.98 726.5,845.5C 707.5,845.5 688.5,845.5 669.5,845.5C 669.5,841.833 669.5,838.167 669.5,834.5C 688.503,834.667 707.503,834.5 726.5,834C 732.25,833.209 737.083,830.709 741,826.5C 741.498,829.482 741.665,832.482 741.5,835.5 Z" /></g><g><path style="opacity:0.991" fill="#f0f0f6" d="M 551.5,888.5 C 550.023,890.807 548.023,892.64 545.5,894C 525.67,905.081 506.003,916.414 486.5,928C 482.121,930.694 477.454,932.527 472.5,933.5C 467.099,934.034 462.099,932.867 457.5,930C 436.167,917.667 414.833,905.333 393.5,893C 390.977,891.64 388.977,889.807 387.5,887.5C 388.143,882.686 390.809,879.52 395.5,878C 417.876,864.812 440.542,852.146 463.5,840C 471.521,838.561 478.854,840.227 485.5,845C 505.003,856.586 524.67,867.919 544.5,879C 548.643,880.957 550.976,884.124 551.5,888.5 Z" /></g><g><path style="opacity:1" fill="#cfd3f7" d="M 438.5,875.5 C 443.544,875.173 448.544,875.506 453.5,876.5C 452.184,880.429 451.184,884.429 450.5,888.5C 471.493,886.989 492.493,885.656 513.5,884.5C 514.092,887.127 514.425,889.794 514.5,892.5C 487.824,893.989 461.157,895.656 434.5,897.5C 435.514,890.111 436.847,882.778 438.5,875.5 Z" /></g><g><path style="opacity:0.988" fill="#cdd2f7" d="M 387.5,887.5 C 388.977,889.807 390.977,891.64 393.5,893C 414.833,905.333 436.167,917.667 457.5,930C 462.099,932.867 467.099,934.034 472.5,933.5C 471.432,934.434 470.099,934.768 468.5,934.5C 469.12,940.926 468.453,946.926 466.5,952.5C 463.689,952.174 461.022,951.341 458.5,950C 436.167,937 413.833,924 391.5,911C 389.93,909.603 388.596,908.103 387.5,906.5C 387.5,900.167 387.5,893.833 387.5,887.5 Z" /></g><g><path style="opacity:1" fill="#bbbfe6" d="M 551.5,888.5 C 551.5,889.5 551.5,890.5 551.5,891.5C 551.5,891.833 551.5,892.167 551.5,892.5C 551.333,904.164 550.999,915.831 550.5,927.5C 550.666,921.491 550.499,915.491 550,909.5C 548.833,910.667 547.667,911.833 546.5,913C 523.778,925.355 501.444,938.188 479.5,951.5C 475.326,953.064 470.993,953.731 466.5,953.5C 466.5,953.167 466.5,952.833 466.5,952.5C 468.453,946.926 469.12,940.926 468.5,934.5C 470.099,934.768 471.432,934.434 472.5,933.5C 477.454,932.527 482.121,930.694 486.5,928C 506.003,916.414 525.67,905.081 545.5,894C 548.023,892.64 550.023,890.807 551.5,888.5 Z" /></g><g><path style="opacity:0.991" fill="#eff1fa" d="M 551.5,892.5 C 551.5,892.167 551.5,891.833 551.5,891.5C 562.5,891.5 573.5,891.5 584.5,891.5C 584.5,924.833 584.5,958.167 584.5,991.5C 574.167,991.5 563.833,991.5 553.5,991.5C 554.16,958.15 553.493,925.15 551.5,892.5 Z" /></g><g><path style="opacity:0.99" fill="#f6f7fc" d="M 584.5,891.5 C 591.833,891.5 599.167,891.5 606.5,891.5C 607.149,925.056 606.482,958.389 604.5,991.5C 597.833,991.5 591.167,991.5 584.5,991.5C 584.5,958.167 584.5,924.833 584.5,891.5 Z" /></g><g><path style="opacity:0.966" fill="#fbfcfe" d="M 606.5,891.5 C 615.5,891.5 624.5,891.5 633.5,891.5C 633.5,924.5 633.5,957.5 633.5,990.5C 623.854,991.287 614.188,991.62 604.5,991.5C 606.482,958.389 607.149,925.056 606.5,891.5 Z" /></g><g><path style="opacity:1" fill="#feb070" d="M 1005.5,915.5 C 1005.5,915.833 1005.5,916.167 1005.5,916.5C 993.833,923.167 982.167,929.833 970.5,936.5C 959.663,929.914 948.663,923.581 937.5,917.5C 937.158,916.662 936.492,916.328 935.5,916.5C 946.937,909.274 958.604,902.274 970.5,895.5C 982.357,901.926 994.024,908.592 1005.5,915.5 Z" /></g><g><path style="opacity:0.998" fill="#807dfa" d="M 387.5,906.5 C 388.596,908.103 389.93,909.603 391.5,911C 413.833,924 436.167,937 458.5,950C 461.022,951.341 463.689,952.174 466.5,952.5C 466.5,952.833 466.5,953.167 466.5,953.5C 465.51,959.31 465.177,965.31 465.5,971.5C 466.791,971.263 467.791,971.596 468.5,972.5C 463.546,971.527 458.879,969.694 454.5,967C 433.833,955 413.167,943 392.5,931C 390.598,929.27 388.931,927.437 387.5,925.5C 387.5,919.167 387.5,912.833 387.5,906.5 Z" /></g><g><path style="opacity:1" fill="#433faf" d="M 550.5,927.5 C 550.5,927.833 550.5,928.167 550.5,928.5C 527.495,942.671 504.162,956.338 480.5,969.5C 479.51,963.69 479.177,957.69 479.5,951.5C 501.444,938.188 523.778,925.355 546.5,913C 547.667,911.833 548.833,910.667 550,909.5C 550.499,915.491 550.666,921.491 550.5,927.5 Z" /></g><g><path style="opacity:0.98" fill="#fec8a0" d="M 1296.5,936.5 C 1299.58,940.775 1302.08,945.442 1304,950.5C 1304.5,954.486 1304.67,958.486 1304.5,962.5C 1298.43,975.23 1288.77,984.23 1275.5,989.5C 1268.05,992.318 1260.38,994.318 1252.5,995.5C 1242.2,996.4 1231.87,996.733 1221.5,996.5C 1210,995.335 1199,992.335 1188.5,987.5C 1182.45,984.378 1176.95,980.378 1172,975.5C 1168.06,970.288 1165.23,964.621 1163.5,958.5C 1163.5,948.672 1167.16,940.506 1174.5,934C 1192.14,921.127 1211.97,914.96 1234,915.5C 1250.22,915.211 1265.72,918.378 1280.5,925C 1286.39,928.107 1291.73,931.941 1296.5,936.5 Z" /></g><g><path style="opacity:0.8" fill="#f08099" d="M 935.5,916.5 C 936.492,916.328 937.158,916.662 937.5,917.5C 936.506,926.652 936.173,935.985 936.5,945.5C 935.833,945.5 935.5,945.167 935.5,944.5C 935.5,935.167 935.5,925.833 935.5,916.5 Z" /></g><g><path style="opacity:1" fill="#fe5a72" d="M 937.5,917.5 C 948.663,923.581 959.663,929.914 970.5,936.5C 970.829,949.344 970.495,962.011 969.5,974.5C 966.661,972.58 963.661,970.913 960.5,969.5C 960.5,966.5 960.5,963.5 960.5,960.5C 952.873,955.013 944.873,950.013 936.5,945.5C 936.173,935.985 936.506,926.652 937.5,917.5 Z" /></g><g><path style="opacity:1" fill="#c62e52" d="M 1005.5,916.5 C 1005.67,929.504 1005.5,942.504 1005,955.5C 993.391,962.052 981.891,968.719 970.5,975.5C 969.833,975.5 969.5,975.167 969.5,974.5C 970.495,962.011 970.829,949.344 970.5,936.5C 982.167,929.833 993.833,923.167 1005.5,916.5 Z" /></g><g><path style="opacity:0.987" fill="#6a66e6" d="M 915.5,940.5 C 903.674,946.579 892.007,952.912 880.5,959.5C 868.671,953.086 857.004,946.42 845.5,939.5C 856.979,932.591 868.645,925.925 880.5,919.5C 893.009,925.394 904.675,932.394 915.5,940.5 Z" /></g><g><path style="opacity:1" fill="#ed5963" d="M 1230.5,923.5 C 1246.82,922.829 1262.15,926.329 1276.5,934C 1281.33,937.5 1285.5,941.667 1289,946.5C 1290.76,949.608 1291.59,952.941 1291.5,956.5C 1287.04,945.879 1279.38,938.379 1268.5,934C 1254.36,928.273 1239.7,926.107 1224.5,927.5C 1224.5,926.5 1224.5,925.5 1224.5,924.5C 1226.74,924.795 1228.74,924.461 1230.5,923.5 Z" /></g><g><path style="opacity:1" fill="#f9786a" d="M 1230.5,923.5 C 1228.74,924.461 1226.74,924.795 1224.5,924.5C 1224.5,925.5 1224.5,926.5 1224.5,927.5C 1209.16,928.995 1195.66,934.661 1184,944.5C 1181.01,948.157 1178.84,952.157 1177.5,956.5C 1177.2,952.089 1178.37,948.089 1181,944.5C 1194.41,930.413 1210.91,923.413 1230.5,923.5 Z" /></g><g><path style="opacity:1" fill="#feae6d" d="M 1224.5,927.5 C 1239.7,926.107 1254.36,928.273 1268.5,934C 1279.38,938.379 1287.04,945.879 1291.5,956.5C 1290.35,966.499 1285.35,973.999 1276.5,979C 1248.48,992.946 1220.48,992.946 1192.5,979C 1188.37,975.869 1184.53,972.369 1181,968.5C 1178.71,964.813 1177.55,960.813 1177.5,956.5C 1178.84,952.157 1181.01,948.157 1184,944.5C 1195.66,934.661 1209.16,928.995 1224.5,927.5 Z" /></g><g><path style="opacity:0.982" fill="#ccd1f7" d="M 387.5,925.5 C 388.931,927.437 390.598,929.27 392.5,931C 413.167,943 433.833,955 454.5,967C 458.879,969.694 463.546,971.527 468.5,972.5C 470.167,972.5 471.833,972.5 473.5,972.5C 474.5,972.5 475.5,972.5 476.5,972.5C 476.5,978.5 476.5,984.5 476.5,990.5C 475.5,991.167 474.5,991.833 473.5,992.5C 467.811,992.911 462.478,991.744 457.5,989C 435.167,976 412.833,963 390.5,950C 389.107,948.829 388.273,947.329 388,945.5C 387.5,938.842 387.334,932.175 387.5,925.5 Z" /></g><g><path style="opacity:1" fill="#babfe6" d="M 550.5,928.5 C 550.666,935.175 550.5,941.842 550,948.5C 543.928,952.757 537.761,956.757 531.5,960.5C 515.392,969.39 499.392,978.557 483.5,988C 481.35,989.411 479.016,990.245 476.5,990.5C 476.5,984.5 476.5,978.5 476.5,972.5C 475.5,972.5 474.5,972.5 473.5,972.5C 475.888,971.651 478.221,970.651 480.5,969.5C 504.162,956.338 527.495,942.671 550.5,928.5 Z" /></g><g><path style="opacity:1" fill="#fec69e" d="M 1267.5,941.5 C 1264.15,942.123 1263.15,943.79 1264.5,946.5C 1265.83,948.5 1265.83,950.5 1264.5,952.5C 1263.58,955.089 1261.91,957.089 1259.5,958.5C 1257.25,957.585 1255.25,956.252 1253.5,954.5C 1254.19,953.482 1254.86,952.482 1255.5,951.5C 1255.71,949.856 1255.38,948.356 1254.5,947C 1248.98,944.135 1243.32,943.802 1237.5,946C 1235.39,947.264 1234.39,949.097 1234.5,951.5C 1237.02,953.701 1239.52,956.034 1242,958.5C 1243.66,960.786 1243.83,963.119 1242.5,965.5C 1240.79,969.379 1237.79,971.879 1233.5,973C 1227.05,974.801 1220.55,974.968 1214,973.5C 1211.56,973.482 1209.39,974.149 1207.5,975.5C 1205.36,974.597 1203.36,973.431 1201.5,972C 1203.06,971.059 1204.39,969.892 1205.5,968.5C 1201.51,962.753 1202.68,958.086 1209,954.5C 1211.38,955.715 1213.21,957.381 1214.5,959.5C 1212.4,960.879 1212.07,962.545 1213.5,964.5C 1215.71,967.852 1218.88,969.185 1223,968.5C 1227.34,969.004 1230.84,967.67 1233.5,964.5C 1233.66,963.127 1233.49,961.793 1233,960.5C 1229.64,958.305 1226.81,955.638 1224.5,952.5C 1224.07,949.138 1225.07,946.305 1227.5,944C 1236.23,938.216 1245.56,937.049 1255.5,940.5C 1259.86,936.508 1263.86,936.841 1267.5,941.5 Z" /></g><g><path style="opacity:0.993" fill="#5652ca" d="M 845.5,939.5 C 857.004,946.42 868.671,953.086 880.5,959.5C 880.5,1001.17 880.5,1042.83 880.5,1084.5C 880.167,1084.5 879.833,1084.5 879.5,1084.5C 876.669,1082.58 873.669,1080.92 870.5,1079.5C 870.666,1069.16 870.5,1058.83 870,1048.5C 869.617,1047.94 869.117,1047.61 868.5,1047.5C 860.298,1043.57 852.631,1038.91 845.5,1033.5C 845.5,1002.17 845.5,970.833 845.5,939.5 Z" /></g><g><path style="opacity:0.998" fill="#423ead" d="M 915.5,940.5 C 915.5,941.833 915.5,943.167 915.5,944.5C 915.5,954.5 915.5,964.5 915.5,974.5C 915.5,981.5 915.5,988.5 915.5,995.5C 915.5,1014.83 915.5,1034.17 915.5,1053.5C 915.824,1057.55 915.491,1061.55 914.5,1065.5C 911.432,1066.69 908.765,1068.36 906.5,1070.5C 902.665,1072.25 898.999,1074.25 895.5,1076.5C 890.483,1079.2 885.483,1081.86 880.5,1084.5C 880.5,1042.83 880.5,1001.17 880.5,959.5C 892.007,952.912 903.674,946.579 915.5,940.5 Z" /></g><g><path style="opacity:1" fill="#feaf6f" d="M 935.5,944.5 C 935.5,945.167 935.833,945.5 936.5,945.5C 944.873,950.013 952.873,955.013 960.5,960.5C 948.674,966.579 937.007,972.912 925.5,979.5C 922.14,977.82 918.807,976.153 915.5,974.5C 915.5,964.5 915.5,954.5 915.5,944.5C 918.839,942.823 922.173,941.156 925.5,939.5C 929.134,940.65 932.467,942.317 935.5,944.5 Z" /></g><g><path style="opacity:0.992" fill="#eaebf4" d="M 1296.5,936.5 C 1306.98,939.1 1316.64,943.434 1325.5,949.5C 1325.5,966.833 1325.5,984.167 1325.5,1001.5C 1317.73,1007.21 1309.06,1011.21 1299.5,1013.5C 1299.5,1006.5 1299.5,999.5 1299.5,992.5C 1301.25,989.337 1302.75,986.004 1304,982.5C 1304.5,975.842 1304.67,969.175 1304.5,962.5C 1304.67,958.486 1304.5,954.486 1304,950.5C 1302.08,945.442 1299.58,940.775 1296.5,936.5 Z" /></g><g><path style="opacity:0.969" fill="#f5f5fa" d="M 193.5,956.5 C 185.032,960.901 176.699,965.568 168.5,970.5C 160.759,965.434 152.759,960.768 144.5,956.5C 152.146,951.339 160.146,946.673 168.5,942.5C 177.343,946.418 185.677,951.084 193.5,956.5 Z" /></g><g><path style="opacity:1" fill="#e64c60" d="M 1267.5,941.5 C 1268.08,944.285 1267.08,945.952 1264.5,946.5C 1263.15,943.79 1264.15,942.123 1267.5,941.5 Z" /></g><g><path style="opacity:1" fill="#e5465d" d="M 1255.5,951.5 C 1248.47,947.505 1241.47,947.505 1234.5,951.5C 1234.39,949.097 1235.39,947.264 1237.5,946C 1243.32,943.802 1248.98,944.135 1254.5,947C 1255.38,948.356 1255.71,949.856 1255.5,951.5 Z" /></g><g><path style="opacity:0.998" fill="#e7eaf8" d="M 551.5,892.5 C 553.493,925.15 554.16,958.15 553.5,991.5C 546.167,991.5 538.833,991.5 531.5,991.5C 531.5,981.167 531.5,970.833 531.5,960.5C 537.761,956.757 543.928,952.757 550,948.5C 550.5,941.842 550.666,935.175 550.5,928.5C 550.5,928.167 550.5,927.833 550.5,927.5C 550.999,915.831 551.333,904.164 551.5,892.5 Z" /></g><g><path style="opacity:1" fill="#5855ca" d="M 479.5,951.5 C 479.177,957.69 479.51,963.69 480.5,969.5C 478.221,970.651 475.888,971.651 473.5,972.5C 471.833,972.5 470.167,972.5 468.5,972.5C 467.791,971.596 466.791,971.263 465.5,971.5C 465.177,965.31 465.51,959.31 466.5,953.5C 470.993,953.731 475.326,953.064 479.5,951.5 Z" /></g><g><path style="opacity:1" fill="#ff896b" d="M 1224.5,952.5 C 1226.81,955.638 1229.64,958.305 1233,960.5C 1233.49,961.793 1233.66,963.127 1233.5,964.5C 1228.18,962.185 1225.18,958.185 1224.5,952.5 Z" /></g><g><path style="opacity:1" fill="#e5495e" d="M 1264.5,952.5 C 1265.6,956.668 1264.1,960.002 1260,962.5C 1259.51,961.207 1259.34,959.873 1259.5,958.5C 1261.91,957.089 1263.58,955.089 1264.5,952.5 Z" /></g><g><path style="opacity:0.983" fill="#bbc0e6" d="M 193.5,956.5 C 193.5,960.833 193.5,965.167 193.5,969.5C 192.674,974.316 192.174,979.316 192,984.5C 184.062,988.634 176.562,993.301 169.5,998.5C 169.167,998.5 168.833,998.5 168.5,998.5C 168.5,989.167 168.5,979.833 168.5,970.5C 176.699,965.568 185.032,960.901 193.5,956.5 Z" /></g><g><path style="opacity:1" fill="#bbbde0" d="M 1005.5,915.5 C 1006.5,940.995 1006.83,966.661 1006.5,992.5C 1005.83,999.345 1005.17,1006.34 1004.5,1013.5C 993.144,1019.84 981.811,1026.18 970.5,1032.5C 970.5,1013.5 970.5,994.5 970.5,975.5C 981.891,968.719 993.391,962.052 1005,955.5C 1005.5,942.504 1005.67,929.504 1005.5,916.5C 1005.5,916.167 1005.5,915.833 1005.5,915.5 Z" /></g><g><path style="opacity:0.977" fill="#ced3f8" d="M 144.5,956.5 C 152.759,960.768 160.759,965.434 168.5,970.5C 168.5,979.833 168.5,989.167 168.5,998.5C 160.612,993.971 152.778,989.304 145,984.5C 144.5,975.173 144.334,965.839 144.5,956.5 Z" /></g><g><path style="opacity:0.902" fill="#f9fafc" d="M 1325.5,949.5 C 1341.21,960.449 1344.71,974.449 1336,991.5C 1333.29,995.712 1329.79,999.046 1325.5,1001.5C 1325.5,984.167 1325.5,966.833 1325.5,949.5 Z" /></g><g><path style="opacity:1" fill="#e75060" d="M 1214.5,959.5 C 1215.77,961.357 1215.43,963.024 1213.5,964.5C 1212.07,962.545 1212.4,960.879 1214.5,959.5 Z" /></g><g><path style="opacity:1" fill="#c62f53" d="M 960.5,960.5 C 960.5,963.5 960.5,966.5 960.5,969.5C 960.5,973.5 960.5,977.5 960.5,981.5C 948.833,988.167 937.167,994.833 925.5,1001.5C 924.833,1001.5 924.5,1001.17 924.5,1000.5C 925.491,993.687 925.825,986.687 925.5,979.5C 937.007,972.912 948.674,966.579 960.5,960.5 Z" /></g><g><path style="opacity:1" fill="#dde2f6" d="M 531.5,960.5 C 531.5,970.833 531.5,981.167 531.5,991.5C 512.174,992.175 492.841,992.508 473.5,992.5C 474.5,991.833 475.5,991.167 476.5,990.5C 479.016,990.245 481.35,989.411 483.5,988C 499.392,978.557 515.392,969.39 531.5,960.5 Z" /></g><g><path style="opacity:0.977" fill="#eaebf5" d="M 193.5,969.5 C 198.363,969.181 203.03,969.514 207.5,970.5C 206.506,979.652 206.173,988.985 206.5,998.5C 194.167,998.5 181.833,998.5 169.5,998.5C 176.562,993.301 184.062,988.634 192,984.5C 192.174,979.316 192.674,974.316 193.5,969.5 Z" /></g><g><path style="opacity:1" fill="#ced1f3" d="M 960.5,969.5 C 963.661,970.913 966.661,972.58 969.5,974.5C 969.5,975.167 969.833,975.5 970.5,975.5C 970.5,994.5 970.5,1013.5 970.5,1032.5C 967.167,1030.83 963.833,1029.17 960.5,1027.5C 960.5,1012.17 960.5,996.833 960.5,981.5C 960.5,977.5 960.5,973.5 960.5,969.5 Z" /></g><g><path style="opacity:0.871" fill="#f9fafc" d="M 207.5,970.5 C 215.647,974.405 223.313,979.072 230.5,984.5C 222.472,989.178 214.472,993.845 206.5,998.5C 206.173,988.985 206.506,979.652 207.5,970.5 Z" /></g><g><path style="opacity:1" fill="#fe5b72" d="M 915.5,974.5 C 918.807,976.153 922.14,977.82 925.5,979.5C 925.825,986.687 925.491,993.687 924.5,1000.5C 921.339,999.087 918.339,997.42 915.5,995.5C 915.5,988.5 915.5,981.5 915.5,974.5 Z" /></g><g><path style="opacity:1" fill="#f16463" d="M 1242.5,965.5 C 1243.71,967.435 1243.54,969.435 1242,971.5C 1236.55,976.657 1230.05,978.99 1222.5,978.5C 1219.31,978.379 1216.14,978.046 1213,977.5C 1211.19,977.493 1209.69,978.16 1208.5,979.5C 1207.57,978.311 1207.24,976.978 1207.5,975.5C 1209.39,974.149 1211.56,973.482 1214,973.5C 1220.55,974.968 1227.05,974.801 1233.5,973C 1237.79,971.879 1240.79,969.379 1242.5,965.5 Z" /></g><g><path style="opacity:0.984" fill="#fc7b68" d="M 1163.5,958.5 C 1165.23,964.621 1168.06,970.288 1172,975.5C 1176.95,980.378 1182.45,984.378 1188.5,987.5C 1187.51,993.979 1187.18,1000.65 1187.5,1007.5C 1167.03,997.56 1159.03,981.227 1163.5,958.5 Z" /></g><g><path style="opacity:1" fill="#bbbee1" d="M 960.5,981.5 C 960.5,996.833 960.5,1012.17 960.5,1027.5C 960.824,1031.55 960.491,1035.55 959.5,1039.5C 956.769,1041.19 954.102,1042.86 951.5,1044.5C 947.034,1046.57 942.701,1048.9 938.5,1051.5C 934.299,1054.1 929.966,1056.43 925.5,1058.5C 925.5,1039.5 925.5,1020.5 925.5,1001.5C 937.167,994.833 948.833,988.167 960.5,981.5 Z" /></g><g><path style="opacity:1" fill="#e6485f" d="M 1304.5,962.5 C 1304.67,969.175 1304.5,975.842 1304,982.5C 1302.75,986.004 1301.25,989.337 1299.5,992.5C 1292.9,1000.13 1284.9,1005.8 1275.5,1009.5C 1275.5,1002.83 1275.5,996.167 1275.5,989.5C 1288.77,984.23 1298.43,975.23 1304.5,962.5 Z" /></g><g><path style="opacity:0.956" fill="#fdfefe" d="M 1054.5,992.5 C 1061.17,992.334 1067.84,992.5 1074.5,993C 1085.83,999.667 1097.17,1006.33 1108.5,1013C 1097.17,1019.67 1085.83,1026.33 1074.5,1033C 1068.84,1033.5 1063.18,1033.67 1057.5,1033.5C 1056.79,1032.6 1055.79,1032.26 1054.5,1032.5C 1054.5,1019.17 1054.5,1005.83 1054.5,992.5 Z" /></g><g><path style="opacity:0.983" fill="#f66e66" d="M 1188.5,987.5 C 1199,992.335 1210,995.335 1221.5,996.5C 1221.21,1003.26 1221.54,1009.92 1222.5,1016.5C 1210.21,1015.84 1198.54,1012.84 1187.5,1007.5C 1187.18,1000.65 1187.51,993.979 1188.5,987.5 Z" /></g><g><path style="opacity:1" fill="#eb5361" d="M 1275.5,989.5 C 1275.5,996.167 1275.5,1002.83 1275.5,1009.5C 1267.12,1012.76 1258.46,1014.76 1249.5,1015.5C 1249.5,1009.17 1249.5,1002.83 1249.5,996.5C 1250.79,996.737 1251.79,996.404 1252.5,995.5C 1260.38,994.318 1268.05,992.318 1275.5,989.5 Z" /></g><g><path style="opacity:1" fill="#ced1f3" d="M 915.5,995.5 C 918.339,997.42 921.339,999.087 924.5,1000.5C 924.5,1001.17 924.833,1001.5 925.5,1001.5C 925.5,1020.5 925.5,1039.5 925.5,1058.5C 922.14,1056.82 918.807,1055.15 915.5,1053.5C 915.5,1034.17 915.5,1014.83 915.5,995.5 Z" /></g><g><path style="opacity:0.98" fill="#d7d7e9" d="M 1299.5,992.5 C 1299.5,999.5 1299.5,1006.5 1299.5,1013.5C 1293.33,1015.31 1286.99,1016.47 1280.5,1017C 1267.5,1017.5 1254.5,1017.67 1241.5,1017.5C 1244.17,1016.83 1246.83,1016.17 1249.5,1015.5C 1258.46,1014.76 1267.12,1012.76 1275.5,1009.5C 1284.9,1005.8 1292.9,1000.13 1299.5,992.5 Z" /></g><g><path style="opacity:0.988" fill="#f06165" d="M 1252.5,995.5 C 1251.79,996.404 1250.79,996.737 1249.5,996.5C 1249.5,1002.83 1249.5,1009.17 1249.5,1015.5C 1246.83,1016.17 1244.17,1016.83 1241.5,1017.5C 1234.98,1017.82 1228.64,1017.49 1222.5,1016.5C 1221.54,1009.92 1221.21,1003.26 1221.5,996.5C 1231.87,996.733 1242.2,996.4 1252.5,995.5 Z" /></g><g><path style="opacity:0.989" fill="#f4f4f9" d="M 845.5,1033.5 C 852.631,1038.91 860.298,1043.57 868.5,1047.5C 867.969,1049.62 866.635,1051.12 864.5,1052C 854.779,1057.52 845.112,1063.02 835.5,1068.5C 823.993,1061.91 812.326,1055.58 800.5,1049.5C 801.642,1047.57 803.308,1046.07 805.5,1045C 814.833,1039.67 824.167,1034.33 833.5,1029C 834.833,1028.33 836.167,1028.33 837.5,1029C 840.032,1030.77 842.699,1032.27 845.5,1033.5 Z" /></g><g><path style="opacity:1" fill="#dee0ef" d="M 1006.5,992.5 C 1010.5,992.5 1014.5,992.5 1018.5,992.5C 1018.5,1005.83 1018.5,1019.17 1018.5,1032.5C 1003.51,1033.31 988.515,1033.64 973.5,1033.5C 973.5,1037.17 973.5,1040.83 973.5,1044.5C 966.167,1044.5 958.833,1044.5 951.5,1044.5C 954.102,1042.86 956.769,1041.19 959.5,1039.5C 960.491,1035.55 960.824,1031.55 960.5,1027.5C 963.833,1029.17 967.167,1030.83 970.5,1032.5C 981.811,1026.18 993.144,1019.84 1004.5,1013.5C 1005.17,1006.34 1005.83,999.345 1006.5,992.5 Z" /></g><g><path style="opacity:0.958" fill="#fdfefe" d="M 1055.5,1033.5 C 1057.77,1034.98 1060.1,1036.48 1062.5,1038C 1063.83,1038.67 1063.83,1039.33 1062.5,1040C 1051.34,1046.08 1040.34,1052.41 1029.5,1059C 1022.84,1059.5 1016.17,1059.67 1009.5,1059.5C 1009.5,1050.83 1009.5,1042.17 1009.5,1033.5C 1024.89,1033.23 1040.22,1033.23 1055.5,1033.5 Z" /></g><g><path style="opacity:0.99" fill="#f2f3f9" d="M 1018.5,992.5 C 1030.5,992.5 1042.5,992.5 1054.5,992.5C 1054.5,1005.83 1054.5,1019.17 1054.5,1032.5C 1055.79,1032.26 1056.79,1032.6 1057.5,1033.5C 1056.83,1033.5 1056.17,1033.5 1055.5,1033.5C 1040.22,1033.23 1024.89,1033.23 1009.5,1033.5C 1009.5,1042.17 1009.5,1050.83 1009.5,1059.5C 1007.83,1059.5 1006.17,1059.5 1004.5,1059.5C 995.236,1055.2 986.236,1050.37 977.5,1045C 976.207,1044.51 974.873,1044.34 973.5,1044.5C 973.5,1040.83 973.5,1037.17 973.5,1033.5C 988.515,1033.64 1003.51,1033.31 1018.5,1032.5C 1018.5,1019.17 1018.5,1005.83 1018.5,992.5 Z" /></g><g><path style="opacity:0.989" fill="#ced2f4" d="M 800.5,1049.5 C 812.326,1055.58 823.993,1061.91 835.5,1068.5C 835.5,1082.5 835.5,1096.5 835.5,1110.5C 835.5,1110.83 835.5,1111.17 835.5,1111.5C 824.109,1104.72 812.609,1098.05 801,1091.5C 800.5,1077.5 800.333,1063.5 800.5,1049.5 Z" /></g><g><path style="opacity:1" fill="#babee2" d="M 868.5,1047.5 C 869.117,1047.61 869.617,1047.94 870,1048.5C 870.5,1058.83 870.666,1069.16 870.5,1079.5C 870.665,1083.18 870.499,1086.85 870,1090.5C 858.691,1097.57 847.191,1104.24 835.5,1110.5C 835.5,1096.5 835.5,1082.5 835.5,1068.5C 845.112,1063.02 854.779,1057.52 864.5,1052C 866.635,1051.12 867.969,1049.62 868.5,1047.5 Z" /></g><g><path style="opacity:1" fill="#e6e9f3" d="M 938.5,1051.5 C 938.832,1060.86 938.498,1070.19 937.5,1079.5C 932.372,1076.87 927.372,1074.03 922.5,1071C 917.177,1070.5 911.844,1070.33 906.5,1070.5C 908.765,1068.36 911.432,1066.69 914.5,1065.5C 915.491,1061.55 915.824,1057.55 915.5,1053.5C 918.807,1055.15 922.14,1056.82 925.5,1058.5C 929.966,1056.43 934.299,1054.1 938.5,1051.5 Z" /></g><g><path style="opacity:0.966" fill="#fbfbfd" d="M 951.5,1044.5 C 958.833,1044.5 966.167,1044.5 973.5,1044.5C 974.873,1044.34 976.207,1044.51 977.5,1045C 986.236,1050.37 995.236,1055.2 1004.5,1059.5C 1007.26,1061.08 1009.93,1062.91 1012.5,1065C 1001,1071.92 989.329,1078.59 977.5,1085C 968.167,1085.33 958.833,1085.67 949.5,1086C 951.37,1087.37 953.37,1088.53 955.5,1089.5C 956.711,1090.27 956.711,1091.11 955.5,1092C 944.337,1098.08 933.337,1104.41 922.5,1111C 912.506,1111.5 902.506,1111.67 892.5,1111.5C 893.209,1110.6 894.209,1110.26 895.5,1110.5C 895.5,1099.17 895.5,1087.83 895.5,1076.5C 898.999,1074.25 902.665,1072.25 906.5,1070.5C 911.844,1070.33 917.177,1070.5 922.5,1071C 927.372,1074.03 932.372,1076.87 937.5,1079.5C 938.498,1070.19 938.832,1060.86 938.5,1051.5C 942.701,1048.9 947.034,1046.57 951.5,1044.5 Z" /></g><g><path style="opacity:0.986" fill="#dbdfee" d="M 870.5,1079.5 C 873.669,1080.92 876.669,1082.58 879.5,1084.5C 878.117,1093.37 876.784,1102.37 875.5,1111.5C 862.167,1111.5 848.833,1111.5 835.5,1111.5C 835.5,1111.17 835.5,1110.83 835.5,1110.5C 847.191,1104.24 858.691,1097.57 870,1090.5C 870.499,1086.85 870.665,1083.18 870.5,1079.5 Z" /></g><g><path style="opacity:0.961" fill="#eaecf5" d="M 895.5,1076.5 C 895.5,1087.83 895.5,1099.17 895.5,1110.5C 894.209,1110.26 893.209,1110.6 892.5,1111.5C 886.833,1111.5 881.167,1111.5 875.5,1111.5C 876.784,1102.37 878.117,1093.37 879.5,1084.5C 879.833,1084.5 880.167,1084.5 880.5,1084.5C 885.483,1081.86 890.483,1079.2 895.5,1076.5 Z" /></g></svg>